<svg id="popCorn" width="413" height="560" viewBox="0 0 413 560" fill="none" xmlns="http://www.w3.org/2000/svg">
    <g clip-path="url(#clip0_1_75)">
        <rect width="413" height="560" />
        <path class="containerPop"
            d="M70.9019 560L16 268.255L79.3309 230.921L126.943 214.377L169.315 207H224.217L267.729 214.377L318.53 230.921L355.435 248.582L383 268.255L327.87 560H70.9019Z"
            stroke="black" stroke-width="14" stroke-linejoin="bevel" />
        <path class="popTrait2" d="M174.75 253L138 257.603L152.219 527H194L174.75 253Z" stroke="black" stroke-width="14"
            stroke-linejoin="bevel" />
        <path class="popTrait3" d="M268 259.763L235.121 253L217 527H249.879L268 259.763Z" stroke="black"
            stroke-width="14" stroke-linejoin="bevel" />
        <path class="popTrait4" d="M349 275.325L328.103 261L282 527H305.913L349 275.325Z" stroke="black"
            stroke-width="14" stroke-linejoin="bevel" />
        <path class="popTrait1" d="M88.6091 253L50 276.91L97.5524 527H127L88.6091 253Z" stroke="black" stroke-width="14"
            stroke-linejoin="bevel" />
        <path class="pop"
            d="M43.3173 198.461C47.3059 200.671 52.604 204.425 56.393 201.264C56.942 200.806 57.8436 199.451 58.1476 198.807C58.4976 198.066 59.0614 197.248 59.0731 196.405C59.0789 195.989 59.2569 195.684 59.2334 195.246C59.2118 194.845 59.0842 194.235 59.1642 193.848C59.3369 193.014 59.0565 192.187 59.2199 191.398C59.3668 190.689 59.0863 188.923 58.8291 188.16C58.5238 187.254 58.3673 186.52 57.7662 185.716C56.5362 184.071 55.5192 182.985 53.6255 182.041C51.7625 181.112 49.8476 179.937 47.8889 179.414C45.7485 178.842 43.3792 178.586 41.2144 178.523C40.3044 178.496 39.5607 178.726 38.7424 178.97C38.4216 179.065 37.9947 179.473 37.6241 179.637C37.0219 179.904 36.3125 180.405 35.8801 180.874C35.1134 181.705 34.2385 181.957 33.7289 183.037C33.1694 184.222 32.3598 185.243 31.8342 186.484C31.1977 187.987 30.5368 192.914 31.1253 191.39C31.3656 190.767 31.4298 189.292 31.2509 188.602C31.1561 188.237 31.3066 187.659 31.2659 187.247C31.2181 186.763 31.1645 186.208 30.9799 185.741C30.7822 185.241 30.7083 184.031 30.1865 183.735C29.4533 183.318 28.6649 182.976 27.9108 182.6C26.0775 181.686 23.6671 181.257 21.6264 181.008C19.8471 180.791 17.3264 180.835 15.8504 181.9C14.813 182.649 12.9823 183.418 12.1489 184.543C10.917 186.205 9.17882 187.4 8.24329 189.383C7.2209 191.549 6.57056 192.658 7.54388 195.119C7.91084 196.047 8.51245 197.134 9.13219 197.963C9.68327 198.7 9.73079 199.328 10.2769 200.076C11.0309 201.108 11.611 201.947 12.6258 202.789C13.7255 203.702 15.3757 204.088 16.3377 205.136C17.0303 205.89 18.2779 206.296 19.202 206.757C20.0066 207.158 21.2568 208.101 22.1369 208.165C23.0064 208.229 24.5951 208.063 24.9712 207.266C25.2367 206.703 25.9637 205.163 25.2973 206.575C23.8271 209.69 26.2102 214.367 27.2536 217.463C28.1363 220.083 31.2591 221.939 33.6638 223.138C34.8661 223.738 35.8149 224.707 37.0144 225.305C38.3942 225.993 39.5334 226.152 40.9175 226.522C41.9946 226.809 42.7587 226.206 43.8823 226.196C44.7714 226.189 46.3413 225.69 47.0295 225.233C47.4114 224.978 47.9842 224.916 48.339 224.633C48.8197 224.249 49.1988 223.754 49.7445 223.42C50.3114 223.073 51.0688 222.024 51.4504 221.476C51.8863 220.849 52.3463 220.176 52.6733 219.483C53.3063 218.142 53.9392 216.801 54.5722 215.46C55.0872 214.369 55.0119 212.925 55.2088 211.716C55.5425 209.666 54.7325 207.101 53.456 205.376C50.7921 201.776 47.1631 199.635 43.1678 197.643"
            stroke="black" stroke-width="11" stroke-linecap="round" />
        <path class="pop"
            d="M204.002 29.6768C201.947 26.0518 199.674 20.5481 194.801 21.5244C194.095 21.6659 192.6 22.4048 191.992 22.8113C191.292 23.2794 190.374 23.717 189.896 24.4197C189.66 24.7672 189.344 24.9446 189.12 25.3227C188.915 25.6697 188.681 26.2388 188.4 26.5279C187.795 27.1524 187.566 27.9718 186.993 28.5624C186.478 29.0933 185.728 30.7011 185.516 31.4564C185.264 32.3531 184.985 33.0392 185.033 33.9813C185.131 35.909 185.364 37.2727 186.398 38.9059C187.414 40.5124 188.337 42.3484 189.658 43.6563C191.102 45.0855 192.909 46.3511 194.654 47.3644C195.388 47.7903 196.128 47.9261 196.937 48.0846C197.254 48.1467 197.832 47.9929 198.228 48.0193C198.871 48.0622 199.734 47.9552 200.35 47.7531C201.442 47.3946 202.302 47.5706 203.321 46.8893C204.44 46.141 205.674 45.6422 206.795 44.8324C208.154 43.8514 211.435 40.0039 210.104 41.024C209.561 41.4404 208.688 42.652 208.452 43.3107C208.327 43.6595 207.883 44.0785 207.687 44.4432C207.457 44.8709 207.193 45.3611 207.086 45.8352C206.971 46.3431 206.359 47.3929 206.624 47.8731C206.996 48.548 207.454 49.1853 207.866 49.8356C208.866 51.4167 210.611 52.8452 212.152 53.9594C213.495 54.9308 215.594 56.0113 217.4 55.7703C218.669 55.6009 220.603 55.7663 221.913 55.1906C223.851 54.3396 225.945 54.1057 227.816 52.8547C229.861 51.4875 231.012 50.844 231.579 48.3439C231.792 47.4013 231.901 46.2216 231.852 45.2503C231.808 44.3866 232.117 43.8378 232.084 42.9672C232.037 41.7653 232.025 40.8034 231.658 39.6458C231.261 38.3913 230.118 37.3347 229.908 36.0282C229.757 35.0875 228.956 34.193 228.452 33.3961C228.013 32.7022 227.508 31.3556 226.82 30.9113C226.14 30.4724 224.74 29.9079 223.988 30.4108C223.457 30.7658 222.003 31.738 223.336 30.8469C226.276 28.8808 226.914 23.8939 227.776 20.8295C228.505 18.2369 226.967 15.2926 225.654 13.2188C224.998 12.182 224.756 10.9473 224.101 9.91278C223.348 8.72293 222.499 8.0843 221.566 7.16005C220.839 6.44087 219.876 6.60915 218.946 6.11895C218.21 5.73105 216.642 5.45399 215.821 5.53371C215.366 5.57793 214.86 5.37642 214.41 5.45731C213.801 5.56687 213.214 5.81476 212.58 5.85352C211.921 5.8938 210.715 6.43934 210.096 6.73105C209.39 7.06423 208.637 7.42586 207.983 7.86316C206.717 8.70957 205.451 9.55598 204.185 10.4024C203.155 11.0911 202.415 12.3375 201.582 13.2666C200.168 14.8415 199.41 17.3558 199.501 19.3714C199.693 23.5776 201.49 26.9851 203.67 30.4305"
            stroke="black" stroke-width="11" stroke-linecap="round" />
        <path class="pop"
            d="M233.976 160.859C231.915 157.239 229.608 151.758 224.888 152.631C224.204 152.758 222.764 153.46 222.18 153.851C221.508 154.3 220.623 154.715 220.171 155.401C219.948 155.74 219.644 155.909 219.433 156.279C219.239 156.618 219.022 157.176 218.755 157.456C218.177 158.062 217.969 158.868 217.423 159.441C216.931 159.956 216.231 161.53 216.038 162.273C215.808 163.154 215.549 163.827 215.613 164.759C215.742 166.666 215.993 168.018 217.026 169.651C218.043 171.257 218.973 173.089 220.28 174.406C221.708 175.845 223.487 177.13 225.202 178.163C225.923 178.598 226.645 178.746 227.433 178.918C227.743 178.985 228.302 178.844 228.687 178.877C229.314 178.932 230.15 178.842 230.745 178.654C231.801 178.32 232.64 178.51 233.619 177.856C234.693 177.137 235.883 176.667 236.959 175.888C238.263 174.944 241.385 171.203 240.109 172.186C239.588 172.588 238.761 173.769 238.543 174.415C238.428 174.758 238.003 175.163 237.819 175.52C237.604 175.938 237.355 176.418 237.259 176.884C237.156 177.384 236.58 178.41 236.846 178.89C237.22 179.563 237.677 180.202 238.088 180.852C239.089 182.433 240.81 183.877 242.328 185.007C243.65 185.992 245.709 187.099 247.461 186.895C248.692 186.751 250.575 186.95 251.838 186.406C253.706 185.601 255.738 185.409 257.535 184.208C259.498 182.895 260.606 182.281 261.113 179.821C261.304 178.893 261.389 177.729 261.323 176.769C261.265 175.914 261.557 175.378 261.509 174.517C261.442 173.328 261.414 172.378 261.037 171.227C260.628 169.98 259.498 168.914 259.271 167.619C259.108 166.687 258.314 165.788 257.809 164.991C257.37 164.297 256.856 162.957 256.179 162.505C255.51 162.059 254.14 161.475 253.417 161.958C252.907 162.299 251.511 163.232 252.791 162.376C255.615 160.488 256.146 155.572 256.93 152.56C257.593 150.012 256.046 147.074 254.733 145C254.077 143.963 253.82 142.738 253.165 141.704C252.412 140.514 251.576 139.867 250.652 138.936C249.933 138.212 248.999 138.36 248.087 137.859C247.365 137.462 245.835 137.159 245.039 137.222C244.597 137.257 244.101 137.049 243.666 137.12C243.076 137.217 242.51 137.451 241.894 137.478C241.254 137.505 240.091 138.022 239.495 138.298C238.814 138.614 238.089 138.958 237.461 139.378C236.245 140.19 235.03 141.003 233.814 141.816C232.825 142.477 232.128 143.695 231.333 144.598C229.987 146.128 229.294 148.598 229.419 150.592C229.68 154.752 231.487 158.152 233.667 161.598"
            stroke="black" stroke-width="11" stroke-linecap="round" />
        <path class="pop"
            d="M84.6497 144.373C83.17 140.19 81.7396 134.036 76.8998 133.903C76.1986 133.884 74.6534 134.292 74.0102 134.567C73.2695 134.883 72.3223 135.117 71.7637 135.724C71.4875 136.025 71.1579 136.132 70.8894 136.467C70.6431 136.774 70.3385 137.302 70.0277 137.532C69.3565 138.03 69.0218 138.814 68.387 139.285C67.8162 139.708 66.8693 141.178 66.5594 141.901C66.1916 142.759 65.8272 143.395 65.7427 144.369C65.5697 146.363 65.6056 147.811 66.3765 149.72C67.1349 151.599 67.771 153.69 68.8646 155.333C70.0595 157.13 71.6282 158.843 73.1727 160.284C73.8219 160.89 74.5174 161.2 75.2756 161.55C75.5729 161.687 76.1523 161.664 76.5309 161.783C77.1462 161.976 77.9934 162.067 78.6162 162.003C79.7205 161.891 80.5261 162.27 81.6043 161.81C82.7883 161.305 84.0479 161.081 85.2431 160.514C86.6909 159.827 90.392 156.655 88.9656 157.389C88.3832 157.689 87.3727 158.724 87.0537 159.343C86.8848 159.671 86.3972 159.996 86.1577 160.323C85.8768 160.707 85.5537 161.147 85.3842 161.607C85.2025 162.099 84.4665 163.03 84.6554 163.582C84.9208 164.359 85.2748 165.117 85.5818 165.877C86.3281 167.725 87.8144 169.591 89.1468 171.087C90.3085 172.392 92.1841 173.984 93.9611 174.157C95.2101 174.278 97.0534 174.896 98.3984 174.612C100.386 174.192 102.44 174.439 104.42 173.594C106.583 172.672 107.784 172.281 108.678 169.857C109.015 168.943 109.284 167.762 109.371 166.758C109.448 165.865 109.823 165.376 109.911 164.478C110.033 163.238 110.156 162.252 109.962 160.984C109.752 159.609 108.796 158.264 108.775 156.879C108.759 155.883 108.111 154.782 107.734 153.851C107.407 153.039 107.107 151.546 106.504 150.932C105.908 150.325 104.636 149.423 103.84 149.763C103.278 150.002 101.74 150.659 103.15 150.057C106.261 148.73 107.568 143.78 108.826 140.847C109.889 138.366 108.813 135 107.834 132.575C107.345 131.363 107.282 130.044 106.794 128.835C106.232 127.444 105.501 126.594 104.729 125.432C104.127 124.529 103.173 124.477 102.344 123.76C101.688 123.193 100.212 122.545 99.4089 122.436C98.9633 122.376 98.5029 122.052 98.0579 122.031C97.455 122.001 96.8541 122.118 96.2362 122.011C95.5943 121.899 94.3547 122.177 93.717 122.331C92.9886 122.508 92.2122 122.703 91.5202 122.998C90.1809 123.569 88.8415 124.141 87.5022 124.712C86.4123 125.177 85.5251 126.279 84.5912 127.036C83.0082 128.317 81.9271 130.712 81.7361 132.793C81.3374 137.138 82.5988 141.038 84.2252 145.066"
            stroke="black" stroke-width="11" stroke-linecap="round" />
        <path class="pop"
            d="M352.791 102.265C350.845 98.2892 348.724 92.3496 343.902 92.7994C343.204 92.8646 341.716 93.456 341.108 93.8059C340.408 94.2088 339.494 94.5552 339.009 95.2257C338.769 95.5573 338.454 95.7042 338.225 96.0688C338.016 96.4033 337.773 96.9639 337.491 97.2301C336.881 97.8052 336.638 98.6245 336.061 99.1685C335.542 99.6574 334.769 101.231 334.543 101.986C334.276 102.882 333.986 103.558 334.013 104.536C334.069 106.536 334.269 107.97 335.252 109.774C336.219 111.548 337.089 113.548 338.362 115.049C339.753 116.689 341.506 118.202 343.204 119.447C343.918 119.971 344.644 120.196 345.437 120.452C345.747 120.552 346.32 120.459 346.71 120.532C347.343 120.65 348.195 120.638 348.806 120.5C349.89 120.255 350.733 120.535 351.751 119.949C352.87 119.305 354.095 118.931 355.218 118.224C356.577 117.367 359.892 113.772 358.559 114.673C358.015 115.04 357.129 116.191 356.883 116.843C356.752 117.189 356.305 117.57 356.104 117.924C355.869 118.339 355.598 118.815 355.482 119.292C355.358 119.803 354.733 120.816 354.983 121.342C355.335 122.081 355.773 122.791 356.165 123.509C357.116 125.255 358.805 126.929 360.298 128.255C361.6 129.411 363.644 130.767 365.429 130.725C366.683 130.695 368.584 131.087 369.887 130.643C371.814 129.986 373.882 129.985 375.752 128.908C377.795 127.731 378.943 127.199 379.555 124.684C379.786 123.736 379.918 122.531 379.89 121.523C379.865 120.626 380.182 120.096 380.168 119.193C380.148 117.948 380.157 116.954 379.82 115.717C379.455 114.377 378.352 113.156 378.174 111.784C378.045 110.796 377.276 109.781 376.796 108.901C376.378 108.135 375.91 106.687 375.241 106.15C374.581 105.62 373.214 104.877 372.463 105.31C371.932 105.615 370.479 106.452 371.811 105.685C374.75 103.993 375.485 98.9197 376.399 95.856C377.173 93.2641 375.721 90.0498 374.473 87.7597C373.849 86.6147 373.637 85.3128 373.014 84.1704C372.298 82.8564 371.475 82.1002 370.576 81.0396C369.876 80.2144 368.922 80.2777 368.017 79.6655C367.301 79.181 365.762 78.7156 364.951 78.7039C364.502 78.6975 364.008 78.4316 363.564 78.4636C362.961 78.507 362.378 78.6957 361.752 78.663C361.102 78.6292 359.902 79.0541 359.287 79.2843C358.583 79.5473 357.835 79.8343 357.181 80.2108C355.916 80.9393 354.651 81.6679 353.386 82.3964C352.356 82.9892 351.6 84.1907 350.759 85.054C349.333 86.5174 348.532 89.0252 348.579 91.1156C348.678 95.478 350.374 99.1998 352.448 103.005"
            stroke="black" stroke-width="11" stroke-linecap="round" />
        <path class="pop"
            d="M56.321 73.0812C59.7103 70.3117 64.9338 66.9648 63.5213 62.2047C63.3166 61.5151 62.4496 60.1383 61.9924 59.5984C61.4658 58.9766 60.9493 58.1276 60.2117 57.7758C59.8469 57.6018 59.6427 57.3148 59.2488 57.1592C58.8874 57.0165 58.3041 56.8869 57.9929 56.6571C57.3207 56.1607 56.4908 56.0834 55.855 55.6139C55.2835 55.1918 53.6274 54.7349 52.8622 54.6622C51.9538 54.5759 51.2509 54.4226 50.3253 54.6493C48.4315 55.1131 47.1068 55.6076 45.5898 56.9649C44.0975 58.3001 42.3702 59.5836 41.2007 61.1711C39.9228 62.9058 38.8399 64.9786 38.0004 66.9414C37.6476 67.7664 37.5816 68.5429 37.4996 69.393C37.4675 69.7263 37.6726 70.2837 37.683 70.6906C37.6999 71.3517 37.8849 72.2063 38.1412 72.7933C38.5956 73.834 38.501 74.7397 39.2675 75.6449C40.1091 76.6388 40.7151 77.7957 41.6178 78.7808C42.7113 79.9741 46.8114 82.5757 45.6819 81.418C45.2207 80.9454 43.9444 80.289 43.2725 80.1743C42.9166 80.1135 42.4621 79.7413 42.0841 79.6117C41.6407 79.4597 41.1325 79.2843 40.6546 79.2649C40.1426 79.2441 39.0501 78.822 38.6004 79.1814C37.9684 79.6865 37.3815 80.272 36.7775 80.8124C35.3089 82.1264 34.0594 84.1671 33.1015 85.9408C32.2662 87.4872 31.3929 89.8206 31.7971 91.6077C32.0812 92.8639 32.096 94.8567 32.785 96.0776C33.8034 97.8822 34.2271 99.9628 35.6343 101.625C37.1721 103.441 37.9133 104.487 40.4335 104.589C41.3836 104.628 42.5582 104.515 43.5124 104.282C44.361 104.074 44.9312 104.284 45.7875 104.085C46.9696 103.811 47.9181 103.617 49.027 103.026C50.2288 102.385 51.1665 101.026 52.4369 100.566C53.3516 100.235 54.1608 99.2539 54.9011 98.5915C55.5456 98.0149 56.8284 97.2482 57.2035 96.4658C57.5741 95.6928 58.0026 94.1661 57.4368 93.498C57.0375 93.0265 55.944 91.735 56.9463 92.9187C59.1579 95.5304 64.1393 95.2346 67.2437 95.5296C69.87 95.7792 72.6348 93.6621 74.561 91.9386C75.5241 91.0769 76.7206 90.5976 77.6815 89.7378C78.7867 88.7489 79.3389 87.7668 80.1653 86.645C80.8084 85.7721 80.5535 84.826 80.9518 83.79C81.267 82.9702 81.396 81.3264 81.2418 80.5088C81.1562 80.0552 81.3085 79.5038 81.1873 79.0631C81.0231 78.4661 80.7243 77.9175 80.6276 77.281C80.5272 76.6197 79.8776 75.4995 79.5327 74.9269C79.1387 74.2729 78.7125 73.5779 78.2206 72.997C77.2685 71.8727 76.3164 70.7483 75.3644 69.624C74.5896 68.7091 73.2912 68.1939 72.2973 67.5235C70.6125 66.387 68.0606 66.0928 66.0794 66.5671C61.945 67.5567 58.7469 70.0239 55.5466 72.8873"
            stroke="black" stroke-width="11" stroke-linecap="round" />
        <path class="pop"
            d="M139.846 90.4573C137.844 86.8021 135.626 81.2825 130.892 82.0758C130.206 82.1908 128.755 82.8685 128.165 83.2488C127.486 83.6868 126.594 84.0869 126.132 84.7646C125.903 85.0998 125.596 85.264 125.379 85.6298C125.18 85.9655 124.954 86.5198 124.682 86.7956C124.095 87.3915 123.874 88.1933 123.318 88.7569C122.819 89.2635 122.093 90.8261 121.888 91.5651C121.645 92.4426 121.375 93.1108 121.423 94.0436C121.522 95.9523 121.751 97.3084 122.758 98.9589C123.748 100.583 124.648 102.43 125.934 103.769C127.339 105.232 129.097 106.547 130.795 107.61C131.509 108.056 132.228 108.217 133.014 108.402C133.322 108.474 133.883 108.343 134.268 108.383C134.894 108.448 135.731 108.372 136.33 108.194C137.391 107.879 138.226 108.083 139.215 107.445C140.301 106.745 141.499 106.296 142.587 105.535C143.906 104.613 147.087 100.926 145.796 101.887C145.269 102.28 144.423 103.446 144.195 104.089C144.074 104.429 143.642 104.828 143.453 105.181C143.231 105.596 142.975 106.071 142.871 106.536C142.76 107.034 142.168 108.05 142.426 108.534C142.789 109.214 143.235 109.86 143.636 110.517C144.611 112.115 146.309 113.589 147.808 114.744C149.115 115.751 151.156 116.893 152.91 116.719C154.144 116.596 156.022 116.827 157.295 116.305C159.176 115.532 161.21 115.374 163.026 114.204C165.01 112.925 166.128 112.329 166.674 109.878C166.88 108.954 166.984 107.792 166.934 106.83C166.89 105.975 167.19 105.443 167.155 104.582C167.108 103.392 167.095 102.441 166.736 101.284C166.348 100.03 165.236 98.9457 165.03 97.647C164.881 96.7119 164.102 95.7997 163.61 94.9942C163.182 94.293 162.69 92.9443 162.02 92.4809C161.358 92.0232 159.998 91.4159 159.267 91.8865C158.752 92.2187 157.341 93.1284 158.635 92.2946C161.488 90.4549 162.099 85.5486 162.931 82.5502C163.635 80.0135 162.135 77.0493 160.857 74.9535C160.217 73.9056 159.98 72.6767 159.342 71.6312C158.608 70.4287 157.782 69.7676 156.873 68.8213C156.166 68.0849 155.23 68.2173 154.326 67.7C153.61 67.2908 152.086 66.9617 151.289 67.0116C150.846 67.0392 150.354 66.8223 149.918 66.8864C149.326 66.9732 148.757 67.1976 148.14 67.2135C147.5 67.2301 146.329 67.7269 145.728 67.9934C145.042 68.2978 144.312 68.6287 143.677 69.0379C142.449 69.8299 141.22 70.6218 139.992 71.4138C138.992 72.0582 138.275 73.264 137.466 74.1529C136.096 75.6597 135.363 78.1181 135.456 80.1134C135.649 84.2774 137.401 87.7084 139.526 91.1905"
            stroke="black" stroke-width="11" stroke-linecap="round" />
        <path class="pop"
            d="M170.44 146.33C173.267 143.305 177.769 139.53 175.665 135.1C175.36 134.458 174.31 133.225 173.786 132.754C173.182 132.212 172.552 131.45 171.787 131.19C171.409 131.061 171.168 130.806 170.765 130.699C170.395 130.6 169.813 130.537 169.478 130.349C168.753 129.943 167.943 129.956 167.257 129.572C166.641 129.227 164.977 128.963 164.229 128.974C163.342 128.988 162.641 128.915 161.786 129.231C160.037 129.879 158.84 130.495 157.592 131.962C156.366 133.405 154.905 134.824 154.028 136.476C153.07 138.281 152.353 140.39 151.852 142.368C151.642 143.199 151.7 143.953 151.754 144.78C151.775 145.104 152.06 145.619 152.133 146.009C152.253 146.644 152.565 147.446 152.903 147.984C153.504 148.937 153.554 149.819 154.433 150.608C155.399 151.475 156.163 152.524 157.186 153.376C158.424 154.408 162.776 156.476 161.509 155.482C160.991 155.076 159.66 154.58 158.996 154.541C158.644 154.521 158.148 154.211 157.764 154.126C157.314 154.027 156.798 153.912 156.335 153.944C155.839 153.979 154.722 153.688 154.345 154.082C153.816 154.635 153.343 155.261 152.847 155.845C151.639 157.265 150.757 159.362 150.112 161.17C149.551 162.747 149.076 165.085 149.745 166.762C150.215 167.94 150.541 169.856 151.395 170.958C152.657 172.586 153.39 174.543 155.004 175.993C156.768 177.577 157.645 178.505 160.086 178.336C161.006 178.272 162.118 178.039 163 177.713C163.784 177.423 164.365 177.565 165.158 177.282C166.253 176.892 167.135 176.606 168.109 175.919C169.165 175.175 169.855 173.767 171.005 173.19C171.833 172.774 172.458 171.744 173.067 171.028C173.596 170.405 174.711 169.531 174.949 168.738C175.185 167.955 175.358 166.44 174.709 165.858C174.251 165.446 172.997 164.32 174.146 165.352C176.683 167.63 181.43 166.817 184.463 166.771C187.028 166.732 189.357 164.402 190.941 162.539C191.732 161.607 192.809 161.019 193.599 160.089C194.507 159.021 194.885 158.017 195.504 156.85C195.986 155.941 195.593 155.058 195.814 154.019C195.989 153.197 195.856 151.601 195.579 150.831C195.426 150.403 195.486 149.857 195.301 149.446C195.049 148.889 194.676 148.392 194.483 147.79C194.283 147.165 193.483 146.156 193.061 145.641C192.58 145.054 192.061 144.43 191.497 143.924C190.405 142.943 189.313 141.962 188.221 140.981C187.332 140.183 186.002 139.825 184.941 139.286C183.142 138.371 180.641 138.359 178.809 139.026C174.986 140.417 172.295 143.131 169.664 146.226"
            stroke="black" stroke-width="11" stroke-linecap="round" />
        <path class="pop"
            d="M245.49 92.9361C242.912 89.6841 239.813 84.6325 235.28 86.2416C234.623 86.4747 233.305 87.3961 232.787 87.874C232.19 88.4244 231.377 88.9745 231.033 89.7233C230.863 90.0935 230.588 90.3089 230.435 90.7073C230.294 91.0729 230.163 91.6586 229.941 91.978C229.461 92.6678 229.375 93.4965 228.921 94.149C228.513 94.7355 228.056 96.4023 227.976 97.1664C227.881 98.0735 227.726 98.7792 227.928 99.69C228.341 101.554 228.791 102.85 230.056 104.3C231.301 105.727 232.493 107.39 233.982 108.485C235.608 109.682 237.558 110.67 239.407 111.421C240.185 111.736 240.92 111.768 241.725 111.814C242.04 111.831 242.572 111.603 242.958 111.576C243.585 111.53 244.398 111.31 244.958 111.03C245.951 110.533 246.809 110.588 247.678 109.787C248.632 108.907 249.738 108.255 250.685 107.315C251.832 106.176 254.357 101.987 253.243 103.16C252.789 103.639 252.148 104.936 252.03 105.61C251.967 105.966 251.608 106.434 251.479 106.816C251.329 107.263 251.155 107.776 251.13 108.252C251.103 108.762 250.687 109.867 251.022 110.299C251.492 110.906 252.038 111.464 252.542 112.042C253.767 113.446 255.684 114.601 257.353 115.478C258.807 116.242 261.007 117.011 262.707 116.532C263.902 116.196 265.792 116.095 266.96 115.358C268.685 114.267 270.664 113.757 272.26 112.286C274.004 110.679 275.006 109.896 275.139 107.386C275.189 106.439 275.099 105.276 274.891 104.337C274.706 103.502 274.914 102.925 274.737 102.082C274.494 100.918 274.324 99.9833 273.779 98.9058C273.189 97.7381 271.913 96.8638 271.496 95.62C271.195 94.7244 270.276 93.9617 269.658 93.2539C269.121 92.6377 268.412 91.3947 267.675 91.0551C266.948 90.7197 265.506 90.3591 264.865 90.9504C264.412 91.3678 263.172 92.5108 264.308 91.4632C266.816 89.1516 266.607 84.2099 266.931 81.1097C267.205 78.4869 265.237 75.828 263.63 73.9862C262.827 73.0653 262.389 71.8959 261.588 70.9771C260.666 69.9203 259.742 69.4132 258.69 68.6394C257.872 68.0373 256.971 68.3314 255.995 67.9797C255.222 67.7014 253.665 67.6436 252.888 67.8321C252.456 67.9366 251.936 67.8088 251.516 67.9483C250.948 68.1372 250.423 68.4579 249.818 68.5813C249.19 68.7096 248.118 69.4037 247.571 69.7713C246.945 70.1912 246.28 70.645 245.722 71.1591C244.642 72.1542 243.563 73.1494 242.483 74.1445C241.605 74.9543 241.098 76.2678 240.448 77.2851C239.346 79.0095 239.031 81.5601 239.452 83.5102C240.332 87.5797 242.626 90.6546 245.295 93.7147"
            stroke="black" stroke-width="11" stroke-linecap="round" />
        <path class="pop"
            d="M307.969 44.8401C310.617 41.6485 314.894 37.6059 312.538 33.3114C312.197 32.6892 311.078 31.5226 310.527 31.0843C309.893 30.5796 309.22 29.8572 308.442 29.644C308.057 29.5386 307.801 29.2993 307.393 29.2162C307.018 29.1399 306.433 29.1126 306.088 28.9453C305.341 28.5838 304.533 28.6469 303.827 28.305C303.192 27.9977 301.515 27.8357 300.769 27.8925C299.884 27.9599 299.181 27.9298 298.345 28.2977C296.636 29.0505 295.477 29.7388 294.316 31.2792C293.175 32.7946 291.798 34.2996 291.018 36.0018C290.166 37.8618 289.571 40.0113 289.186 42.0161C289.023 42.8588 289.125 43.6081 289.227 44.4301C289.266 44.7523 289.58 45.2487 289.676 45.6339C289.832 46.2599 290.19 47.0422 290.559 47.5582C291.213 48.4732 291.314 49.3501 292.237 50.0848C293.251 50.8915 294.074 51.8921 295.144 52.6803C296.44 53.6352 300.904 55.4346 299.581 54.5195C299.04 54.1459 297.683 53.7317 297.018 53.7332C296.665 53.734 296.153 53.4548 295.765 53.3938C295.309 53.3222 294.787 53.2391 294.327 53.2992C293.834 53.3637 292.702 53.1421 292.349 53.5579C291.853 54.1422 291.417 54.7956 290.955 55.4091C289.831 56.9003 289.071 59.0468 288.532 60.8912C288.062 62.4994 287.723 64.8622 288.487 66.4952C289.024 67.6431 289.46 69.5359 290.376 70.5836C291.73 72.1322 292.575 74.0412 294.269 75.39C296.121 76.8641 297.05 77.7371 299.477 77.4198C300.392 77.3001 301.489 76.9996 302.35 76.6202C303.116 76.2829 303.705 76.3893 304.48 76.0592C305.55 75.6035 306.414 75.2635 307.347 74.5188C308.358 73.7116 308.965 72.2646 310.08 71.6184C310.883 71.153 311.448 70.0864 312.014 69.3347C312.507 68.6802 313.569 67.74 313.761 66.9341C313.951 66.138 314.037 64.6156 313.356 64.0733C312.875 63.6905 311.558 62.6424 312.765 63.6031C315.428 65.7229 320.12 64.6218 323.145 64.3914C325.704 64.1965 327.894 61.7281 329.368 59.7721C330.104 58.7941 331.145 58.1413 331.88 57.1655C332.725 56.0432 333.044 55.0183 333.595 53.8154C334.024 52.8794 333.581 52.0216 333.742 50.9708C333.869 50.1393 333.644 48.5547 333.324 47.8026C333.146 47.3853 333.175 46.8358 332.966 46.4366C332.683 45.8959 332.281 45.4234 332.054 44.834C331.819 44.2216 330.961 43.2632 330.511 42.7754C329.997 42.2182 329.443 41.6274 328.85 41.1559C327.704 40.2434 326.557 39.3308 325.411 38.4182C324.478 37.6756 323.129 37.3994 322.039 36.9254C320.191 36.1218 317.693 36.262 315.903 37.0391C312.167 38.6607 309.637 41.5333 307.189 44.7832"
            stroke="black" stroke-width="11" stroke-linecap="round" />
        <path class="pop"
            d="M323.055 160.574C326.441 158.233 331.618 155.522 330.473 150.734C330.307 150.041 329.535 148.608 329.12 148.033C328.641 147.372 328.182 146.49 327.488 146.069C327.145 145.861 326.962 145.56 326.59 145.367C326.248 145.19 325.693 145.002 325.404 144.745C324.779 144.191 323.984 144.028 323.394 143.503C322.863 143.032 321.29 142.412 320.557 142.26C319.687 142.08 319.017 141.857 318.117 141.98C316.273 142.232 314.976 142.575 313.456 143.737C311.96 144.881 310.24 145.95 309.043 147.373C307.735 148.929 306.6 150.835 305.703 152.659C305.327 153.426 305.228 154.176 305.111 154.995C305.065 155.317 305.237 155.882 305.229 156.279C305.216 156.925 305.355 157.778 305.575 158.377C305.966 159.439 305.834 160.311 306.53 161.274C307.295 162.332 307.826 163.523 308.651 164.578C309.649 165.856 313.477 168.824 312.442 167.576C312.02 167.067 310.821 166.293 310.18 166.11C309.84 166.014 309.42 165.603 309.062 165.437C308.642 165.242 308.161 165.018 307.702 164.948C307.21 164.874 306.178 164.347 305.729 164.65C305.098 165.076 304.507 165.584 303.902 166.047C302.429 167.173 301.135 169.03 300.133 170.657C299.26 172.076 298.315 174.258 298.623 176.042C298.84 177.296 298.764 179.24 299.372 180.502C300.271 182.368 300.585 184.44 301.864 186.208C303.262 188.14 303.928 189.238 306.348 189.603C307.26 189.741 308.396 189.755 309.324 189.628C310.15 189.515 310.689 189.78 311.522 189.677C312.672 189.534 313.594 189.445 314.687 188.986C315.872 188.489 316.836 187.263 318.079 186.949C318.974 186.723 319.797 185.851 320.539 185.284C321.185 184.79 322.454 184.178 322.85 183.455C323.242 182.741 323.723 181.299 323.209 180.588C322.846 180.086 321.852 178.712 322.763 179.972C324.773 182.75 329.579 182.987 332.553 183.602C335.069 184.122 337.825 182.35 339.756 180.874C340.721 180.136 341.894 179.795 342.858 179.058C343.966 178.211 344.541 177.312 345.387 176.306C346.045 175.523 345.842 174.574 346.272 173.607C346.612 172.841 346.811 171.253 346.699 170.44C346.637 169.989 346.809 169.468 346.712 169.025C346.581 168.426 346.318 167.86 346.254 167.23C346.187 166.575 345.612 165.415 345.306 164.82C344.957 164.141 344.578 163.419 344.131 162.801C343.265 161.605 342.4 160.409 341.534 159.213C340.83 158.24 339.604 157.601 338.678 156.843C337.108 155.558 334.666 155.002 332.738 155.255C328.715 155.784 325.527 157.851 322.319 160.303"
            stroke="black" stroke-width="11" stroke-linecap="round" />
        <path class="pop"
            d="M106.889 25.1846C110.275 22.8431 115.452 20.1324 114.308 15.3448C114.142 14.6511 113.37 13.218 112.954 12.6437C112.475 11.9822 112.017 11.1004 111.323 10.6798C110.98 10.4718 110.796 10.1705 110.424 9.97743C110.083 9.80027 109.527 9.61242 109.238 9.35566C108.614 8.80102 107.819 8.6382 107.228 8.11361C106.697 7.64205 105.124 7.02218 104.391 6.87065C103.521 6.69074 102.852 6.46725 101.951 6.59057C100.108 6.84291 98.8109 7.18506 97.2901 8.34778C95.794 9.49157 94.0741 10.5603 92.8773 11.9839C91.5696 13.5397 90.4342 15.4453 89.538 17.2695C89.1612 18.0363 89.0628 18.7861 88.9456 19.6059C88.8997 19.9273 89.0719 20.4921 89.0635 20.8897C89.05 21.5357 89.1895 22.3881 89.4097 22.9871C89.8 24.0491 89.6682 24.9218 90.3649 25.8847C91.1299 26.942 91.6609 28.1333 92.4851 29.1885C93.4834 30.4666 97.3113 33.4342 96.2767 32.1869C95.8543 31.6777 94.6557 30.9035 94.0144 30.7209C93.6747 30.6241 93.2542 30.2135 92.8963 30.0474C92.4765 29.8525 91.9954 29.628 91.5364 29.5587C91.0447 29.4844 90.0125 28.9579 89.5636 29.2607C88.9328 29.6862 88.3417 30.1949 87.7361 30.6579C86.2638 31.7835 84.9696 33.6404 83.9679 35.2679C83.0945 36.6868 82.149 38.8685 82.4575 40.6527C82.6742 41.9068 82.5986 43.8504 83.2066 45.1128C84.1051 46.9787 84.4191 49.0509 85.6982 50.8187C87.0961 52.7507 87.7621 53.8484 90.1824 54.214C91.0949 54.3518 92.2302 54.3657 93.1589 54.2386C93.9847 54.1255 94.5239 54.3908 95.3568 54.2873C96.5066 54.1443 97.428 54.0559 98.5217 53.5967C99.7068 53.099 100.67 51.8733 101.913 51.5592C102.809 51.3331 103.631 50.462 104.374 49.8946C105.02 49.4006 106.289 48.7887 106.685 48.0658C107.076 47.3516 107.557 45.909 107.043 45.1983C106.68 44.6967 105.686 43.3229 106.597 44.5821C108.607 47.3604 113.414 47.5974 116.388 48.2122C118.903 48.7323 121.659 46.9607 123.59 45.4843C124.556 44.7462 125.729 44.4052 126.692 43.6687C127.8 42.8216 128.376 41.9228 129.221 40.9167C129.879 40.1339 129.677 39.1849 130.107 38.2174C130.447 37.4518 130.645 35.8635 130.534 35.0504C130.472 34.5994 130.643 34.0781 130.546 33.6359C130.415 33.0368 130.153 32.4707 130.088 31.8403C130.021 31.1852 129.447 30.0251 129.141 29.4307C128.791 28.7519 128.412 28.0297 127.965 27.4117C127.1 26.2157 126.234 25.0196 125.369 23.8236C124.665 22.8503 123.438 22.2114 122.512 21.4533C120.942 20.1681 118.5 19.6123 116.573 19.8656C112.55 20.394 109.361 22.461 106.153 24.914"
            stroke="black" stroke-width="11" stroke-linecap="round" />
        <path class="pop"
            d="M358.988 211.746C355.661 209.316 351.367 205.294 347.413 208.084C346.84 208.489 345.808 209.737 345.432 210.34C344.999 211.033 344.358 211.786 344.22 212.602C344.152 213.005 343.942 213.288 343.898 213.714C343.857 214.105 343.882 214.705 343.751 215.074C343.466 215.87 343.598 216.692 343.329 217.445C343.088 218.122 343.078 219.854 343.199 220.612C343.343 221.513 343.375 222.236 343.806 223.058C344.686 224.742 345.455 225.869 347.05 226.921C348.619 227.956 350.199 229.233 351.917 229.882C353.795 230.59 355.93 231.01 357.907 231.228C358.738 231.32 359.455 231.15 360.242 230.973C360.551 230.904 361.005 230.539 361.369 230.407C361.962 230.192 362.689 229.757 363.156 229.334C363.985 228.583 364.826 228.402 365.457 227.392C366.149 226.283 367.046 225.352 367.716 224.187C368.527 222.776 369.877 218.047 369.107 219.482C368.792 220.068 368.511 221.494 368.571 222.175C368.603 222.536 368.377 223.086 368.352 223.488C368.323 223.961 368.289 224.503 368.387 224.969C368.493 225.468 368.378 226.646 368.813 226.971C369.422 227.428 370.094 227.817 370.729 228.236C372.273 229.255 374.42 229.844 376.255 230.233C377.855 230.572 380.175 230.712 381.69 229.785C382.755 229.134 384.551 228.521 385.485 227.491C386.867 225.968 388.642 224.935 389.8 223.081C391.065 221.054 391.829 220.026 391.308 217.57C391.111 216.643 390.723 215.547 390.279 214.698C389.885 213.944 389.936 213.332 389.548 212.567C389.012 211.512 388.606 210.657 387.802 209.767C386.931 208.803 385.475 208.309 384.751 207.224C384.229 206.443 383.146 205.959 382.367 205.445C381.69 204.998 380.685 203.994 379.887 203.868C379.099 203.743 377.616 203.79 377.151 204.535C376.822 205.061 375.922 206.502 376.747 205.182C378.566 202.268 377.086 197.561 376.596 194.484C376.182 191.881 373.596 189.856 371.571 188.52C370.558 187.852 369.834 186.844 368.824 186.177C367.662 185.411 366.64 185.174 365.426 184.716C364.481 184.359 363.689 184.889 362.657 184.817C361.84 184.76 360.324 185.13 359.623 185.524C359.234 185.743 358.699 185.762 358.331 186.011C357.832 186.349 357.409 186.801 356.858 187.085C356.286 187.381 355.433 188.343 355 188.847C354.505 189.423 353.981 190.042 353.577 190.69C352.793 191.945 352.01 193.199 351.227 194.454C350.59 195.474 350.441 196.879 350.077 198.037C349.462 200.001 349.818 202.546 350.729 204.311C352.629 207.993 355.636 210.33 359.001 212.55"
            stroke="black" stroke-width="11" stroke-linecap="round" />
    </g>
</svg>