<svg width="914" height="1279" viewBox="0 0 914 1279" fill="none" xmlns="http://www.w3.org/2000/svg">
    <g clip-path="url(#clip0_4_107)">
        <rect width="413" height="560" fill="none" />
        <path class="containerPop"
            d="M161.661 1245L36 596.219L180.953 513.195L289.929 476.406L386.913 460H512.574L612.164 476.406L728.44 513.195L812.909 552.47L876 596.219L749.818 1245H161.661Z"
            stroke="black" stroke-width="27" stroke-linejoin="bevel" />
        <path class="trait2" d="M400 563L316 573.232L348.5 1172H444L400 563Z" stroke="black" stroke-width="25"
            stroke-linejoin="bevel" />
        <path class="trait3" d="M612 578.031L537.861 563L497 1172H571.139L612 578.031Z" stroke="black" stroke-width="25"
            stroke-linejoin="bevel" />
        <path class="trait4" d="M799 608.096L740.675 576L612 1172H678.743L799 608.096Z" stroke="black" stroke-width="25"
            stroke-linejoin="bevel" />
        <path class="trait1" d="M202.249 585L114 636.224L222.691 1172H290L202.249 585Z" stroke="black" stroke-width="25"
            stroke-linejoin="bevel" />
        <path class="popcorn1"
            d="M466.202 65.9779C461.507 57.9187 456.312 45.6827 445.175 47.8534C443.561 48.1678 440.146 49.8106 438.756 50.7143C437.156 51.755 435.058 52.7278 433.966 54.2901C433.426 55.0628 432.704 55.4571 432.193 56.2978C431.724 57.0691 431.189 58.3344 430.549 58.9771C429.165 60.3654 428.642 62.1871 427.333 63.5002C426.156 64.6806 424.442 68.255 423.957 69.9342C423.38 71.9279 422.743 73.4532 422.853 75.5476C423.077 79.8332 423.61 82.8651 425.971 86.496C428.295 90.0677 430.404 94.1495 433.423 97.0572C436.721 100.235 440.851 103.048 444.841 105.301C446.518 106.248 448.209 106.55 450.056 106.902C450.781 107.04 452.102 106.698 453.007 106.757C454.478 106.853 456.448 106.615 457.856 106.165C460.353 105.368 462.318 105.76 464.647 104.245C467.204 102.581 470.023 101.472 472.586 99.6719C475.692 97.491 483.19 88.9371 480.148 91.205C478.906 92.1309 476.912 94.8245 476.373 96.2889C476.088 97.0644 475.071 97.9958 474.624 98.8066C474.099 99.7575 473.495 100.847 473.25 101.901C472.987 103.031 471.589 105.364 472.194 106.432C473.044 107.933 474.092 109.349 475.032 110.795C477.318 114.31 481.307 117.486 484.827 119.963C487.897 122.123 492.693 124.525 496.82 123.989C499.722 123.613 504.14 123.98 507.135 122.7C511.563 120.808 516.348 120.289 520.624 117.507C525.297 114.468 527.928 113.037 529.223 107.479C529.711 105.383 529.96 102.76 529.847 100.601C529.746 98.6807 530.454 97.4608 530.377 95.5252C530.27 92.8531 530.244 90.7145 529.405 88.1409C528.496 85.3519 525.885 83.003 525.406 80.0983C525.061 78.0069 523.231 76.0183 522.078 74.2465C521.075 72.7039 519.921 69.7101 518.348 68.7224C516.794 67.7467 513.595 66.4915 511.876 67.6097C510.663 68.3989 507.34 70.5603 510.386 68.5792C517.106 64.2081 518.563 53.1212 520.532 46.3082C522.198 40.5444 518.683 33.9986 515.685 29.3882C514.185 27.0831 513.631 24.3381 512.135 22.0381C510.414 19.3929 508.474 17.973 506.341 15.9182C504.681 14.3193 502.478 14.6935 500.354 13.6036C498.672 12.7412 495.088 12.1253 493.212 12.3025C492.172 12.4008 491.015 11.9528 489.988 12.1327C488.597 12.3763 487.256 12.9274 485.806 13.0135C484.299 13.1031 481.544 14.3159 480.13 14.9645C478.515 15.7052 476.795 16.5092 475.301 17.4814C472.408 19.3631 469.515 21.2449 466.622 23.1266C464.268 24.6578 462.577 27.4288 460.671 29.4943C457.441 32.9957 455.707 38.5856 455.917 43.0668C456.355 52.418 460.462 59.9935 465.444 67.6534"
            stroke="black" stroke-width="11" stroke-linecap="round" />
        <path class="popcorn2"
            d="M534.702 357.625C529.993 349.575 524.72 337.39 513.933 339.332C512.37 339.614 509.08 341.175 507.746 342.043C506.21 343.042 504.187 343.966 503.154 345.49C502.644 346.243 501.949 346.62 501.467 347.441C501.025 348.195 500.529 349.436 499.917 350.059C498.597 351.406 498.122 353.197 496.873 354.47C495.751 355.616 494.15 359.117 493.709 360.767C493.185 362.727 492.593 364.223 492.737 366.294C493.033 370.533 493.606 373.539 495.968 377.17C498.291 380.742 500.416 384.813 503.403 387.742C506.667 390.941 510.733 393.797 514.652 396.096C516.299 397.062 517.949 397.391 519.751 397.772C520.457 397.922 521.735 397.608 522.616 397.683C524.048 397.804 525.959 397.604 527.32 397.186C529.732 396.444 531.65 396.866 533.886 395.411C536.342 393.814 539.061 392.769 541.521 391.037C544.5 388.938 551.633 380.621 548.717 382.807C547.527 383.7 545.637 386.325 545.14 387.762C544.877 388.524 543.905 389.425 543.485 390.219C542.993 391.149 542.426 392.215 542.206 393.252C541.971 394.363 540.654 396.644 541.262 397.71C542.116 399.208 543.159 400.627 544.1 402.073C546.386 405.588 550.321 408.799 553.788 411.311C556.811 413.501 561.517 415.961 565.52 415.507C568.333 415.187 572.635 415.631 575.523 414.421C579.792 412.631 584.435 412.205 588.541 409.534C593.028 406.615 595.56 405.249 596.718 399.78C597.154 397.718 597.348 395.131 597.199 392.995C597.067 391.095 597.733 389.903 597.622 387.988C597.47 385.346 597.406 383.232 596.544 380.674C595.61 377.901 593.028 375.533 592.51 372.653C592.136 370.581 590.321 368.582 589.169 366.81C588.165 365.268 586.99 362.288 585.443 361.284C583.914 360.291 580.782 358.993 579.131 360.067C577.966 360.825 574.776 362.9 577.7 360.998C584.153 356.8 585.368 345.871 587.159 339.174C588.674 333.509 585.138 326.976 582.139 322.366C580.64 320.061 580.051 317.338 578.555 315.038C576.835 312.393 574.923 310.955 572.812 308.885C571.169 307.275 569.035 307.605 566.95 306.489C565.3 305.607 561.804 304.933 559.984 305.074C558.974 305.152 557.842 304.688 556.847 304.848C555.499 305.063 554.205 305.583 552.797 305.642C551.334 305.703 548.678 306.852 547.315 307.467C545.758 308.17 544.102 308.933 542.666 309.866C539.888 311.673 537.111 313.48 534.333 315.287C532.072 316.758 530.479 319.465 528.664 321.472C525.587 324.873 524.004 330.365 524.289 334.797C524.885 344.046 529.014 351.607 533.996 359.267"
            stroke="black" stroke-width="11" stroke-linecap="round" />
        <path class="popcorn3"
            d="M193.448 320.971C190.067 311.673 186.798 297.991 175.737 297.695C174.135 297.652 170.604 298.56 169.134 299.17C167.441 299.873 165.277 300.393 164 301.744C163.369 302.412 162.615 302.652 162.002 303.395C161.439 304.078 160.743 305.251 160.033 305.763C158.499 306.87 157.734 308.614 156.283 309.661C154.979 310.601 152.815 313.868 152.107 315.475C151.266 317.383 150.433 318.798 150.24 320.964C149.845 325.396 149.927 328.615 151.689 332.86C153.422 337.036 154.875 341.685 157.374 345.339C160.105 349.332 163.69 353.141 167.22 356.345C168.703 357.692 170.293 358.383 172.026 359.16C172.705 359.465 174.029 359.413 174.894 359.678C176.3 360.108 178.236 360.309 179.66 360.168C182.183 359.917 184.024 360.761 186.489 359.738C189.194 358.615 192.073 358.118 194.804 356.857C198.113 355.329 206.571 348.278 203.311 349.909C201.98 350.575 199.671 352.878 198.942 354.254C198.556 354.982 197.442 355.704 196.894 356.432C196.252 357.286 195.514 358.264 195.127 359.286C194.711 360.381 193.029 362.451 193.461 363.679C194.068 365.405 194.877 367.09 195.578 368.78C197.284 372.889 200.68 377.037 203.725 380.364C206.38 383.265 210.666 386.803 214.727 387.188C217.582 387.458 221.794 388.832 224.868 388.2C229.411 387.266 234.105 387.815 238.629 385.938C243.573 383.886 246.316 383.017 248.359 377.628C249.13 375.596 249.743 372.971 249.943 370.738C250.12 368.752 250.977 367.665 251.178 365.669C251.457 362.913 251.737 360.721 251.294 357.901C250.814 354.845 248.629 351.854 248.58 348.776C248.546 346.56 247.063 344.114 246.203 342.043C245.455 340.239 244.769 336.918 243.391 335.553C242.03 334.205 239.122 332.2 237.303 332.954C236.019 333.487 232.504 334.946 235.726 333.609C242.836 330.658 245.824 319.654 248.697 313.134C251.127 307.618 248.668 300.133 246.431 294.743C245.313 292.048 245.17 289.117 244.054 286.428C242.77 283.335 241.1 281.445 239.334 278.863C237.96 276.854 235.78 276.739 233.885 275.145C232.385 273.883 229.013 272.444 227.177 272.202C226.159 272.067 225.107 271.348 224.09 271.3C222.712 271.235 221.339 271.495 219.927 271.256C218.46 271.007 215.627 271.625 214.169 271.969C212.505 272.361 210.731 272.795 209.149 273.451C206.088 274.721 203.028 275.991 199.967 277.262C197.476 278.295 195.448 280.746 193.314 282.427C189.697 285.277 187.226 290.6 186.79 295.228C185.878 304.886 188.761 313.557 192.478 322.513"
            stroke="black" stroke-width="11" stroke-linecap="round" />
        <path class="popcorn4"
            d="M128.71 162.475C136.455 156.318 148.393 148.877 145.165 138.295C144.697 136.761 142.715 133.7 141.671 132.5C140.467 131.118 139.287 129.23 137.601 128.448C136.768 128.061 136.301 127.423 135.401 127.077C134.575 126.76 133.242 126.472 132.531 125.961C130.995 124.857 129.098 124.685 127.645 123.642C126.339 122.703 122.554 121.687 120.806 121.526C118.73 121.334 117.123 120.993 115.008 121.497C110.68 122.528 107.653 123.628 104.186 126.645C100.776 129.614 96.8283 132.467 94.1558 135.997C91.2354 139.853 88.7607 144.461 86.8422 148.825C86.0358 150.659 85.885 152.386 85.6977 154.276C85.6243 155.017 86.0929 156.256 86.1167 157.16C86.1553 158.63 86.5782 160.53 87.1638 161.835C88.2023 164.149 87.9862 166.163 89.7377 168.175C91.6612 170.385 93.046 172.957 95.1089 175.147C97.6078 177.8 106.978 183.583 104.396 181.01C103.343 179.959 100.426 178.5 98.8903 178.245C98.077 178.11 97.0384 177.282 96.1745 176.994C95.1613 176.656 93.9999 176.266 92.9076 176.223C91.7377 176.177 89.2409 175.238 88.2132 176.037C86.769 177.16 85.4278 178.462 84.0473 179.663C80.6913 182.585 77.8359 187.122 75.6466 191.065C73.7378 194.503 71.742 199.691 72.6658 203.664C73.3151 206.456 73.3488 210.887 74.9233 213.601C77.2507 217.613 78.2189 222.239 81.4348 225.933C84.9492 229.971 86.6431 232.297 92.4023 232.525C94.5737 232.611 97.2579 232.36 99.4387 231.84C101.378 231.378 102.681 231.846 104.638 231.404C107.339 230.794 109.507 230.364 112.041 229.049C114.787 227.625 116.93 224.603 119.834 223.581C121.924 222.845 123.773 220.663 125.465 219.19C126.938 217.908 129.869 216.204 130.727 214.464C131.574 212.746 132.553 209.352 131.26 207.866C130.347 206.818 127.848 203.947 130.139 206.578C135.193 212.385 146.577 211.727 153.671 212.383C159.673 212.938 165.992 208.231 170.394 204.399C172.594 202.484 175.329 201.418 177.525 199.506C180.051 197.308 181.313 195.125 183.201 192.631C184.671 190.69 184.088 188.586 184.998 186.283C185.719 184.461 186.014 180.806 185.661 178.988C185.465 177.98 185.814 176.754 185.537 175.774C185.161 174.447 184.479 173.227 184.258 171.812C184.028 170.342 182.544 167.852 181.755 166.579C180.855 165.125 179.881 163.58 178.757 162.288C176.581 159.788 174.405 157.289 172.229 154.789C170.459 152.755 167.492 151.61 165.22 150.119C161.37 147.593 155.538 146.939 151.011 147.993C141.562 150.193 134.254 155.678 126.94 162.044"
            stroke="black" stroke-width="11" stroke-linecap="round" />
        <path class="popcorn5 hmtl"
            d="M389.505 325.323C395.966 318.599 406.254 310.206 401.446 300.356C400.749 298.929 398.35 296.188 397.152 295.141C395.771 293.935 394.332 292.241 392.584 291.663C391.72 291.377 391.168 290.811 390.247 290.571C389.401 290.351 388.072 290.212 387.306 289.793C385.65 288.89 383.798 288.921 382.232 288.066C380.824 287.298 377.019 286.712 375.311 286.737C373.283 286.767 371.682 286.605 369.728 287.308C365.73 288.748 362.994 290.118 360.145 293.38C357.341 296.589 354.002 299.743 351.999 303.415C349.809 307.427 348.17 312.117 347.026 316.514C346.545 318.362 346.678 320.039 346.802 321.877C346.85 322.598 347.501 323.742 347.669 324.61C347.943 326.02 348.655 327.805 349.429 329C350.8 331.119 350.916 333.079 352.925 334.834C355.131 336.762 356.878 339.094 359.215 340.988C362.046 343.282 371.992 347.88 369.094 345.67C367.911 344.768 364.87 343.665 363.351 343.578C362.547 343.532 361.415 342.843 360.537 342.655C359.508 342.435 358.328 342.18 357.27 342.251C356.137 342.327 353.584 341.682 352.724 342.557C351.515 343.787 350.434 345.178 349.299 346.477C346.54 349.634 344.523 354.295 343.051 358.316C341.767 361.821 340.682 367.019 342.21 370.747C343.284 373.367 344.029 377.626 345.981 380.076C348.865 383.696 350.541 388.047 354.23 391.269C358.261 394.791 360.265 396.855 365.842 396.479C367.945 396.337 370.488 395.818 372.502 395.093C374.294 394.448 375.623 394.764 377.434 394.136C379.935 393.27 381.952 392.632 384.178 391.106C386.591 389.451 388.167 386.322 390.796 385.039C392.689 384.115 394.117 381.824 395.508 380.232C396.718 378.846 399.265 376.903 399.81 375.141C400.348 373.4 400.744 370.033 399.261 368.737C398.214 367.822 395.348 365.318 397.975 367.613C403.772 372.678 414.619 370.87 421.55 370.768C427.414 370.682 432.736 365.5 436.355 361.358C438.164 359.287 440.624 357.979 442.429 355.913C444.505 353.537 445.368 351.305 446.784 348.711C447.885 346.691 446.987 344.727 447.492 342.417C447.892 340.589 447.587 337.042 446.956 335.329C446.605 334.379 446.743 333.164 446.319 332.249C445.744 331.011 444.891 329.908 444.451 328.569C443.993 327.178 442.164 324.935 441.201 323.792C440.101 322.486 438.915 321.1 437.626 319.973C435.13 317.793 432.635 315.612 430.139 313.432C428.109 311.657 425.069 310.862 422.644 309.662C418.533 307.629 412.817 307.602 408.631 309.084C399.894 312.177 393.745 318.21 387.732 325.092"
            stroke="black" stroke-width="11" stroke-linecap="round" />
        <path class="popcorn6 html"
            d="M384.015 352.436L392.512 363.487L391.069 364.597L387.217 359.586L381.588 363.914L385.44 368.924L383.997 370.034L375.501 358.982L376.943 357.873L380.674 362.725L386.302 358.397L382.572 353.545L384.015 352.436ZM393.281 345.312L394.183 346.486L391.17 348.802L398.765 358.68L397.322 359.789L389.727 349.911L386.699 352.239L385.797 351.066L393.281 345.312ZM406.328 335.408L414.763 346.38L413.32 347.489L407.03 339.308L409.674 350.293L408.659 351.073L398.694 345.692L404.996 353.889L403.553 354.998L395.118 344.026L396.672 342.832L407.703 348.78L404.79 336.59L406.328 335.408ZM417.751 342.216L421.62 339.241L422.522 340.415L417.21 344.498L408.714 333.447L410.156 332.338L417.751 342.216Z"
            fill="black" />
        <path class="popcorn7"
            d="M703.798 99.6891C709.85 92.5935 719.623 83.6059 714.24 74.0584C713.46 72.6751 710.903 70.0814 709.644 69.1072C708.195 67.9851 706.658 66.379 704.879 65.9051C703.999 65.6707 703.415 65.1385 702.481 64.9538C701.624 64.7843 700.289 64.7236 699.499 64.3516C697.793 63.548 695.946 63.6882 694.332 62.9281C692.881 62.2448 689.048 61.8847 687.345 62.011C685.322 62.1608 683.714 62.094 681.806 62.9119C677.9 64.5856 675.25 66.1157 672.598 69.5405C669.989 72.9095 666.843 76.2554 665.061 80.0397C663.113 84.175 661.754 88.9536 660.873 93.4108C660.502 95.2843 660.734 96.9502 660.966 98.7776C661.058 99.494 661.774 100.598 661.994 101.454C662.351 102.846 663.168 104.585 664.01 105.732C665.505 107.766 665.737 109.716 667.846 111.349C670.163 113.143 672.044 115.367 674.489 117.12C677.451 119.242 687.652 123.243 684.628 121.209C683.394 120.378 680.293 119.457 678.772 119.46C677.966 119.462 676.795 118.842 675.908 118.706C674.867 118.547 673.674 118.362 672.623 118.496C671.496 118.639 668.909 118.146 668.102 119.071C666.968 120.37 665.972 121.822 664.916 123.186C662.348 126.502 660.611 131.274 659.379 135.374C658.306 138.95 657.53 144.202 659.276 147.833C660.504 150.385 661.5 154.593 663.593 156.922C666.687 160.365 668.617 164.609 672.49 167.608C676.723 170.885 678.845 172.826 684.391 172.121C686.482 171.855 688.989 171.187 690.957 170.343C692.707 169.593 694.053 169.83 695.824 169.096C698.269 168.083 700.244 167.327 702.377 165.671C704.688 163.877 706.075 160.66 708.623 159.223C710.458 158.188 711.748 155.817 713.042 154.146C714.169 152.691 716.596 150.6 717.035 148.809C717.47 147.039 717.665 143.654 716.108 142.449C715.009 141.598 712 139.267 714.758 141.403C720.845 146.116 731.566 143.668 738.479 143.156C744.327 142.723 749.333 137.235 752.7 132.886C754.384 130.712 756.761 129.261 758.441 127.091C760.373 124.596 761.102 122.317 762.362 119.643C763.342 117.562 762.328 115.655 762.696 113.319C762.987 111.47 762.473 107.948 761.741 106.275C761.335 105.348 761.4 104.126 760.923 103.239C760.276 102.036 759.359 100.986 758.84 99.6756C758.301 98.3141 756.343 96.1833 755.313 95.0988C754.138 93.8602 752.872 92.5467 751.518 91.4985C748.898 89.4696 746.278 87.4408 743.657 85.4119C741.525 83.761 738.444 83.1468 735.952 82.093C731.728 80.3066 726.02 80.6182 721.929 82.3458C713.391 85.9509 707.61 92.3374 702.015 99.5626"
            stroke="black" stroke-width="11" stroke-linecap="round" />
        <path class="popcorn8"
            d="M820.389 470.757C812.787 465.355 802.973 456.412 793.938 462.616C792.628 463.515 790.27 466.29 789.411 467.63C788.421 469.172 786.956 470.845 786.641 472.659C786.485 473.556 786.007 474.184 785.905 475.131C785.812 476 785.869 477.335 785.568 478.155C784.918 479.925 785.22 481.753 784.606 483.427C784.053 484.933 784.032 488.782 784.308 490.468C784.636 492.47 784.711 494.077 785.694 495.906C787.705 499.649 789.463 502.154 793.108 504.494C796.694 506.795 800.304 509.634 804.231 511.076C808.522 512.652 813.402 513.584 817.919 514.069C819.818 514.273 821.457 513.895 823.257 513.503C823.962 513.349 824.999 512.537 825.832 512.243C827.187 511.765 828.847 510.798 829.916 509.857C831.81 508.189 833.732 507.786 835.173 505.541C836.755 503.076 838.805 501.006 840.335 498.416C842.189 495.278 845.275 484.765 843.515 487.956C842.796 489.258 842.152 492.429 842.29 493.943C842.362 494.745 841.847 495.967 841.79 496.862C841.724 497.913 841.645 499.118 841.871 500.154C842.113 501.263 841.85 503.883 842.842 504.606C844.236 505.621 845.771 506.485 847.222 507.417C850.751 509.682 855.658 510.992 859.851 511.857C863.507 512.611 868.808 512.921 872.27 510.862C874.704 509.414 878.808 508.051 880.944 505.761C884.101 502.375 888.158 500.078 890.804 495.956C893.695 491.451 895.441 489.165 894.249 483.703C893.8 481.644 892.914 479.206 891.9 477.32C890.999 475.643 891.116 474.282 890.229 472.582C889.004 470.235 888.077 468.335 886.239 466.357C884.248 464.213 880.922 463.114 879.266 460.703C878.073 458.966 875.598 457.89 873.819 456.749C872.27 455.755 869.974 453.522 868.15 453.242C866.349 452.965 862.96 453.068 861.897 454.726C861.146 455.895 859.09 459.099 860.975 456.163C865.132 449.684 861.749 439.221 860.629 432.38C859.682 426.592 853.774 422.09 849.146 419.119C846.832 417.634 845.176 415.394 842.867 413.912C840.212 412.207 837.878 411.682 835.103 410.663C832.944 409.87 831.133 411.047 828.774 410.887C826.907 410.761 823.443 411.583 821.842 412.459C820.953 412.946 819.731 412.988 818.889 413.542C817.748 414.293 816.783 415.298 815.523 415.931C814.215 416.588 812.265 418.726 811.275 419.847C810.145 421.127 808.948 422.504 808.024 423.945C806.234 426.734 804.444 429.523 802.654 432.312C801.197 434.581 800.857 437.704 800.027 440.28C798.62 444.645 799.433 450.303 801.515 454.226C805.859 462.413 812.73 467.609 820.42 472.544"
            stroke="black" stroke-width="11" stroke-linecap="round" />
        <path class="popcorn9 css"
            d="M561.016 206.617C555.125 199.387 548.043 188.156 537.682 191.734C536.181 192.252 533.17 194.3 531.985 195.363C530.621 196.586 528.764 197.809 527.978 199.474C527.589 200.297 526.96 200.776 526.61 201.662C526.289 202.474 525.99 203.777 525.481 204.487C524.384 206.02 524.189 207.863 523.151 209.313C522.218 210.617 521.174 214.323 520.992 216.022C520.775 218.038 520.42 219.607 520.881 221.632C521.825 225.776 522.853 228.658 525.745 231.882C528.589 235.055 531.314 238.752 534.716 241.186C538.433 243.846 542.89 246.043 547.115 247.712C548.892 248.413 550.572 248.485 552.411 248.585C553.133 248.625 554.347 248.118 555.229 248.056C556.662 247.956 558.52 247.465 559.8 246.843C562.07 245.739 564.03 245.861 566.016 244.08C568.197 242.124 570.724 240.674 572.887 238.584C575.509 236.053 581.279 226.738 578.734 229.346C577.695 230.411 576.231 233.296 575.961 234.793C575.818 235.585 574.996 236.626 574.703 237.474C574.359 238.469 573.963 239.609 573.905 240.668C573.843 241.802 572.893 244.258 573.657 245.218C574.731 246.567 575.981 247.809 577.132 249.093C579.932 252.215 584.313 254.783 588.125 256.732C591.449 258.431 596.476 260.14 600.362 259.076C603.093 258.328 607.412 258.105 610.08 256.465C614.023 254.041 618.545 252.906 622.192 249.636C626.177 246.062 628.469 244.323 628.773 238.741C628.887 236.637 628.681 234.05 628.206 231.963C627.783 230.106 628.258 228.825 627.855 226.951C627.298 224.363 626.91 222.284 625.665 219.889C624.316 217.293 621.401 215.349 620.446 212.584C619.758 210.593 617.658 208.897 616.247 207.323C615.018 205.953 613.399 203.19 611.716 202.435C610.053 201.689 606.759 200.888 605.292 202.202C604.258 203.13 601.424 205.671 604.021 203.342C609.752 198.203 609.274 187.217 610.014 180.324C610.64 174.493 606.143 168.582 602.471 164.487C600.635 162.44 599.635 159.84 597.803 157.797C595.697 155.448 593.587 154.32 591.183 152.6C589.312 151.261 587.254 151.915 585.022 151.133C583.256 150.515 579.698 150.386 577.921 150.805C576.936 151.038 575.746 150.753 574.787 151.064C573.488 151.484 572.29 152.196 570.907 152.471C569.471 152.756 567.023 154.299 565.771 155.117C564.341 156.05 562.821 157.059 561.546 158.202C559.079 160.414 556.612 162.627 554.144 164.839C552.137 166.639 550.978 169.56 549.493 171.821C546.976 175.655 546.255 181.326 547.218 185.661C549.228 194.708 554.47 201.545 560.57 208.348"
            stroke="black" stroke-width="11" stroke-linecap="round" />
        <path class="popcorn10 css"
            d="M570.23 179.232C571.343 178.449 572.517 177.999 573.753 177.879C575.001 177.752 576.178 177.943 577.285 178.452C578.401 178.972 579.33 179.761 580.074 180.819C580.948 182.062 581.411 183.359 581.463 184.707C581.515 186.056 581.14 187.331 580.337 188.531L579.083 186.747C579.548 185.948 579.755 185.118 579.704 184.257C579.661 183.407 579.348 182.568 578.765 181.739C578.205 180.943 577.518 180.359 576.702 179.987C575.886 179.615 575.008 179.491 574.068 179.614C573.139 179.729 572.216 180.109 571.3 180.753C570.395 181.39 569.725 182.129 569.291 182.973C568.868 183.808 568.693 184.672 568.767 185.566C568.841 186.459 569.158 187.304 569.717 188.1C570.3 188.929 570.979 189.511 571.753 189.847C572.545 190.187 573.396 190.273 574.306 190.106L575.56 191.889C574.17 192.231 572.849 192.149 571.597 191.643C570.357 191.13 569.299 190.252 568.425 189.009C567.681 187.951 567.248 186.813 567.125 185.595C567.021 184.381 567.234 183.212 567.765 182.089C568.296 180.966 569.118 180.014 570.23 179.232ZM576.224 200.137C575.695 199.384 575.35 198.616 575.19 197.832C575.049 197.052 575.094 196.327 575.325 195.659C575.567 194.984 575.996 194.422 576.61 193.974L577.725 195.561C577.229 195.991 576.93 196.528 576.827 197.17C576.744 197.816 576.962 198.51 577.484 199.251C577.982 199.96 578.548 200.394 579.181 200.552C579.832 200.714 580.436 200.599 580.992 200.208C581.428 199.901 581.699 199.532 581.803 199.1C581.907 198.668 581.903 198.223 581.792 197.763C581.68 197.303 581.492 196.711 581.226 195.985C580.893 195.094 580.664 194.351 580.538 193.755C580.42 193.169 580.453 192.567 580.638 191.949C580.841 191.333 581.297 190.777 582.006 190.278C582.627 189.841 583.289 189.612 583.992 189.591C584.694 189.57 585.376 189.751 586.036 190.134C586.704 190.528 587.299 191.096 587.821 191.838C588.572 192.907 588.918 193.967 588.859 195.019C588.808 196.082 588.371 196.968 587.549 197.676L586.399 196.04C586.797 195.679 587.017 195.181 587.061 194.548C587.115 193.906 586.909 193.253 586.441 192.588C586.004 191.966 585.484 191.574 584.88 191.411C584.288 191.241 583.703 191.359 583.125 191.765C582.71 192.057 582.452 192.409 582.352 192.822C582.259 193.246 582.26 193.677 582.356 194.115C582.47 194.556 582.659 195.148 582.922 195.893C583.243 196.791 583.462 197.542 583.577 198.146C583.702 198.742 583.668 199.353 583.472 199.98C583.288 200.598 582.836 201.161 582.116 201.667C581.559 202.058 580.932 202.279 580.235 202.329C579.537 202.38 578.832 202.224 578.12 201.86C577.408 201.497 576.776 200.922 576.224 200.137ZM582.975 209.74C582.446 208.987 582.101 208.219 581.941 207.435C581.8 206.654 581.845 205.93 582.076 205.262C582.318 204.586 582.747 204.025 583.361 203.577L584.476 205.164C583.98 205.594 583.681 206.13 583.579 206.773C583.495 207.419 583.713 208.112 584.235 208.854C584.733 209.563 585.299 209.997 585.932 210.155C586.583 210.316 587.187 210.201 587.743 209.81C588.179 209.504 588.45 209.134 588.554 208.703C588.658 208.271 588.654 207.825 588.543 207.366C588.431 206.906 588.243 206.313 587.977 205.587C587.644 204.697 587.415 203.953 587.289 203.357C587.171 202.772 587.204 202.17 587.389 201.552C587.592 200.936 588.048 200.379 588.757 199.881C589.379 199.444 590.041 199.215 590.743 199.193C591.445 199.172 592.127 199.353 592.787 199.737C593.455 200.131 594.05 200.699 594.572 201.44C595.323 202.509 595.669 203.57 595.61 204.622C595.559 205.685 595.122 206.57 594.3 207.279L593.15 205.643C593.548 205.281 593.768 204.784 593.812 204.15C593.866 203.509 593.66 202.856 593.192 202.19C592.755 201.568 592.235 201.176 591.631 201.014C591.039 200.843 590.454 200.961 589.876 201.368C589.461 201.659 589.204 202.012 589.103 202.425C589.01 202.849 589.011 203.28 589.107 203.717C589.222 204.158 589.41 204.751 589.673 205.496C589.995 206.394 590.213 207.145 590.328 207.749C590.453 208.345 590.419 208.956 590.223 209.582C590.039 210.201 589.587 210.763 588.867 211.27C588.311 211.661 587.683 211.881 586.986 211.932C586.288 211.983 585.583 211.826 584.871 211.463C584.159 211.099 583.527 210.525 582.975 209.74Z"
            fill="black" />
        <path class="popcorn11 codeC"
            d="M319.59 201.106C315.014 192.98 309.944 180.708 299.126 182.472C297.559 182.727 294.243 184.234 292.895 185.08C291.342 186.053 289.305 186.943 288.247 188.45C287.724 189.195 287.023 189.56 286.528 190.373C286.073 191.119 285.556 192.352 284.935 192.965C283.592 194.29 283.088 196.072 281.818 197.325C280.677 198.452 279.018 201.926 278.549 203.569C277.993 205.519 277.376 207.005 277.487 209.079C277.712 213.322 278.235 216.337 280.536 220.007C282.8 223.616 284.857 227.723 287.796 230.7C291.006 233.954 295.024 236.876 298.905 239.239C300.536 240.232 302.18 240.589 303.975 241C304.679 241.162 305.962 240.869 306.842 240.958C308.271 241.103 310.185 240.935 311.553 240.539C313.977 239.837 315.887 240.291 318.147 238.874C320.629 237.317 323.366 236.318 325.853 234.626C328.867 232.577 336.137 224.38 333.186 226.517C331.981 227.389 330.048 229.983 329.527 231.412C329.251 232.169 328.264 233.055 327.831 233.841C327.324 234.762 326.739 235.819 326.502 236.852C326.248 237.959 324.894 240.218 325.484 241.294C326.313 242.806 327.333 244.242 328.25 245.704C330.478 249.256 334.358 252.532 337.784 255.1C340.77 257.34 345.434 259.878 349.444 259.49C352.263 259.218 356.556 259.732 359.464 258.57C363.762 256.852 368.412 256.502 372.561 253.899C377.096 251.055 379.65 249.731 380.898 244.282C381.369 242.228 381.606 239.644 381.492 237.506C381.391 235.605 382.077 234.423 381.998 232.507C381.89 229.863 381.861 227.748 381.041 225.176C380.153 222.388 377.611 219.977 377.14 217.09C376.801 215.011 375.02 212.983 373.897 211.192C372.919 209.633 371.793 206.635 370.262 205.605C368.75 204.587 365.64 203.237 363.972 204.283C362.795 205.022 359.57 207.044 362.526 205.19C369.047 201.1 370.443 190.193 372.345 183.526C373.953 177.887 370.526 171.297 367.604 166.637C366.143 164.308 365.6 161.576 364.142 159.251C362.465 156.578 360.578 155.108 358.501 153.004C356.885 151.367 354.746 151.661 352.679 150.511C351.044 149.602 347.56 148.87 345.738 148.981C344.727 149.042 343.603 148.56 342.605 148.703C341.254 148.896 339.952 149.394 338.543 149.43C337.079 149.467 334.404 150.571 333.031 151.164C331.463 151.84 329.794 152.576 328.344 153.486C325.536 155.247 322.729 157.007 319.921 158.768C317.637 160.201 315.998 162.881 314.151 164.858C311.018 168.208 309.344 173.673 309.556 178.109C309.998 187.366 314.001 194.994 318.856 202.736"
            stroke="black" stroke-width="11" stroke-linecap="round" />
        <path class="popcorn12 codeC"
            d="M337.454 180.501C338.742 180.063 339.996 179.96 341.216 180.193C342.448 180.422 343.524 180.936 344.444 181.736C345.368 182.548 346.039 183.567 346.455 184.791C346.944 186.23 347.024 187.604 346.695 188.913C346.366 190.222 345.647 191.34 344.54 192.266L343.838 190.202C344.509 189.565 344.941 188.827 345.134 187.987C345.331 187.159 345.266 186.266 344.94 185.306C344.627 184.385 344.131 183.631 343.453 183.045C342.775 182.459 341.967 182.092 341.03 181.946C340.106 181.796 339.113 181.901 338.053 182.262C337.005 182.618 336.155 183.14 335.501 183.827C334.86 184.509 334.45 185.29 334.269 186.168C334.089 187.046 334.156 187.946 334.469 188.867C334.796 189.827 335.283 190.576 335.931 191.116C336.597 191.665 337.389 191.987 338.309 192.082L339.011 194.146C337.581 194.083 336.337 193.633 335.277 192.796C334.231 191.955 333.463 190.815 332.973 189.376C332.557 188.152 332.461 186.938 332.686 185.735C332.927 184.54 333.46 183.479 334.285 182.55C335.11 181.622 336.167 180.939 337.454 180.501ZM345.58 205.759L344.208 201.726L340.118 203.117L339.571 201.507L343.661 200.116L342.295 196.102L343.753 195.606L345.119 199.62L349.228 198.223L349.775 199.832L345.666 201.23L347.038 205.263L345.58 205.759ZM349.976 218.684L348.604 214.651L344.514 216.042L343.967 214.432L348.057 213.041L346.691 209.027L348.149 208.531L349.515 212.546L353.623 211.148L354.171 212.758L350.062 214.155L351.434 218.188L349.976 218.684Z"
            fill="black" />
        <path class="popcorn13 js"
            d="M806.228 227.357C801.782 218.518 796.934 205.313 785.915 206.313C784.319 206.458 780.918 207.773 779.53 208.551C777.931 209.446 775.842 210.217 774.732 211.707C774.183 212.444 773.463 212.771 772.941 213.582C772.462 214.325 771.908 215.572 771.262 216.163C769.868 217.442 769.313 219.264 767.995 220.473C766.81 221.56 765.043 225.058 764.527 226.736C763.916 228.729 763.254 230.232 763.316 232.406C763.442 236.853 763.9 240.041 766.147 244.051C768.356 247.995 770.344 252.442 773.254 255.779C776.433 259.425 780.439 262.788 784.319 265.557C785.95 266.721 787.609 267.221 789.421 267.79C790.132 268.013 791.441 267.807 792.331 267.969C793.778 268.231 795.724 268.205 797.121 267.898C799.598 267.353 801.525 267.976 803.853 266.672C806.408 265.24 809.209 264.41 811.774 262.837C814.881 260.932 822.456 252.94 819.409 254.942C818.166 255.759 816.142 258.317 815.579 259.768C815.28 260.536 814.258 261.384 813.8 262.171C813.262 263.094 812.644 264.151 812.378 265.212C812.094 266.348 810.666 268.6 811.238 269.769C812.043 271.412 813.043 272.991 813.938 274.588C816.112 278.469 819.971 282.191 823.384 285.139C826.36 287.709 831.031 290.722 835.109 290.629C837.976 290.563 842.32 291.435 845.299 290.447C849.701 288.988 854.427 288.984 858.7 286.59C863.37 283.974 865.993 282.79 867.392 277.199C867.919 275.091 868.221 272.412 868.158 270.171C868.101 268.178 868.825 266.998 868.792 264.992C868.746 262.223 868.767 260.013 867.998 257.264C867.164 254.285 864.643 251.57 864.235 248.52C863.942 246.323 862.183 244.067 861.087 242.111C860.132 240.407 859.062 237.189 857.534 235.995C856.025 234.815 852.902 233.164 851.184 234.126C849.971 234.805 846.651 236.666 849.694 234.961C856.41 231.198 858.09 219.92 860.18 213.108C861.948 207.346 858.63 200.2 855.778 195.109C854.352 192.563 853.867 189.669 852.444 187.129C850.807 184.208 848.927 182.526 846.871 180.169C845.272 178.334 843.093 178.475 841.024 177.113C839.387 176.036 835.87 175.002 834.018 174.976C832.991 174.961 831.862 174.37 830.847 174.442C829.471 174.538 828.137 174.957 826.707 174.885C825.221 174.81 822.48 175.754 821.073 176.266C819.466 176.851 817.754 177.489 816.261 178.326C813.369 179.945 810.478 181.565 807.587 183.185C805.235 184.503 803.508 187.174 801.585 189.093C798.326 192.347 796.495 197.922 796.603 202.57C796.828 212.268 800.706 220.543 805.445 229.002"
            stroke="black" stroke-width="11" stroke-linecap="round" />
        <path class="popcorn14 js"
            d="M833.67 226.231L823.85 229.339C822.757 229.685 821.773 229.626 820.899 229.161C820.037 228.693 819.431 227.906 819.081 226.8C818.727 225.681 818.774 224.68 819.222 223.797C819.682 222.91 820.491 222.284 821.648 221.918L822.197 223.653C821.553 223.871 821.077 224.203 820.771 224.649C820.469 225.109 820.421 225.662 820.626 226.311C820.831 226.959 821.175 227.382 821.657 227.579C822.151 227.772 822.697 227.774 823.295 227.585L833.114 224.476L833.67 226.231ZM822.662 238.112C822.384 237.235 822.287 236.398 822.371 235.603C822.472 234.816 822.733 234.139 823.155 233.571C823.589 233 824.167 232.594 824.888 232.352L825.473 234.201C824.87 234.462 824.423 234.883 824.132 235.465C823.857 236.055 823.857 236.783 824.13 237.647C824.392 238.473 824.8 239.057 825.356 239.399C825.928 239.749 826.539 239.822 827.187 239.616C827.696 239.455 828.064 239.185 828.294 238.805C828.523 238.424 828.654 237.998 828.686 237.527C828.719 237.055 828.718 236.433 828.683 235.661C828.634 234.711 828.64 233.933 828.7 233.327C828.763 232.733 828.976 232.169 829.339 231.635C829.718 231.109 830.32 230.716 831.147 230.454C831.871 230.225 832.572 230.206 833.248 230.398C833.924 230.589 834.519 230.967 835.033 231.532C835.551 232.109 835.947 232.83 836.221 233.694C836.615 234.94 836.626 236.055 836.252 237.041C835.883 238.039 835.2 238.751 834.202 239.179L833.599 237.272C834.087 237.048 834.447 236.64 834.68 236.049C834.925 235.454 834.925 234.769 834.679 233.993C834.45 233.269 834.072 232.738 833.546 232.401C833.033 232.06 832.439 231.996 831.765 232.21C831.282 232.362 830.93 232.621 830.71 232.984C830.493 233.36 830.365 233.772 830.324 234.218C830.3 234.673 830.302 235.295 830.327 236.084C830.364 237.038 830.345 237.82 830.273 238.43C830.213 239.036 829.996 239.609 829.621 240.147C829.258 240.681 828.658 241.081 827.819 241.347C827.17 241.552 826.506 241.573 825.825 241.411C825.145 241.249 824.52 240.887 823.95 240.326C823.381 239.765 822.952 239.027 822.662 238.112Z"
            fill="black" />
        <path class="popcorn15 java"
            d="M244.274 55.9907C252.012 50.7851 263.843 44.7586 261.227 34.1147C260.848 32.5725 259.083 29.3865 258.133 28.1096C257.039 26.639 255.991 24.6785 254.405 23.7434C253.621 23.281 253.202 22.6113 252.352 22.182C251.572 21.7881 250.302 21.3705 249.642 20.7996C248.215 19.5666 246.398 19.2046 245.048 18.0383C243.835 16.9899 240.24 15.6118 238.565 15.2749C236.577 14.875 235.047 14.3781 232.988 14.6523C228.776 15.2132 225.812 15.9739 222.337 18.5589C218.918 21.1018 214.987 23.4777 212.252 26.6428C209.264 30.1015 206.669 34.3383 204.621 38.3939C203.76 40.0986 203.535 41.7655 203.267 43.588C203.162 44.3025 203.556 45.5584 203.537 46.4422C203.506 47.8785 203.824 49.7735 204.328 51.1052C205.22 53.4663 204.918 55.4066 206.51 57.5472C208.259 59.8979 209.472 62.5464 211.356 64.8922C213.637 67.7337 222.385 74.3313 220.021 71.5584C219.055 70.4263 216.316 68.7051 214.851 68.2991C214.074 68.084 213.113 67.1711 212.295 66.8017C211.336 66.3685 210.237 65.8694 209.188 65.7152C208.064 65.5501 205.705 64.3796 204.679 65.0528C203.238 65.9988 201.887 67.1297 200.503 68.1591C197.138 70.6615 194.181 74.7899 191.892 78.4081C189.896 81.5626 187.735 86.4131 188.44 90.3796C188.935 93.1677 188.762 97.4888 190.152 100.295C192.205 104.444 192.923 109.051 195.846 112.981C199.04 117.276 200.562 119.717 206.093 120.529C208.179 120.836 210.773 120.867 212.896 120.584C214.783 120.333 216.015 120.922 217.918 120.692C220.546 120.374 222.652 120.178 225.151 119.157C227.86 118.05 230.061 115.325 232.902 114.627C234.948 114.125 236.828 112.188 238.524 110.926C240.001 109.828 242.901 108.468 243.806 106.861C244.701 105.273 245.8 102.066 244.625 100.486C243.795 99.3703 241.524 96.3161 243.606 99.1155C248.2 105.292 259.184 105.819 265.98 107.186C271.729 108.342 278.027 104.404 282.44 101.121C284.647 99.4803 287.327 98.7223 289.528 97.0849C292.061 95.2016 293.376 93.2033 295.309 90.9666C296.813 89.2262 296.35 87.1165 297.332 84.9655C298.11 83.2633 298.563 79.7322 298.308 77.9247C298.166 76.9219 298.558 75.7629 298.337 74.7797C298.037 73.4479 297.437 72.1893 297.29 70.7878C297.137 69.3315 295.824 66.7523 295.124 65.4309C294.325 63.9216 293.46 62.316 292.438 60.9421C290.46 58.2831 288.482 55.624 286.505 52.9649C284.895 50.8012 282.093 49.3806 279.977 47.6952C276.389 44.838 270.808 43.6024 266.403 44.1654C257.21 45.3403 249.923 49.9357 242.591 55.3891"
            stroke="black" stroke-width="11" stroke-linecap="round" />
        <path class="popcorn16 java"
            d="M223.172 80.1188L228.411 88.9867C228.994 89.974 229.158 90.9458 228.902 91.9022C228.64 92.8471 228.009 93.6146 227.01 94.2046C226 94.8015 225.015 94.9812 224.054 94.7437C223.086 94.4947 222.293 93.848 221.676 92.8033L223.243 91.8775C223.6 92.4562 224.031 92.8444 224.535 93.0422C225.05 93.2332 225.601 93.1558 226.186 92.8099C226.772 92.464 227.106 92.0341 227.19 91.5201C227.267 90.9947 227.146 90.4622 226.827 89.9227L221.587 81.0548L223.172 80.1188ZM229.956 85.8902C229.386 84.9259 229.083 83.9669 229.046 83.0131C229.002 82.0478 229.2 81.1642 229.64 80.3622C230.092 79.5535 230.736 78.9016 231.574 78.4065C232.401 77.9182 233.223 77.6722 234.042 77.6686C234.861 77.665 235.579 77.8448 236.196 78.208L235.179 76.4861L236.763 75.5501L242.338 84.9862L240.754 85.9222L239.716 84.1658C239.732 84.9 239.538 85.6338 239.135 86.3674C238.737 87.0827 238.13 87.6812 237.315 88.1627C236.477 88.6578 235.598 88.8988 234.676 88.8857C233.755 88.8726 232.878 88.6083 232.047 88.0927C231.216 87.5772 230.519 86.843 229.956 85.8902ZM237.956 81.1869C237.536 80.4752 237.026 79.9401 236.427 79.5816C235.828 79.2231 235.2 79.0519 234.544 79.068C233.892 79.0659 233.273 79.2378 232.688 79.5837C232.103 79.9296 231.65 80.3827 231.331 80.9431C231.011 81.5034 230.864 82.1324 230.889 82.83C230.914 83.5277 231.137 84.2323 231.558 84.9441C231.985 85.6673 232.501 86.2138 233.107 86.5838C233.706 86.9423 234.331 87.1226 234.983 87.1248C235.628 87.1154 236.243 86.9378 236.829 86.5919C237.414 86.246 237.866 85.7929 238.186 85.2325C238.51 84.6539 238.659 84.0157 238.634 83.3181C238.603 82.609 238.377 81.8986 237.956 81.1869ZM247.644 79.8999L245.851 70.1807L247.521 69.1939L249.394 80.8173L247.569 81.8957L238.292 74.6469L239.979 73.6499L247.644 79.8999ZM251.245 73.3124C250.675 72.3481 250.372 71.3891 250.335 70.4353C250.291 69.47 250.489 68.5864 250.929 67.7845C251.38 66.9758 252.025 66.3238 252.863 65.8287C253.689 65.3404 254.512 65.0944 255.331 65.0908C256.149 65.0872 256.867 65.267 257.485 65.6302L256.467 63.9083L258.051 62.9723L263.626 72.4085L262.042 73.3444L261.005 71.5881C261.02 72.3222 260.827 73.0561 260.424 73.7897C260.026 74.505 259.419 75.1034 258.604 75.585C257.766 76.0801 256.886 76.3211 255.965 76.308C255.043 76.2949 254.167 76.0305 253.336 75.515C252.505 74.9994 251.808 74.2652 251.245 73.3124ZM259.245 68.6091C258.824 67.8974 258.314 67.3623 257.715 67.0038C257.116 66.6453 256.489 66.4741 255.832 66.4903C255.181 66.4881 254.562 66.66 253.977 67.0059C253.391 67.3518 252.939 67.8049 252.619 68.3653C252.3 68.9257 252.153 69.5547 252.178 70.2523C252.203 70.9499 252.426 71.6546 252.846 72.3663C253.273 73.0895 253.79 73.6361 254.396 74.0061C254.995 74.3646 255.62 74.5449 256.272 74.547C256.917 74.5377 257.532 74.36 258.117 74.0141C258.703 73.6682 259.155 73.2151 259.474 72.6547C259.798 72.0761 259.948 71.438 259.923 70.7404C259.891 70.0313 259.665 69.3209 259.245 68.6091Z"
            fill="black" />
        <path class="popcorn17 python"
            d="M738.274 356.991C746.012 351.785 757.843 345.759 755.227 335.115C754.848 333.573 753.083 330.387 752.133 329.11C751.039 327.639 749.991 325.679 748.405 324.743C747.621 324.281 747.202 323.611 746.352 323.182C745.572 322.788 744.302 322.37 743.642 321.8C742.215 320.567 740.398 320.205 739.048 319.038C737.835 317.99 734.24 316.612 732.565 316.275C730.577 315.875 729.047 315.378 726.988 315.652C722.776 316.213 719.812 316.974 716.337 319.559C712.918 322.102 708.987 324.478 706.252 327.643C703.264 331.102 700.669 335.338 698.621 339.394C697.76 341.099 697.535 342.766 697.267 344.588C697.162 345.303 697.556 346.558 697.537 347.442C697.506 348.879 697.824 350.773 698.328 352.105C699.22 354.466 698.918 356.407 700.51 358.547C702.259 360.898 703.472 363.546 705.356 365.892C707.637 368.734 716.385 375.331 714.021 372.558C713.055 371.426 710.316 369.705 708.851 369.299C708.074 369.084 707.113 368.171 706.295 367.802C705.336 367.368 704.237 366.869 703.188 366.715C702.064 366.55 699.705 365.38 698.679 366.053C697.238 366.999 695.887 368.13 694.503 369.159C691.138 371.662 688.181 375.79 685.892 379.408C683.896 382.563 681.735 387.413 682.44 391.38C682.935 394.168 682.762 398.489 684.152 401.295C686.205 405.444 686.923 410.051 689.846 413.981C693.04 418.276 694.562 420.717 700.093 421.529C702.179 421.836 704.773 421.867 706.896 421.584C708.783 421.333 710.015 421.922 711.918 421.692C714.546 421.374 716.652 421.178 719.151 420.157C721.86 419.05 724.061 416.325 726.902 415.627C728.948 415.125 730.828 413.188 732.524 411.926C734.001 410.828 736.901 409.468 737.806 407.861C738.701 406.273 739.8 403.066 738.625 401.486C737.795 400.37 735.524 397.316 737.606 400.115C742.2 406.292 753.184 406.819 759.98 408.186C765.729 409.342 772.027 405.404 776.44 402.121C778.647 400.48 781.327 399.722 783.528 398.085C786.061 396.202 787.376 394.203 789.309 391.967C790.813 390.226 790.35 388.117 791.332 385.965C792.11 384.263 792.563 380.732 792.308 378.925C792.166 377.922 792.558 376.763 792.337 375.78C792.037 374.448 791.437 373.189 791.29 371.788C791.137 370.331 789.824 367.752 789.124 366.431C788.325 364.922 787.46 363.316 786.438 361.942C784.46 359.283 782.482 356.624 780.505 353.965C778.895 351.801 776.093 350.381 773.977 348.695C770.389 345.838 764.808 344.602 760.403 345.165C751.21 346.34 743.923 350.936 736.591 356.389"
            stroke="black" stroke-width="11" stroke-linecap="round" />
        <path class="popcorn18 python"
            d="M716.314 389.431C716.794 390.487 716.829 391.533 716.42 392.568C716.018 393.585 715.076 394.429 713.595 395.102L711.155 396.209L713.56 401.509L711.903 402.261L706.141 389.568L710.239 387.708C711.672 387.058 712.915 386.91 713.97 387.266C715.037 387.617 715.818 388.338 716.314 389.431ZM712.975 393.736C713.898 393.317 714.487 392.808 714.742 392.209C714.997 391.61 714.957 390.94 714.62 390.2C713.91 388.633 712.656 388.258 710.859 389.074L708.418 390.181L710.535 394.844L712.975 393.736ZM726.515 383.593L727.168 400.999L725.456 401.776L725.241 396.076L716.736 388.032L718.575 387.197L725.378 393.861L724.803 384.37L726.515 383.593ZM730.823 383.285L733.493 389.167C733.713 389.653 733.973 389.952 734.273 390.065C734.568 390.165 734.97 390.1 735.48 389.868L736.7 389.315L737.337 390.717L735.844 391.395C734.921 391.814 734.132 391.915 733.478 391.7C732.824 391.484 732.276 390.891 731.835 389.919L729.165 384.037L727.872 384.624L727.252 383.258L728.546 382.671L727.405 380.158L729.062 379.406L730.203 381.919L732.807 380.737L733.427 382.103L730.823 383.285ZM739.686 377.395C740.439 377.053 741.193 376.909 741.949 376.961C742.699 377.001 743.39 377.266 744.022 377.755C744.667 378.238 745.198 378.942 745.617 379.864L748.287 385.747L746.648 386.491L744.085 380.845C743.633 379.85 743.04 379.204 742.305 378.908C741.565 378.599 740.764 378.641 739.902 379.032C739.028 379.429 738.454 380.019 738.18 380.802C737.918 381.58 738.024 382.491 738.498 383.535L741.002 389.053L739.345 389.806L733.228 376.329L734.885 375.577L737.117 380.494C737.213 379.835 737.484 379.237 737.927 378.698C738.383 378.155 738.97 377.72 739.686 377.395ZM755.421 382.706C754.486 383.131 753.54 383.304 752.582 383.226C751.637 383.143 750.769 382.812 749.979 382.233C749.196 381.637 748.57 380.823 748.102 379.791C747.639 378.771 747.45 377.773 747.534 376.798C747.625 375.805 747.959 374.928 748.537 374.168C749.109 373.396 749.868 372.795 750.815 372.365C751.762 371.936 752.715 371.76 753.672 371.837C754.625 371.903 755.496 372.225 756.286 372.804C757.087 373.377 757.723 374.179 758.191 375.211C758.659 376.243 758.842 377.259 758.739 378.257C758.642 379.238 758.302 380.118 757.718 380.895C757.134 381.673 756.368 382.277 755.421 382.706ZM754.76 381.249C755.355 380.979 755.85 380.586 756.245 380.07C756.641 379.554 756.869 378.945 756.931 378.243C757.006 377.536 756.861 376.781 756.497 375.98C756.134 375.179 755.667 374.571 755.098 374.155C754.529 373.74 753.929 373.515 753.298 373.479C752.661 373.431 752.045 373.542 751.45 373.812C750.843 374.088 750.348 374.481 749.965 374.992C749.588 375.485 749.375 376.079 749.325 376.776C749.275 377.472 749.432 378.221 749.795 379.022C750.165 379.836 750.622 380.455 751.167 380.882C751.724 381.302 752.314 381.539 752.939 381.593C753.558 381.634 754.165 381.519 754.76 381.249ZM762.893 366.861C764.107 366.31 765.259 366.234 766.348 366.633C767.431 367.02 768.287 367.905 768.915 369.29L771.585 375.172L769.946 375.916L767.384 370.27C766.932 369.275 766.338 368.629 765.604 368.333C764.863 368.024 764.062 368.066 763.2 368.457C762.326 368.854 761.752 369.444 761.478 370.227C761.216 371.005 761.322 371.916 761.796 372.96L764.301 378.478L762.643 379.231L758.113 369.251L759.771 368.498L760.415 369.919C760.512 369.26 760.776 368.664 761.208 368.132C761.651 367.593 762.213 367.17 762.893 366.861Z"
            fill="black" />
        <path class="popcorn19 php"
            d="M98.9931 441.222C108.108 446.134 120.216 454.481 128.875 447.454C130.13 446.436 132.19 443.423 132.885 441.992C133.685 440.343 134.973 438.524 135 436.651C135.013 435.725 135.42 435.047 135.366 434.074C135.317 433.181 135.025 431.825 135.208 430.967C135.603 429.112 134.962 427.273 135.335 425.519C135.671 423.942 135.03 420.018 134.442 418.321C133.744 416.307 133.387 414.675 132.013 412.888C129.202 409.23 126.878 406.815 122.55 404.716C118.293 402.65 113.917 400.039 109.441 398.876C104.549 397.605 99.1347 397.036 94.1874 396.894C92.1079 396.834 90.4083 397.347 88.5383 397.888C87.8052 398.1 86.8295 399.007 85.9826 399.372C84.6064 399.965 82.9853 401.08 81.9971 402.122C80.245 403.969 78.2455 404.53 77.081 406.93C75.8023 409.566 73.9521 411.835 72.7511 414.594C71.2964 417.936 69.7862 428.89 71.1311 425.501C71.6801 424.117 71.8269 420.836 71.418 419.304C71.2014 418.492 71.5454 417.207 71.4523 416.29C71.3432 415.215 71.2206 413.981 70.7987 412.943C70.3469 411.831 70.1781 409.14 68.9857 408.482C67.3099 407.556 65.5084 406.795 63.785 405.959C59.5954 403.926 54.0869 402.974 49.4232 402.42C45.3571 401.936 39.5965 402.034 36.2235 404.403C33.8527 406.068 29.6691 407.777 27.7645 410.278C24.9493 413.974 20.977 416.631 18.839 421.038C16.5026 425.854 15.0164 428.319 17.2407 433.792C18.0793 435.856 19.4541 438.271 20.8704 440.114C22.1298 441.753 22.2384 443.148 23.4865 444.811C25.2095 447.107 26.5352 448.971 28.8543 450.844C31.3675 452.873 35.1386 453.733 37.337 456.061C38.9199 457.737 41.7709 458.64 43.8828 459.665C45.7215 460.557 48.5785 462.653 50.59 462.797C52.577 462.938 56.2076 462.568 57.0672 460.796C57.6738 459.546 59.3353 456.121 57.8125 459.26C54.4524 466.186 59.8987 476.584 62.2831 483.468C64.3004 489.291 71.4368 493.418 76.9322 496.084C79.6798 497.417 81.848 499.571 84.5894 500.901C87.7425 502.431 90.3459 502.784 93.509 503.606C95.9704 504.246 97.7166 502.904 100.284 502.883C102.316 502.867 105.904 501.759 107.477 500.74C108.349 500.176 109.658 500.037 110.469 499.407C111.568 498.553 112.434 497.453 113.681 496.71C114.977 495.939 116.708 493.607 117.58 492.388C118.576 490.995 119.627 489.499 120.374 487.958C121.821 484.977 123.267 481.995 124.714 479.014C125.891 476.588 125.719 473.378 126.169 470.69C126.931 466.132 125.08 460.43 122.163 456.594C116.075 448.591 107.782 443.832 98.6516 439.403"
            stroke="black" stroke-width="11" stroke-linecap="round" />
        <path class="popcorn20 php"
            d="M70.2334 440.45C69.3881 441.244 68.4097 441.614 67.2983 441.561C66.2058 441.508 65.1025 440.889 63.9886 439.704L62.1533 437.751L57.9121 441.736L56.6658 440.41L66.8242 430.864L69.9059 434.143C70.9833 435.29 71.5236 436.419 71.5267 437.533C71.539 438.656 71.1079 439.628 70.2334 440.45ZM65.0817 438.677C65.7756 439.415 66.4472 439.808 67.0966 439.857C67.7459 439.905 68.367 439.651 68.9597 439.094C70.2131 437.916 70.1641 436.608 68.8128 435.17L66.9775 433.217L63.2464 436.724L65.0817 438.677ZM82.1104 447.131L71.9519 456.677L70.7056 455.35L75.3112 451.022L70.4491 445.848L65.8435 450.176L64.5972 448.85L74.7556 439.304L76.002 440.63L71.5422 444.821L76.4043 449.995L80.8641 445.804L82.1104 447.131ZM87.6477 458.981C86.8024 459.775 85.824 460.146 84.7126 460.092C83.6201 460.04 82.5168 459.42 81.4029 458.235L79.5676 456.282L75.3264 460.268L74.0801 458.941L84.2385 449.395L87.3202 452.674C88.3976 453.821 88.9379 454.951 88.941 456.064C88.9533 457.187 88.5222 458.159 87.6477 458.981ZM82.496 457.208C83.1899 457.946 83.8615 458.34 84.5109 458.388C85.1602 458.437 85.7813 458.182 86.374 457.625C87.6274 456.448 87.5784 455.14 86.2271 453.702L84.3918 451.749L80.6607 455.255L82.496 457.208Z"
            fill="black" />
    </g>
    <defs>
        <clipPath id="clip0_4_107">
            <rect width="413" height="560" fill="white" />
        </clipPath>
    </defs>
</svg>