<svg width="413" height="560" fill="none" xmlns="http://www.w3.org/2000/svg"><g clip-path="url(#prefix__clip0_1_75)"><path d="M0 0h413v560H0z"/><path class="prefix__containerPop" d="M70.902 560L16 268.255l63.33-37.334 47.613-16.544L169.315 207h54.902l43.512 7.377 50.801 16.544 36.905 17.661L383 268.255 327.87 560H70.902z" stroke="#000" stroke-width="14" stroke-linejoin="bevel"/><path class="prefix__popTrait2" d="M174.75 253L138 257.603 152.219 527H194l-19.25-274z" stroke="#000" stroke-width="14" stroke-linejoin="bevel"/><path class="prefix__popTrait3" d="M268 259.763L235.121 253 217 527h32.879L268 259.763z" stroke="#000" stroke-width="14" stroke-linejoin="bevel"/><path class="prefix__popTrait4" d="M349 275.325L328.103 261 282 527h23.913L349 275.325z" stroke="#000" stroke-width="14" stroke-linejoin="bevel"/><path class="prefix__popTrait1" d="M88.61 253L50 276.91 97.552 527H127L88.61 253z" stroke="#000" stroke-width="14" stroke-linejoin="bevel"/><path class="prefix__pop" d="M43.317 198.461c3.989 2.21 9.287 5.964 13.076 2.803.549-.458 1.45-1.813 1.755-2.457.35-.741.913-1.559.925-2.402.006-.416.184-.721.16-1.159-.021-.401-.149-1.011-.069-1.398.173-.834-.108-1.661.056-2.45.147-.709-.134-2.475-.39-3.238-.306-.906-.463-1.64-1.064-2.444-1.23-1.645-2.247-2.731-4.14-3.675-1.863-.929-3.778-2.104-5.737-2.627-2.14-.572-4.51-.828-6.675-.891-.91-.027-1.653.203-2.472.447-.32.095-.747.503-1.118.667-.602.267-1.312.768-1.744 1.237-.767.831-1.642 1.083-2.151 2.163-.56 1.185-1.37 2.206-1.895 3.447-.636 1.503-1.297 6.43-.709 4.906.24-.623.305-2.098.126-2.788-.095-.365.056-.943.015-1.355-.048-.484-.101-1.039-.286-1.506-.198-.5-.272-1.71-.794-2.006-.733-.417-1.521-.759-2.275-1.135-1.834-.914-4.244-1.343-6.285-1.592-1.779-.217-4.3-.173-5.776.892-1.037.749-2.868 1.518-3.701 2.643-1.232 1.662-2.97 2.857-3.906 4.84-1.022 2.166-1.672 3.275-.7 5.736a13.2 13.2 0 001.59 2.844c.55.737.598 1.365 1.144 2.113.754 1.032 1.334 1.871 2.349 2.713 1.1.913 2.75 1.299 3.712 2.347.692.754 1.94 1.16 2.864 1.621.805.401 2.055 1.344 2.935 1.408.87.064 2.458-.102 2.834-.899l.326-.691c-1.47 3.115.913 7.792 1.957 10.888.882 2.62 4.005 4.476 6.41 5.675 1.202.6 2.15 1.569 3.35 2.167 1.38.688 2.52.847 3.903 1.217 1.078.287 1.842-.316 2.965-.326.89-.007 2.46-.506 3.148-.963.381-.255.954-.317 1.309-.6.48-.384.86-.879 1.406-1.213.566-.347 1.324-1.396 1.705-1.944.436-.627.896-1.3 1.223-1.993l1.9-4.023c.514-1.091.439-2.535.636-3.744.333-2.05-.477-4.615-1.753-6.34-2.664-3.6-6.293-5.741-10.288-7.733M204.002 29.677c-2.055-3.625-4.328-9.129-9.201-8.153-.706.142-2.201.88-2.809 1.287-.7.468-1.618.906-2.096 1.609-.236.347-.552.525-.776.903-.205.347-.439.916-.72 1.205-.605.624-.834 1.444-1.407 2.034-.515.531-1.265 2.14-1.477 2.894-.252.897-.531 1.583-.483 2.525.098 1.928.331 3.292 1.365 4.925 1.016 1.606 1.939 3.442 3.26 4.75 1.444 1.43 3.251 2.695 4.996 3.708.734.426 1.474.562 2.283.72.317.063.895-.091 1.291-.065a6.232 6.232 0 002.122-.266c1.092-.358 1.952-.182 2.971-.864 1.119-.748 2.353-1.247 3.474-2.057 1.359-.98 4.64-4.828 3.309-3.808-.543.416-1.416 1.628-1.652 2.287-.125.349-.569.767-.765 1.132-.23.428-.494.918-.601 1.392-.115.508-.727 1.558-.462 2.038.372.675.83 1.312 1.242 1.963 1 1.58 2.745 3.01 4.286 4.123 1.343.972 3.442 2.052 5.248 1.811 1.269-.17 3.203-.004 4.513-.58 1.938-.85 4.032-1.084 5.903-2.335 2.045-1.367 3.196-2.011 3.763-4.511a12.25 12.25 0 00.273-3.094c-.044-.863.265-1.412.232-2.283-.047-1.202-.059-2.164-.426-3.321-.397-1.255-1.54-2.311-1.75-3.618-.151-.94-.952-1.835-1.456-2.632-.439-.694-.944-2.04-1.632-2.485-.68-.439-2.08-1.003-2.832-.5l-.652.436c2.94-1.966 3.578-6.953 4.44-10.018.729-2.592-.809-5.536-2.122-7.61-.656-1.037-.898-2.272-1.553-3.306-.753-1.19-1.602-1.829-2.535-2.753-.727-.72-1.69-.55-2.62-1.041-.736-.388-2.304-.665-3.125-.585-.455.044-.961-.158-1.411-.077-.609.11-1.196.358-1.83.397-.659.04-1.865.585-2.484.877-.706.333-1.459.695-2.113 1.132l-3.798 2.54c-1.03.688-1.77 1.934-2.603 2.864-1.414 1.575-2.172 4.089-2.081 6.104.192 4.207 1.989 7.614 4.169 11.06M233.976 160.859c-2.061-3.62-4.368-9.101-9.088-8.228-.684.127-2.124.829-2.708 1.22-.672.449-1.557.864-2.009 1.55-.223.339-.527.508-.738.878-.194.339-.411.897-.678 1.177-.578.606-.786 1.412-1.332 1.985-.492.515-1.192 2.089-1.385 2.832-.23.881-.489 1.554-.425 2.486.129 1.907.38 3.259 1.413 4.892 1.017 1.606 1.947 3.438 3.254 4.755 1.428 1.439 3.207 2.724 4.922 3.757.721.435 1.443.583 2.231.755.31.067.869-.074 1.254-.041a5.875 5.875 0 002.058-.223c1.056-.334 1.895-.144 2.874-.798 1.074-.719 2.264-1.189 3.34-1.968 1.304-.944 4.426-4.685 3.15-3.702-.521.402-1.348 1.583-1.566 2.229-.115.343-.54.748-.724 1.105-.215.418-.464.898-.56 1.364-.103.5-.679 1.526-.413 2.006.374.673.831 1.312 1.242 1.962 1.001 1.581 2.722 3.025 4.24 4.155 1.322.985 3.381 2.092 5.133 1.888 1.231-.144 3.114.055 4.377-.489 1.868-.805 3.9-.997 5.697-2.198 1.963-1.313 3.071-1.927 3.578-4.387.191-.928.276-2.092.21-3.052-.058-.855.234-1.391.186-2.252-.067-1.189-.095-2.139-.472-3.29-.409-1.247-1.539-2.313-1.766-3.608-.163-.932-.957-1.831-1.462-2.628-.439-.694-.953-2.034-1.63-2.486-.669-.446-2.039-1.03-2.762-.547-.51.341-1.906 1.274-.626.418 2.824-1.888 3.355-6.804 4.139-9.816.663-2.548-.884-5.486-2.197-7.56-.656-1.037-.913-2.262-1.568-3.296-.753-1.19-1.589-1.837-2.513-2.768-.719-.724-1.653-.576-2.565-1.077-.722-.397-2.252-.7-3.048-.637-.442.035-.938-.173-1.373-.102-.59.097-1.156.331-1.772.358-.64.027-1.803.544-2.399.82-.681.316-1.406.66-2.034 1.08l-3.647 2.438c-.989.661-1.686 1.879-2.481 2.782-1.346 1.53-2.039 4-1.914 5.994.261 4.16 2.068 7.56 4.248 11.006M84.65 144.373c-1.48-4.183-2.91-10.337-7.75-10.47-.701-.019-2.247.389-2.89.664-.74.316-1.688.55-2.246 1.157-.276.301-.606.408-.875.743-.246.307-.55.835-.861 1.065-.672.498-1.006 1.282-1.641 1.753-.57.423-1.518 1.893-1.828 2.616-.367.858-.732 1.494-.816 2.468-.173 1.994-.137 3.442.633 5.351.759 1.879 1.395 3.97 2.489 5.613 1.195 1.797 2.763 3.51 4.308 4.951.649.606 1.344.916 2.103 1.266.297.137.876.114 1.255.233.615.193 1.462.284 2.085.22 1.105-.112 1.91.267 2.988-.193 1.184-.505 2.444-.729 3.64-1.296 1.447-.687 5.148-3.859 3.722-3.125-.583.3-1.593 1.335-1.912 1.954-.17.328-.657.653-.896.98-.281.384-.604.824-.774 1.284-.181.492-.918 1.423-.729 1.975.266.777.62 1.535.927 2.295.746 1.848 2.232 3.714 3.565 5.21 1.161 1.305 3.037 2.897 4.814 3.07 1.25.121 3.092.739 4.437.455 1.988-.42 4.042-.173 6.022-1.018 2.163-.922 3.364-1.313 4.258-3.737a12.8 12.8 0 00.693-3.099c.077-.893.452-1.382.54-2.28.122-1.24.245-2.226.051-3.494-.21-1.375-1.166-2.72-1.187-4.105-.016-.996-.664-2.097-1.041-3.028-.327-.812-.627-2.305-1.23-2.919-.596-.607-1.868-1.509-2.664-1.169-.562.239-2.1.896-.69.294 3.111-1.327 4.418-6.277 5.676-9.21 1.063-2.481-.013-5.847-.992-8.272-.489-1.212-.552-2.531-1.04-3.74-.562-1.391-1.293-2.241-2.065-3.403-.602-.903-1.556-.955-2.385-1.672-.656-.567-2.132-1.215-2.935-1.324-.446-.06-.906-.384-1.351-.405-.603-.03-1.204.087-1.822-.02-.642-.112-1.881.166-2.519.32-.728.177-1.505.372-2.197.667l-4.018 1.714c-1.09.465-1.977 1.567-2.91 2.324-1.584 1.281-2.665 3.676-2.856 5.757-.399 4.345.863 8.245 2.49 12.273M352.791 102.265c-1.946-3.976-4.067-9.915-8.889-9.466-.698.066-2.186.657-2.794 1.007-.7.403-1.614.75-2.099 1.42-.24.331-.555.478-.784.843-.209.334-.452.895-.734 1.161-.61.575-.853 1.394-1.43 1.938-.519.49-1.292 2.063-1.518 2.818-.267.896-.557 1.572-.53 2.55.056 2 .256 3.434 1.239 5.238.967 1.774 1.837 3.774 3.11 5.275 1.391 1.64 3.144 3.153 4.842 4.398.714.524 1.44.749 2.233 1.005.31.1.883.007 1.273.08a5.763 5.763 0 002.096-.032c1.084-.245 1.927.035 2.945-.551 1.119-.644 2.344-1.018 3.467-1.725 1.359-.857 4.674-4.452 3.341-3.551-.544.367-1.43 1.518-1.676 2.17-.131.346-.578.727-.779 1.081-.235.415-.506.891-.622 1.368-.124.511-.749 1.524-.499 2.05.352.739.79 1.449 1.182 2.167.951 1.746 2.64 3.42 4.133 4.746 1.302 1.156 3.346 2.512 5.131 2.47 1.254-.03 3.155.362 4.458-.082 1.927-.657 3.995-.658 5.865-1.735 2.043-1.177 3.191-1.709 3.803-4.224.231-.948.363-2.153.335-3.161-.025-.897.292-1.427.278-2.33-.02-1.245-.011-2.239-.348-3.476-.365-1.34-1.468-2.561-1.646-3.933-.129-.988-.898-2.003-1.378-2.883-.418-.766-.886-2.214-1.555-2.751-.66-.53-2.027-1.273-2.778-.84l-.652.375c2.939-1.692 3.674-6.765 4.588-9.829.774-2.592-.678-5.806-1.926-8.096-.624-1.145-.836-2.447-1.459-3.59-.716-1.314-1.539-2.07-2.438-3.13-.7-.826-1.654-.762-2.559-1.375-.716-.484-2.255-.95-3.066-.961-.449-.006-.943-.272-1.387-.24-.603.043-1.186.232-1.812.199-.65-.034-1.85.391-2.465.621-.704.263-1.452.55-2.106.927l-3.795 2.185c-1.03.593-1.786 1.795-2.627 2.658-1.426 1.463-2.227 3.971-2.18 6.062.099 4.362 1.795 8.084 3.869 11.889M56.321 73.081c3.39-2.77 8.613-6.116 7.2-10.876-.204-.69-1.071-2.067-1.529-2.607-.526-.621-1.043-1.47-1.78-1.822-.365-.174-.57-.461-.963-.617-.362-.142-.945-.272-1.256-.502-.672-.496-1.502-.574-2.138-1.043-.572-.422-2.228-.88-2.993-.952-.908-.086-1.611-.24-2.537-.013-1.894.464-3.218.959-4.735 2.316-1.493 1.335-3.22 2.619-4.39 4.206-1.277 1.735-2.36 3.808-3.2 5.77-.352.825-.418 1.602-.5 2.452-.032.333.173.89.183 1.298.017.66.202 1.515.458 2.102.455 1.041.36 1.947 1.127 2.852.841.994 1.447 2.15 2.35 3.136 1.093 1.193 5.193 3.795 4.064 2.637-.461-.473-1.738-1.129-2.41-1.244-.355-.06-.81-.433-1.188-.562-.443-.152-.952-.328-1.43-.347-.511-.02-1.604-.443-2.054-.084-.632.505-1.218 1.091-1.822 1.631-1.47 1.314-2.719 3.355-3.676 5.129-.836 1.546-1.71 3.88-1.305 5.667.284 1.256.299 3.249.988 4.47 1.018 1.804 1.442 3.885 2.85 5.547 1.537 1.816 2.278 2.862 4.799 2.964.95.039 2.124-.074 3.078-.307.849-.208 1.42.002 2.276-.197 1.182-.274 2.13-.468 3.239-1.059 1.202-.641 2.14-2 3.41-2.46.915-.331 1.724-1.312 2.464-1.975.645-.576 1.927-1.343 2.302-2.125.371-.773.8-2.3.234-2.968-.4-.472-1.493-1.763-.49-.58 2.21 2.612 7.192 2.317 10.297 2.612 2.626.25 5.39-1.868 7.317-3.591.963-.862 2.16-1.341 3.12-2.201 1.106-.99 1.658-1.971 2.484-3.093.643-.873.388-1.819.787-2.855.315-.82.444-2.464.29-3.281-.086-.454.066-1.005-.055-1.446-.164-.597-.463-1.145-.56-1.782-.1-.661-.75-1.782-1.094-2.354-.394-.654-.82-1.35-1.312-1.93l-2.857-3.373c-.774-.915-2.073-1.43-3.067-2.1-1.684-1.137-4.236-1.431-6.218-.957-4.134.99-7.332 3.457-10.532 6.32M139.846 90.457c-2.002-3.655-4.22-9.174-8.954-8.381-.686.115-2.137.793-2.727 1.173-.679.438-1.571.838-2.033 1.516-.229.335-.536.499-.753.865-.199.336-.425.89-.697 1.166-.587.595-.808 1.397-1.364 1.96-.499.507-1.225 2.07-1.43 2.81-.243.877-.513 1.545-.465 2.478.099 1.908.328 3.264 1.335 4.915.99 1.624 1.89 3.471 3.176 4.81 1.405 1.463 3.163 2.778 4.861 3.841.714.446 1.433.607 2.219.792.308.072.869-.059 1.254-.019a5.892 5.892 0 002.062-.189c1.061-.315 1.896-.111 2.885-.749 1.086-.7 2.284-1.149 3.372-1.91 1.319-.922 4.5-4.609 3.209-3.648-.527.393-1.373 1.559-1.601 2.202-.121.34-.553.739-.742 1.092-.222.415-.478.89-.582 1.355-.111.498-.703 1.514-.445 1.998.363.68.809 1.326 1.21 1.983.975 1.598 2.673 3.072 4.172 4.227 1.307 1.007 3.348 2.149 5.102 1.975 1.234-.123 3.112.108 4.385-.414 1.881-.773 3.915-.931 5.731-2.101 1.984-1.279 3.102-1.875 3.648-4.326.206-.924.31-2.086.26-3.048-.044-.855.256-1.387.221-2.248-.047-1.19-.06-2.141-.419-3.298-.388-1.254-1.5-2.338-1.706-3.637-.149-.935-.928-1.847-1.42-2.653-.428-.701-.92-2.05-1.59-2.513-.662-.458-2.022-1.065-2.753-.594-.515.332-1.926 1.241-.632.408 2.853-1.84 3.464-6.746 4.296-9.745.704-2.537-.796-5.5-2.074-7.596-.64-1.048-.877-2.277-1.515-3.323-.734-1.202-1.56-1.863-2.469-2.81-.707-.736-1.643-.604-2.547-1.121-.716-.41-2.24-.738-3.037-.688-.443.027-.935-.19-1.371-.126-.592.087-1.161.312-1.778.328-.64.016-1.811.513-2.412.78-.686.304-1.416.635-2.051 1.044l-3.685 2.376c-1 .644-1.717 1.85-2.526 2.739-1.37 1.507-2.103 3.965-2.01 5.96.193 4.164 1.945 7.595 4.07 11.078M170.44 146.33c2.827-3.025 7.329-6.8 5.225-11.23-.305-.642-1.355-1.875-1.879-2.346-.604-.542-1.234-1.304-1.999-1.564-.378-.129-.619-.384-1.022-.491-.37-.099-.952-.162-1.287-.35-.725-.406-1.535-.393-2.221-.777-.616-.345-2.28-.609-3.028-.598-.887.014-1.588-.059-2.443.257-1.749.648-2.946 1.264-4.194 2.731-1.226 1.443-2.687 2.862-3.564 4.514-.958 1.805-1.675 3.914-2.176 5.892-.21.831-.152 1.585-.098 2.412.021.324.306.839.379 1.229.12.635.432 1.437.77 1.975.601.953.651 1.835 1.53 2.624.966.867 1.73 1.916 2.753 2.768 1.238 1.032 5.59 3.1 4.323 2.106-.518-.406-1.849-.902-2.513-.941-.352-.02-.848-.33-1.232-.415-.45-.099-.966-.214-1.429-.182-.496.035-1.613-.256-1.99.138-.529.553-1.002 1.179-1.498 1.763-1.208 1.42-2.09 3.517-2.735 5.325-.561 1.577-1.036 3.915-.367 5.592.47 1.178.796 3.094 1.65 4.196 1.262 1.628 1.995 3.585 3.609 5.035 1.764 1.584 2.641 2.512 5.082 2.343.92-.064 2.032-.297 2.914-.623.784-.29 1.365-.148 2.158-.431 1.095-.39 1.977-.676 2.951-1.363 1.056-.744 1.746-2.152 2.896-2.729.828-.416 1.453-1.446 2.062-2.162.529-.623 1.644-1.497 1.882-2.29.236-.783.409-2.298-.24-2.88l-.563-.506c2.537 2.278 7.284 1.465 10.317 1.419 2.565-.039 4.894-2.369 6.478-4.232.791-.932 1.868-1.52 2.658-2.45.908-1.068 1.286-2.072 1.905-3.239.482-.909.089-1.792.31-2.831.175-.822.042-2.418-.235-3.188-.153-.428-.093-.974-.278-1.385-.252-.557-.625-1.054-.818-1.656-.2-.625-1-1.634-1.422-2.149-.481-.587-1-1.211-1.564-1.717l-3.276-2.943c-.889-.798-2.219-1.156-3.28-1.695-1.799-.915-4.3-.927-6.132-.26-3.823 1.391-6.514 4.105-9.145 7.2M245.49 92.936c-2.578-3.252-5.677-8.304-10.21-6.694-.657.233-1.975 1.154-2.493 1.632-.597.55-1.41 1.1-1.754 1.85-.17.37-.445.585-.598.983-.141.366-.272.952-.494 1.271-.48.69-.566 1.519-1.02 2.171-.408.587-.865 2.253-.945 3.017-.095.907-.25 1.613-.048 2.524.413 1.864.863 3.16 2.128 4.61 1.245 1.427 2.437 3.09 3.926 4.185 1.626 1.197 3.576 2.185 5.425 2.936.778.315 1.513.347 2.318.393.315.017.847-.211 1.233-.238a5.932 5.932 0 002-.546c.993-.497 1.851-.442 2.72-1.243.954-.88 2.06-1.532 3.007-2.472 1.147-1.139 3.672-5.328 2.558-4.155-.454.479-1.095 1.776-1.213 2.45-.063.356-.422.824-.551 1.206-.15.447-.324.96-.349 1.436-.027.51-.443 1.615-.108 2.047.47.607 1.016 1.165 1.52 1.743 1.225 1.404 3.142 2.559 4.811 3.436 1.454.764 3.654 1.533 5.354 1.054 1.195-.336 3.085-.437 4.253-1.174 1.725-1.091 3.704-1.601 5.3-3.072 1.744-1.607 2.746-2.39 2.879-4.9.05-.947-.04-2.11-.248-3.049-.185-.835.023-1.412-.154-2.255-.243-1.164-.413-2.099-.958-3.176-.59-1.168-1.866-2.042-2.283-3.286-.301-.896-1.22-1.658-1.838-2.366-.537-.616-1.246-1.86-1.983-2.199-.727-.335-2.169-.696-2.81-.105l-.557.513c2.508-2.311 2.299-7.253 2.623-10.353.274-2.623-1.694-5.282-3.301-7.124-.803-.92-1.241-2.09-2.042-3.009-.922-1.057-1.846-1.564-2.898-2.338-.818-.602-1.719-.308-2.695-.66-.773-.278-2.33-.335-3.107-.147-.432.105-.952-.023-1.372.116-.568.19-1.093.51-1.698.633-.628.129-1.7.823-2.247 1.19-.626.42-1.291.874-1.849 1.388l-3.239 2.985c-.878.81-1.385 2.124-2.035 3.141-1.102 1.725-1.417 4.275-.996 6.225.88 4.07 3.174 7.145 5.843 10.205M307.969 44.84c2.648-3.192 6.925-7.234 4.569-11.529-.341-.622-1.46-1.788-2.011-2.227-.634-.504-1.307-1.227-2.085-1.44-.385-.105-.641-.345-1.049-.428-.375-.076-.96-.103-1.305-.27-.747-.362-1.555-.3-2.261-.641-.635-.307-2.312-.47-3.058-.413-.885.068-1.588.038-2.424.406-1.709.753-2.868 1.44-4.029 2.981-1.141 1.516-2.518 3.02-3.298 4.723-.852 1.86-1.447 4.01-1.832 6.014-.163.843-.061 1.592.041 2.414.039.322.353.819.449 1.204.156.626.514 1.408.883 1.924.654.915.755 1.792 1.678 2.527 1.014.806 1.837 1.807 2.907 2.595 1.296.955 5.76 2.755 4.437 1.84-.541-.374-1.898-.788-2.563-.787-.353.001-.865-.278-1.253-.34-.456-.07-.978-.154-1.438-.094-.493.065-1.625-.157-1.978.259-.496.584-.932 1.238-1.394 1.851-1.124 1.491-1.884 3.638-2.423 5.482-.47 1.608-.809 3.971-.045 5.604.537 1.148.973 3.04 1.889 4.089 1.354 1.548 2.199 3.457 3.893 4.806 1.852 1.474 2.781 2.347 5.208 2.03a11.25 11.25 0 002.873-.8c.766-.337 1.355-.23 2.13-.56 1.07-.457 1.934-.797 2.867-1.541 1.011-.807 1.618-2.254 2.733-2.9.803-.466 1.368-1.533 1.934-2.284.493-.655 1.555-1.595 1.747-2.4.19-.797.276-2.32-.405-2.862l-.591-.47c2.663 2.12 7.355 1.019 10.38.788 2.559-.195 4.749-2.663 6.223-4.619.736-.978 1.777-1.63 2.512-2.606.845-1.123 1.164-2.148 1.715-3.35.429-.937-.014-1.794.147-2.845.127-.832-.098-2.416-.418-3.168-.178-.418-.149-.967-.358-1.366-.283-.541-.685-1.014-.912-1.603-.235-.612-1.093-1.57-1.543-2.059-.514-.557-1.068-1.148-1.661-1.62l-3.439-2.737c-.933-.742-2.282-1.019-3.372-1.493-1.848-.803-4.346-.663-6.136.114-3.736 1.622-6.266 4.494-8.714 7.744M323.055 160.574c3.386-2.341 8.563-5.052 7.418-9.84-.166-.693-.938-2.126-1.353-2.701-.479-.661-.938-1.543-1.632-1.964-.343-.208-.526-.509-.898-.702-.342-.177-.897-.365-1.186-.622-.625-.554-1.42-.717-2.01-1.242-.531-.471-2.104-1.091-2.837-1.243-.87-.18-1.54-.403-2.44-.28-1.844.252-3.141.595-4.661 1.757-1.496 1.144-3.216 2.213-4.413 3.636-1.308 1.556-2.443 3.462-3.34 5.286-.376.767-.475 1.517-.592 2.336-.046.322.126.887.118 1.284a6.39 6.39 0 00.346 2.098c.391 1.062.259 1.934.955 2.897.765 1.058 1.296 2.249 2.121 3.304.998 1.278 4.826 4.246 3.791 2.998-.422-.509-1.621-1.283-2.262-1.466-.34-.096-.76-.507-1.118-.673-.42-.195-.901-.419-1.36-.489-.492-.074-1.524-.601-1.973-.298-.631.426-1.222.934-1.827 1.397-1.473 1.126-2.767 2.983-3.769 4.61-.873 1.419-1.818 3.601-1.51 5.385.217 1.254.141 3.198.749 4.46.899 1.866 1.213 3.938 2.492 5.706 1.398 1.932 2.064 3.03 4.484 3.395.912.138 2.048.152 2.976.025.826-.113 1.365.152 2.198.049 1.15-.143 2.072-.232 3.165-.691 1.185-.497 2.149-1.723 3.392-2.037.895-.226 1.718-1.098 2.46-1.665.646-.494 1.915-1.106 2.311-1.829.392-.714.873-2.156.359-2.867a493.943 493.943 0 00-.446-.616c2.01 2.778 6.816 3.015 9.79 3.63 2.516.52 5.272-1.252 7.203-2.728.965-.738 2.138-1.079 3.102-1.816 1.108-.847 1.683-1.746 2.529-2.752.658-.783.455-1.732.885-2.699.34-.766.539-2.354.427-3.167-.062-.451.11-.972.013-1.415-.131-.599-.394-1.165-.458-1.795-.067-.655-.642-1.815-.948-2.41-.349-.679-.728-1.401-1.175-2.019l-2.597-3.588c-.704-.973-1.93-1.612-2.856-2.37-1.57-1.285-4.012-1.841-5.94-1.588-4.023.529-7.211 2.596-10.419 5.048M106.889 25.185c3.386-2.342 8.563-5.053 7.419-9.84-.166-.694-.938-2.127-1.354-2.701-.479-.662-.937-1.544-1.631-1.964-.343-.208-.527-.51-.899-.703-.341-.177-.897-.365-1.186-.621-.624-.555-1.419-.718-2.01-1.242-.531-.472-2.104-1.092-2.837-1.243-.87-.18-1.539-.404-2.44-.28-1.843.252-3.14.594-4.66 1.757-1.497 1.144-3.217 2.212-4.414 3.636-1.307 1.556-2.443 3.461-3.339 5.286-.377.766-.475 1.516-.592 2.336-.046.321.126.886.118 1.284a6.367 6.367 0 00.346 2.097c.39 1.062.258 1.935.955 2.898.765 1.057 1.296 2.248 2.12 3.303.998 1.279 4.826 4.246 3.792 2.999-.423-.51-1.621-1.283-2.263-1.466-.34-.097-.76-.508-1.118-.674-.42-.195-.9-.419-1.36-.488-.491-.075-1.523-.601-1.972-.298-.631.425-1.222.934-1.828 1.397-1.472 1.125-2.766 2.982-3.768 4.61-.874 1.419-1.819 3.6-1.51 5.385.216 1.254.14 3.197.749 4.46.898 1.866 1.212 3.938 2.491 5.706 1.398 1.932 2.064 3.03 4.484 3.395.913.138 2.048.152 2.977.025.826-.113 1.365.152 2.198.048 1.15-.143 2.071-.231 3.165-.69 1.185-.498 2.148-1.724 3.391-2.038.896-.226 1.718-1.097 2.461-1.664.646-.494 1.915-1.106 2.311-1.83.391-.713.872-2.156.358-2.867l-.446-.616c2.01 2.778 6.817 3.015 9.791 3.63 2.515.52 5.271-1.251 7.202-2.728.966-.738 2.139-1.079 3.102-1.815 1.108-.847 1.684-1.746 2.529-2.752.658-.783.456-1.732.886-2.7.34-.765.538-2.353.427-3.167-.062-.45.109-.972.012-1.414-.131-.6-.393-1.165-.458-1.796-.067-.655-.641-1.815-.947-2.41-.35-.678-.729-1.4-1.176-2.018l-2.596-3.588c-.704-.974-1.931-1.613-2.857-2.37-1.57-1.286-4.012-1.842-5.939-1.588-4.023.528-7.212 2.595-10.42 5.048M358.988 211.746c-3.327-2.43-7.621-6.452-11.575-3.662-.573.405-1.605 1.653-1.981 2.256-.433.693-1.074 1.446-1.212 2.262-.068.403-.278.686-.322 1.112-.041.391-.016.991-.147 1.36-.285.796-.153 1.618-.422 2.371-.241.677-.251 2.409-.13 3.167.144.901.176 1.624.607 2.446.88 1.684 1.649 2.811 3.244 3.863 1.569 1.035 3.149 2.312 4.867 2.961 1.878.708 4.013 1.128 5.99 1.346.831.092 1.548-.078 2.335-.255.309-.069.763-.434 1.127-.566a6 6 0 001.787-1.073c.829-.751 1.67-.932 2.301-1.942.692-1.109 1.589-2.04 2.259-3.205.811-1.411 2.161-6.14 1.391-4.705-.315.586-.596 2.012-.536 2.693.032.361-.194.911-.219 1.313-.029.473-.063 1.015.035 1.481.106.499-.009 1.677.426 2.002.609.457 1.281.846 1.916 1.265 1.544 1.019 3.691 1.608 5.526 1.997 1.6.339 3.92.479 5.435-.448 1.065-.651 2.861-1.264 3.795-2.294 1.382-1.523 3.157-2.556 4.315-4.41 1.265-2.027 2.029-3.055 1.508-5.511a12.035 12.035 0 00-1.029-2.872c-.394-.754-.343-1.366-.731-2.131-.536-1.055-.942-1.91-1.746-2.8-.871-.964-2.327-1.458-3.051-2.543-.522-.781-1.605-1.265-2.384-1.779-.677-.447-1.682-1.451-2.48-1.577-.788-.125-2.271-.078-2.736.667l-.404.647c1.819-2.914.339-7.621-.151-10.698-.414-2.603-3-4.628-5.025-5.964-1.013-.668-1.737-1.676-2.747-2.343-1.162-.766-2.184-1.003-3.398-1.461-.945-.357-1.737.173-2.769.101-.817-.057-2.333.313-3.034.707-.389.219-.924.238-1.292.487-.499.338-.922.79-1.473 1.074-.572.296-1.425 1.258-1.858 1.762-.495.576-1.019 1.195-1.423 1.843l-2.35 3.764c-.637 1.02-.786 2.425-1.15 3.583-.615 1.964-.259 4.509.652 6.274 1.9 3.682 4.907 6.019 8.272 8.239" stroke="#000" stroke-width="11" stroke-linecap="round"/></g><defs><clipPath id="prefix__clip0_1_75"><path fill="#fff" d="M0 0h413v560H0z"/></clipPath></defs></svg>