<svg width="217" height="176" viewBox="0 0 217 176" fill="none" xmlns="http://www.w3.org/2000/svg">
<path d="M97.2629 123.778C99.5531 123.23 101.38 124.141 102.923 125.612C102.369 124.329 101.962 122.977 101.755 121.515C101.482 119.585 102.012 117.141 103.28 115.57C104.028 114.644 104.653 113.417 105.618 112.713L109.175 110.117C109.788 109.671 110.505 109.292 111.18 108.943C111.77 108.637 112.923 108.063 113.577 107.997C114.206 107.933 114.768 107.671 115.365 107.54C115.806 107.444 116.328 107.616 116.778 107.555C117.589 107.444 119.178 107.644 119.946 107.986C120.917 108.417 121.862 108.215 122.651 108.875C123.665 109.723 124.568 110.3 125.426 111.411C126.171 112.376 126.524 113.551 127.271 114.518C128.765 116.453 130.563 119.214 130.07 121.733C129.486 124.709 129.299 129.521 126.544 131.531L127.155 131.085C127.86 130.571 129.306 131.054 130.023 131.447C130.749 131.845 131.373 133.116 131.873 133.763C132.448 134.507 133.326 135.332 133.561 136.228C133.888 137.473 135.122 138.439 135.631 139.626C136.101 140.722 136.199 141.644 136.353 142.796C136.465 143.63 136.206 144.169 136.327 144.996C136.464 145.926 136.461 147.063 136.333 147.976C135.993 150.399 134.903 151.065 132.988 152.462C131.235 153.741 129.169 154.053 127.315 154.95C126.06 155.558 124.118 155.48 122.867 155.695C121.089 156.002 118.9 155.053 117.474 154.177C115.838 153.172 113.97 151.874 112.831 150.399C112.362 149.792 111.848 149.2 111.416 148.568C111.109 148.118 111.624 147.085 111.694 146.593C111.758 146.137 111.974 145.66 112.163 145.242L112.168 145.232C112.33 144.874 112.736 144.453 112.829 144.113C112.832 144.102 112.835 144.09 112.839 144.078C112.288 144.721 111.717 145.325 111.314 145.643C110.269 146.467 109.084 146.997 108.036 147.762C107.081 148.458 106.208 148.325 105.152 148.715C104.556 148.934 103.706 149.073 103.06 149.059C102.663 149.05 102.101 149.222 101.779 149.176C100.959 149.057 100.209 148.958 99.4397 148.58C97.6085 147.68 95.6935 146.542 94.1262 145.23C92.6919 144.031 91.6069 142.307 90.4491 140.808C89.2721 139.284 88.9171 137.985 88.6461 136.14C88.5137 135.238 88.73 134.568 88.9008 133.697C89.0446 132.963 89.6476 131.389 90.1131 130.858C90.631 130.267 90.7855 129.471 91.3331 128.847C91.5865 128.558 91.7685 128.002 91.9419 127.66C92.1309 127.288 92.4299 127.104 92.6342 126.761C93.0472 126.067 93.9232 125.609 94.579 125.13C95.1484 124.715 96.5718 123.943 97.2629 123.778Z" fill="#F2DA8D"/>
<path d="M107.167 131.216C104.794 127.824 102.033 122.637 97.2629 123.778C96.5718 123.943 95.1484 124.715 94.579 125.13C93.9232 125.609 93.0472 126.067 92.6342 126.761C92.4299 127.104 92.1309 127.288 91.9419 127.66C91.7685 128.002 91.5865 128.558 91.3331 128.847C90.7855 129.471 90.631 130.267 90.1131 130.858C89.6476 131.389 89.0446 132.963 88.9008 133.697C88.73 134.568 88.5137 135.238 88.6461 136.14C88.9171 137.985 89.2721 139.284 90.4491 140.808C91.6069 142.307 92.6919 144.031 94.1262 145.23C95.6935 146.542 97.6085 147.68 99.4397 148.58C100.209 148.958 100.959 149.057 101.779 149.176C102.101 149.222 102.663 149.05 103.06 149.059C103.706 149.073 104.556 148.934 105.152 148.715C106.208 148.325 107.081 148.458 108.036 147.762C109.084 146.997 110.269 146.467 111.314 145.643C112.58 144.645 115.505 140.815 114.27 141.85C113.766 142.272 113.005 143.471 112.829 144.113C112.736 144.453 112.33 144.874 112.168 145.232C111.977 145.652 111.758 146.133 111.694 146.593C111.624 147.085 111.109 148.118 111.416 148.568C111.848 149.2 112.362 149.792 112.831 150.399C113.97 151.874 115.838 153.172 117.474 154.177C118.9 155.053 121.089 156.002 122.867 155.695C124.118 155.48 126.06 155.558 127.315 154.95C129.169 154.053 131.235 153.741 132.988 152.462C134.903 151.065 135.993 150.399 136.333 147.976C136.461 147.063 136.464 145.926 136.327 144.996C136.206 144.169 136.465 143.63 136.353 142.796C136.199 141.644 136.101 140.722 135.631 139.626C135.122 138.439 133.888 137.473 133.561 136.228C133.326 135.332 132.448 134.507 131.873 133.763C131.373 133.116 130.749 131.845 130.023 131.447C129.306 131.054 127.86 130.571 127.155 131.085C126.658 131.448 125.296 132.442 126.544 131.531C129.299 129.521 129.486 124.709 130.07 121.733C130.563 119.214 128.765 116.453 127.271 114.518C126.524 113.551 126.171 112.376 125.426 111.411C124.568 110.3 123.665 109.723 122.651 108.875C121.862 108.215 120.917 108.417 119.946 107.986C119.178 107.644 117.589 107.444 116.778 107.555C116.328 107.616 115.806 107.444 115.365 107.54C114.768 107.671 114.206 107.933 113.577 107.997C112.923 108.063 111.77 108.637 111.18 108.943C110.505 109.292 109.788 109.671 109.175 110.117C107.989 110.983 106.804 111.848 105.618 112.713C104.653 113.417 104.028 114.644 103.28 115.57C102.012 117.141 101.482 119.585 101.755 121.515C102.324 125.544 104.421 128.738 106.904 131.953" stroke="#EEECEC" stroke-width="4" stroke-linecap="round"/>
<path d="M154.305 66.3864C156.018 68.0019 156.258 70.0292 155.874 72.1261C156.643 70.9594 157.55 69.8775 158.66 68.9038C160.125 67.6177 162.46 66.7213 164.468 66.9208C165.653 67.0384 167.022 66.8893 168.139 67.3105L172.26 68.8634C172.969 69.1308 173.679 69.5235 174.341 69.8962C174.92 70.2225 176.032 70.8722 176.446 71.3826C176.844 71.8738 177.372 72.2007 177.808 72.6285C178.13 72.9443 178.273 73.4756 178.571 73.8182C179.108 74.4358 179.811 75.8742 179.946 76.7039C180.117 77.7524 180.804 78.4328 180.685 79.454C180.531 80.7665 180.543 81.8388 180.085 83.1645C179.686 84.3172 178.897 85.2559 178.497 86.4112C177.697 88.7217 176.373 91.7387 173.996 92.706C171.187 93.8493 167.059 96.3299 163.869 95.1275L164.576 95.3942C165.392 95.7018 165.781 97.176 165.845 97.9912C165.911 98.8165 165.19 100.035 164.922 100.808C164.615 101.696 164.406 102.883 163.785 103.571C162.923 104.526 162.791 106.088 162.077 107.165C161.419 108.158 160.701 108.746 159.822 109.506C159.186 110.057 158.592 110.136 157.967 110.69C157.264 111.314 156.312 111.935 155.478 112.329C153.265 113.372 152.111 112.825 149.893 111.989C147.862 111.224 146.469 109.667 144.702 108.607C143.506 107.891 142.507 106.224 141.641 105.296C140.41 103.976 140.004 101.625 139.955 99.9523C139.899 98.0334 139.961 95.7596 140.57 93.998C140.821 93.2734 141.035 92.5187 141.327 91.8113C141.535 91.308 142.681 91.1729 143.131 90.961C143.547 90.7647 144.065 90.684 144.518 90.6134L144.529 90.6117C144.918 90.5511 145.492 90.66 145.827 90.5516C145.839 90.5479 145.85 90.5443 145.862 90.5407C145.022 90.432 144.204 90.2857 143.718 90.1227C142.456 89.6999 141.363 88.9999 140.149 88.5423C139.043 88.1256 138.676 87.3225 137.771 86.6521C137.26 86.274 136.678 85.6391 136.337 85.0915C136.126 84.7545 135.674 84.3782 135.537 84.0839C135.187 83.3332 134.859 82.6515 134.753 81.8005C134.502 79.7759 134.405 77.5498 134.642 75.5203C134.86 73.6631 135.707 71.811 136.326 70.021C136.956 68.2013 137.847 67.1924 139.243 65.9542C139.925 65.3491 140.604 65.1628 141.426 64.8283C142.118 64.5465 143.765 64.1881 144.465 64.2864C145.243 64.3959 145.993 64.0889 146.815 64.2046C147.196 64.2581 147.761 64.1056 148.142 64.0635C148.557 64.0177 148.874 64.1672 149.273 64.1499C150.08 64.1148 150.944 64.5964 151.703 64.8826C152.363 65.1312 153.788 65.8989 154.305 66.3864Z" fill="#F2DA8D"/>
<path d="M153.512 78.7474C155.049 74.9027 157.874 69.7512 154.305 66.3864C153.788 65.8989 152.363 65.1312 151.703 64.8826C150.944 64.5964 150.08 64.1148 149.273 64.1499C148.874 64.1672 148.557 64.0177 148.142 64.0635C147.761 64.1056 147.196 64.2581 146.815 64.2046C145.993 64.0889 145.243 64.3959 144.465 64.2864C143.765 64.1881 142.118 64.5465 141.426 64.8283C140.604 65.1628 139.925 65.3491 139.243 65.9542C137.847 67.1924 136.956 68.2013 136.326 70.021C135.707 71.811 134.86 73.6631 134.642 75.5203C134.405 77.5498 134.502 79.7759 134.753 81.8005C134.859 82.6515 135.187 83.3332 135.537 84.0839C135.674 84.3782 136.126 84.7545 136.337 85.0915C136.678 85.6392 137.26 86.274 137.771 86.6521C138.676 87.3225 139.043 88.1256 140.149 88.5423C141.363 88.9999 142.456 89.6999 143.718 90.1227C145.247 90.6349 150.053 90.9826 148.51 90.5164C147.881 90.3262 146.461 90.3468 145.827 90.5516C145.492 90.66 144.918 90.5511 144.529 90.6117C144.074 90.6827 143.551 90.7631 143.131 90.961C142.681 91.1729 141.535 91.308 141.327 91.8113C141.035 92.5187 140.821 93.2734 140.57 93.998C139.961 95.7596 139.899 98.0334 139.955 99.9523C140.004 101.625 140.41 103.976 141.641 105.296C142.507 106.224 143.506 107.891 144.702 108.607C146.469 109.667 147.862 111.224 149.893 111.989C152.111 112.825 153.265 113.372 155.478 112.329C156.312 111.935 157.264 111.314 157.967 110.69C158.593 110.136 159.186 110.057 159.822 109.506C160.701 108.746 161.419 108.158 162.077 107.165C162.791 106.088 162.923 104.526 163.785 103.571C164.406 102.883 164.615 101.696 164.922 100.808C165.19 100.035 165.911 98.8165 165.845 97.9912C165.781 97.176 165.392 95.7018 164.576 95.3942C164 95.1772 162.423 94.5826 163.869 95.1275C167.059 96.3299 171.187 93.8493 173.996 92.706C176.373 91.7387 177.697 88.7217 178.497 86.4112C178.897 85.2559 179.686 84.3172 180.085 83.1645C180.543 81.8388 180.531 80.7665 180.685 79.454C180.804 78.4328 180.117 77.7524 179.946 76.7039C179.811 75.8742 179.108 74.4358 178.571 73.8182C178.273 73.4756 178.13 72.9443 177.808 72.6285C177.372 72.2007 176.844 71.8738 176.446 71.3826C176.032 70.8722 174.92 70.2225 174.341 69.8962C173.679 69.5235 172.969 69.1308 172.26 68.8634C170.886 68.3457 169.513 67.8281 168.139 67.3105C167.022 66.8893 165.653 67.0384 164.468 66.9208C162.46 66.7213 160.125 67.6177 158.66 68.9038C155.602 71.5876 154.08 75.0927 152.751 78.9316" stroke="#EEECEC" stroke-width="4" stroke-linecap="round"/>
<path d="M97.2817 53.8376C97.2714 51.4829 98.5754 49.9121 100.359 48.7453C98.9839 48.992 97.5747 49.0803 96.1046 48.9476C94.163 48.7724 91.9042 47.6982 90.6647 46.1056C89.9335 45.1661 88.8818 44.2769 88.4167 43.1768L86.7021 39.121C86.4068 38.4225 86.2022 37.6376 86.0162 36.9012C85.8533 36.2565 85.5578 35.0031 85.6425 34.3516C85.7241 33.7247 85.5971 33.1169 85.6063 32.5059C85.6131 32.0548 85.9001 31.5855 85.9429 31.1335C86.0202 30.3187 86.5779 28.818 87.0858 28.148C87.7276 27.3014 87.747 26.3346 88.5695 25.7174C89.6264 24.9243 90.3948 24.1763 91.6716 23.595C92.7816 23.0896 94.0058 23.0145 95.1184 22.508C97.3436 21.4949 100.442 20.3751 102.781 21.4307C105.546 22.6785 110.188 23.9596 111.516 27.1L111.221 26.4035C110.882 25.6001 111.682 24.3029 112.228 23.6942C112.781 23.078 114.161 22.7605 114.906 22.4215C115.761 22.0322 116.765 21.3652 117.691 21.341C118.978 21.3075 120.2 20.3265 121.472 20.1018C122.646 19.8945 123.567 20.0099 124.723 20.1223C125.56 20.2037 126.026 20.5795 126.859 20.6501C127.796 20.7295 128.902 20.9913 129.762 21.3247C132.043 22.2092 132.442 23.422 133.366 25.6057C134.21 27.604 134.042 29.6871 134.493 31.6975C134.797 33.0577 134.278 34.9306 134.202 36.1972C134.095 37.9991 132.671 39.9134 131.493 41.1019C130.141 42.465 128.451 43.9873 126.754 44.7597C126.056 45.0774 125.362 45.4427 124.648 45.7185C124.14 45.9148 123.252 45.1772 122.789 44.9976C122.36 44.8312 121.944 44.5116 121.581 44.232L121.572 44.2252C121.261 43.9854 120.944 43.4943 120.634 43.326C120.624 43.3203 120.613 43.3143 120.602 43.3082C121.102 43.9917 121.56 44.6853 121.777 45.1501C122.341 46.356 122.587 47.6302 123.092 48.8253C123.552 49.9137 123.223 50.7333 123.361 51.8511C123.439 52.4815 123.38 53.3407 123.219 53.9658C123.119 54.3504 123.158 54.9372 123.04 55.2396C122.737 56.0109 122.469 56.7183 121.926 57.3814C120.632 58.9589 119.086 60.5633 117.451 61.7898C115.956 62.9122 114.03 63.5751 112.306 64.36C110.554 65.1579 109.208 65.207 107.349 65.0494C106.441 64.9724 105.838 64.6087 105.029 64.2436C104.348 63.9361 102.953 62.9896 102.542 62.4151C102.085 61.776 101.346 61.4439 100.863 60.7682C100.639 60.4554 100.139 60.1514 99.8464 59.9045C99.5272 59.6355 99.4169 59.3025 99.1293 59.0253C98.5476 58.4647 98.3015 57.5071 97.9854 56.7594C97.7109 56.1102 97.2848 54.5482 97.2817 53.8376Z" fill="#F2DA8D"/>
<path d="M106.785 45.8935C102.94 47.4296 97.2604 48.9331 97.2817 53.8376C97.2848 54.5482 97.7109 56.1102 97.9854 56.7594C98.3015 57.5071 98.5476 58.4647 99.1293 59.0253C99.4169 59.3025 99.5272 59.6355 99.8464 59.9045C100.139 60.1514 100.639 60.4554 100.863 60.7682C101.346 61.4439 102.085 61.776 102.542 62.4151C102.953 62.9896 104.348 63.9361 105.029 64.2436C105.838 64.6087 106.441 64.9724 107.349 65.0494C109.208 65.207 110.554 65.1579 112.306 64.36C114.03 63.5751 115.956 62.9122 117.451 61.7898C119.086 60.5633 120.632 58.9589 121.926 57.3814C122.469 56.7183 122.737 56.0109 123.04 55.2396C123.158 54.9372 123.119 54.3504 123.219 53.9658C123.38 53.3407 123.439 52.4815 123.361 51.8511C123.223 50.7333 123.552 49.9137 123.092 48.8253C122.587 47.6302 122.341 46.356 121.777 45.1501C121.095 43.6893 118.034 39.9675 118.76 41.4062C119.056 41.9936 120.049 43.0083 120.634 43.326C120.944 43.4943 121.261 43.9854 121.572 44.2252C121.938 44.5064 122.356 44.8298 122.789 44.9976C123.252 45.1772 124.14 45.9148 124.648 45.7185C125.362 45.4427 126.056 45.0774 126.754 44.7597C128.451 43.9873 130.141 42.465 131.493 41.1019C132.671 39.9134 134.095 37.9991 134.202 36.1972C134.278 34.9306 134.797 33.0577 134.493 31.6975C134.042 29.6871 134.21 27.604 133.366 25.6057C132.442 23.422 132.043 22.2092 129.762 21.3247C128.902 20.9913 127.796 20.7295 126.859 20.6501C126.026 20.5795 125.56 20.2037 124.723 20.1223C123.567 20.0099 122.646 19.8945 121.472 20.1018C120.2 20.3265 118.978 21.3075 117.691 21.341C116.765 21.3652 115.761 22.0322 114.906 22.4215C114.161 22.7605 112.781 23.078 112.228 23.6942C111.682 24.3029 110.882 25.6001 111.221 26.4035C111.461 26.9705 112.117 28.5233 111.516 27.1C110.188 23.9596 105.546 22.6785 102.781 21.4307C100.442 20.3751 97.3436 21.4949 95.1184 22.508C94.0058 23.0145 92.7816 23.0896 91.6716 23.595C90.3948 24.1763 89.6264 24.9243 88.5695 25.7174C87.747 26.3346 87.7276 27.3014 87.0858 28.148C86.5779 28.818 86.0202 30.3187 85.9429 31.1335C85.9001 31.5855 85.6131 32.0548 85.6063 32.5059C85.5971 33.1169 85.7241 33.7247 85.6425 34.3516C85.5578 35.0031 85.8533 36.2565 86.0162 36.9012C86.2022 37.6376 86.4068 38.4225 86.7021 39.121C87.2737 40.4729 87.8452 41.8249 88.4167 43.1768C88.8818 44.2769 89.9335 45.1661 90.6647 46.1056C91.9042 47.6982 94.163 48.7724 96.1046 48.9476C100.156 49.3132 103.746 48.0008 107.443 46.3176" stroke="#EEECEC" stroke-width="4" stroke-linecap="round"/>
<path d="M60.1604 66.9598C61.9232 68.521 62.2258 70.5399 61.9073 72.6477C62.6398 71.4576 63.5129 70.3479 64.5912 69.34C66.0155 68.0088 68.3215 67.04 70.335 67.1767C71.5227 67.2574 72.8865 67.0655 74.0167 67.4517L78.1836 68.8752C78.9012 69.1204 79.6229 69.4907 80.296 69.8426C80.8853 70.1507 82.0169 70.7654 82.4462 71.2626C82.8594 71.7411 83.3972 72.0514 83.8468 72.4653C84.1787 72.7709 84.3375 73.2976 84.646 73.6307C85.2021 74.2312 85.9497 75.6469 86.1109 76.472C86.3147 77.5147 87.0227 78.1733 86.935 79.1978C86.8223 80.5144 86.8681 81.5858 86.451 82.9252C86.0883 84.0897 85.3287 85.0527 84.9652 86.2198C84.2382 88.5542 83.0088 91.611 80.6632 92.652C77.8907 93.8825 73.8424 96.4907 70.616 95.3885L71.3317 95.633C72.157 95.9149 72.591 97.3763 72.6811 98.1891C72.7723 99.0119 72.0896 100.253 71.8463 101.034C71.5669 101.931 71.3956 103.124 70.7964 103.831C69.9642 104.812 69.8814 106.377 69.2014 107.476C68.574 108.489 67.8746 109.099 67.0204 109.886C66.4016 110.457 65.8109 110.554 65.2034 111.128C64.5202 111.773 63.5881 112.424 62.7664 112.843C60.587 113.955 59.4166 113.445 57.1731 112.678C55.1201 111.977 53.6787 110.463 51.8793 109.46C50.662 108.781 49.6113 107.146 48.7171 106.246C47.445 104.965 46.966 102.628 46.865 100.957C46.749 99.0409 46.7398 96.7663 47.2941 94.9866C47.5221 94.2545 47.7121 93.4935 47.9821 92.7773C48.1742 92.2678 49.3158 92.097 49.7585 91.8711C50.1685 91.6619 50.6836 91.5651 51.1342 91.4804L51.1452 91.4783C51.5316 91.4057 52.1089 91.4966 52.4408 91.3778C52.452 91.3737 52.4636 91.3698 52.4753 91.3658C51.6325 91.2834 50.8102 91.1627 50.3189 91.015C49.0441 90.6318 47.9302 89.9661 46.7023 89.5467C45.5842 89.1647 45.192 88.3734 44.2665 87.7316C43.7445 87.3696 43.1431 86.7533 42.7844 86.2165C42.5636 85.8862 42.1002 85.5242 41.9537 85.2344C41.5799 84.495 41.231 83.8238 41.0988 82.9765C40.7844 80.9607 40.618 78.7388 40.7922 76.7029C40.9517 74.8398 41.7401 72.9622 42.3033 71.1537C42.8759 69.3153 43.7358 68.279 45.0918 66.9979C45.7545 66.3718 46.4273 66.1644 47.2386 65.8044C47.922 65.5011 49.5571 65.0915 50.2592 65.168C51.0401 65.253 51.7805 64.9228 52.6062 65.0128C52.9885 65.0544 53.5481 64.8843 53.9273 64.8304C54.3406 64.7716 54.6624 64.9112 55.0608 64.8814C55.8664 64.8211 56.7445 65.2755 57.5127 65.538C58.1797 65.7658 59.6284 66.4887 60.1604 66.9598Z" fill="#F2DA8D"/>
<path d="M59.753 79.3395C61.1692 75.4487 63.832 70.2116 60.1604 66.9598C59.6284 66.4887 58.1797 65.7658 57.5127 65.538C56.7445 65.2755 55.8664 64.8211 55.0608 64.8814C54.6624 64.9112 54.3406 64.7716 53.9273 64.8304C53.5481 64.8843 52.9885 65.0544 52.6062 65.0128C51.7805 64.9228 51.0401 65.253 50.2592 65.168C49.5571 65.0915 47.922 65.5011 47.2386 65.8044C46.4273 66.1644 45.7545 66.3718 45.0918 66.9979C43.7358 68.279 42.8759 69.3153 42.3033 71.1537C41.7401 72.9622 40.9517 74.8398 40.7922 76.7029C40.618 78.7388 40.7844 80.9607 41.0988 82.9765C41.231 83.8238 41.5799 84.495 41.9537 85.2344C42.1002 85.5242 42.5636 85.8862 42.7844 86.2165C43.1431 86.7533 43.7445 87.3696 44.2665 87.7316C45.192 88.3734 45.5842 89.1647 46.7023 89.5467C47.9302 89.9661 49.0441 90.6318 50.3189 91.015C51.863 91.4792 56.6774 91.6767 55.1213 91.2589C54.4861 91.0884 53.0674 91.1534 52.4408 91.3778C52.1089 91.4966 51.5316 91.4057 51.1452 91.4783C50.692 91.5635 50.1719 91.6602 49.7585 91.8711C49.3158 92.097 48.1742 92.2678 47.9821 92.7773C47.7121 93.4935 47.5221 94.2545 47.2941 94.9866C46.7398 96.7663 46.749 99.0409 46.865 100.957C46.9661 102.628 47.445 104.965 48.7171 106.246C49.6113 107.146 50.662 108.781 51.8793 109.46C53.6787 110.463 55.1201 111.977 57.1731 112.678C59.4166 113.445 60.587 113.955 62.7664 112.843C63.5881 112.424 64.5202 111.773 65.2034 111.128C65.8109 110.554 66.4016 110.457 67.0204 109.886C67.8746 109.099 68.574 108.489 69.2014 107.476C69.8814 106.377 69.9642 104.812 70.7964 103.831C71.3956 103.124 71.5669 101.931 71.8463 101.034C72.0896 100.253 72.7723 99.0119 72.6811 98.1891C72.591 97.3763 72.157 95.9149 71.3317 95.633C70.7491 95.4339 69.1538 94.8889 70.616 95.3885C73.8424 96.4907 77.8907 93.8825 80.6632 92.652C83.0088 91.611 84.2382 88.5542 84.9652 86.2198C85.3287 85.0527 86.0883 84.0897 86.451 82.9252C86.8681 81.5858 86.8223 80.5144 86.935 79.1978C87.0227 78.1733 86.3147 77.5147 86.1109 76.472C85.9497 75.6469 85.2021 74.2312 84.646 73.6307C84.3375 73.2976 84.1787 72.7709 83.8468 72.4653C83.3972 72.0514 82.8594 71.7411 82.4462 71.2626C82.0169 70.7654 80.8853 70.1507 80.296 69.8426C79.6229 69.4907 78.9012 69.1204 78.1836 68.8752C76.7946 68.4007 75.4057 67.9262 74.0167 67.4517C72.8865 67.0655 71.5227 67.2574 70.335 67.1767C68.3215 67.04 66.0155 68.0088 64.5912 69.34C61.6191 72.1179 60.2065 75.6689 58.9986 79.5474" stroke="#EEECEC" stroke-width="4" stroke-linecap="round"/>
</svg>
