<svg width="154" height="145" viewBox="0 0 154 145" fill="none" xmlns="http://www.w3.org/2000/svg">
<path d="M62.6573 35.8898C62.65 35.9681 62.6733 36.0433 62.7122 36.117C61.8941 35.0098 60.8678 34.1782 59.4274 34.2477C58.7092 34.2823 57.9826 34.086 57.2327 34.3535C56.617 34.573 55.2296 35.1971 54.6287 35.1239C53.4051 34.9749 51.788 35.9862 50.5953 36.2396C49.238 36.5281 48.0119 37.2645 46.6462 37.4632C45.3458 37.6523 43.8079 38.6945 42.604 39.2308C40.7471 40.058 39.1136 40.9376 37.3973 42.0311L37.3809 42.0416C36.4134 42.658 34.9615 43.5831 34.2541 44.4701C33.9137 44.8968 33.3475 45.4327 32.9098 45.7628C32.5473 46.0362 32.5808 46.4971 32.2124 46.7888C31.2721 47.5334 29.6979 50.9983 29.7754 52.2839C29.8135 52.9176 29.5305 53.9959 29.438 54.6639C29.3249 55.48 29.3487 56.3222 29.4259 57.1598C29.5804 58.836 29.6769 60.5465 29.9349 62.1997C30.5863 66.3728 34.4237 70.748 37.8564 72.8573C39.0169 73.5704 40.7254 73.2771 41.8072 74.2501C42.6179 74.9793 45.7938 73.9075 43.3058 75.4927C40.3014 77.4069 36.4534 80.7613 35.698 84.4116C35.2087 86.7761 34.9234 88.9735 35.0905 91.4715C35.2444 93.7705 36.3299 95.4138 37.5536 97.3345C38.8019 99.2937 39.928 100.709 41.7929 102.114C42.7396 102.827 43.9819 103.101 44.9827 103.669C46.1394 104.325 47.3142 104.921 48.5721 105.308C51.4044 106.18 54.1632 107.958 57.1693 108.248C59.0571 108.43 60.9495 108.864 62.9098 108.727C64.3024 108.63 65.6664 109.1 67.0436 109.001C68.06 108.929 69.0401 109.035 70.0605 109.145L70.1073 109.15C72.1974 109.375 73.9018 108.639 75.5972 107.559C76.5476 106.953 77.6746 106.482 78.2153 105.454C78.5841 104.753 79.0843 103.978 79.5036 103.26C80.0996 102.239 79.8791 101.392 79.9977 100.263C80.1074 99.2198 80.3778 98.1681 80.404 97.1283L80.4056 97.0631C80.4337 95.9388 80.478 94.1681 81.0043 96.1965C81.176 96.8585 81.5276 97.7926 81.3828 98.492C80.9924 100.378 80.0304 102.012 79.5954 103.848C78.9327 106.645 81.6138 110.991 84.3567 112.011C87.1162 113.037 90.2368 113.162 93.2419 113.185C94.4936 113.194 95.7639 113.193 96.998 113.409C97.8499 113.558 98.4882 113.222 99.3045 113.232C100.288 113.244 102.201 111.839 103.018 111.318L106.236 109.268C110.604 106.485 114.79 103.501 118.546 99.9867C119.628 98.9743 121.292 97.3184 121.824 95.9105C121.977 95.5069 122.364 95.6154 122.368 95.0631C122.372 94.6648 122.756 94.2541 122.878 93.8658C123.204 92.8254 123.2 91.6483 123.57 90.662C124.082 89.297 124.698 85.5098 124.107 84.0832C123.473 82.551 123.287 80.6733 122.444 79.2292C121.577 77.7429 120.598 76.7087 119.512 75.4907C119.104 75.0323 118.627 74.4434 118.28 74.0162L118.253 73.9826C118.02 73.6955 117.533 73.1893 117.208 73.0327C116.882 72.8755 115.885 72.8738 116.184 72.6833C117.638 71.7572 118.982 70.6101 120.399 69.7071C121.345 69.1043 123.598 67.8146 123.714 66.5768C123.76 66.0863 124.59 65.3908 124.714 64.7926C124.865 64.0613 125.439 63.0993 125.763 62.4441C126.258 61.4421 126.265 59.9686 126.155 58.7691C126.09 58.0627 126.023 56.9044 126.131 56.1669C126.229 55.4971 125.564 54.7948 125.513 54.0883C125.393 52.4245 123.609 50.4334 122.71 49.0235C121.769 47.5456 120.665 46.257 119.749 44.8191C119.013 43.6643 117.67 41.9701 116.411 41.3555C115.557 40.9387 114.702 40.5935 113.871 40.1303C113.204 39.7591 112.617 39.9586 111.984 39.733C111.11 39.4214 109.665 40.3136 108.761 40.445C107.596 40.6146 106.357 40.5005 105.223 40.7604C104.756 40.8674 103.889 41.1385 103.438 41.0899C103.1 41.0534 103.491 40.2628 103.487 40.057C103.477 39.5908 104 38.4829 103.906 38.1746C103.536 36.9633 103.55 35.4228 103.456 34.115C103.23 30.9837 100.066 29.0543 98.3728 26.8029C97.9521 26.2437 97.2711 25.8952 96.8869 25.3584C96.3721 24.6392 95.5768 24.3565 95.0499 23.7821C93.7992 22.4185 92.714 22.6149 91.0744 22.2273C89.5429 21.8652 88.0734 22.3042 86.5731 22.0415C85.5829 21.8682 84.4815 21.8336 83.5121 22.0207C82.7088 22.1756 81.7988 22.135 81.0784 22.3433C80.1693 22.6062 78.9468 22.4565 78.125 22.7871C77.3153 23.1127 76.3455 23.4441 75.4945 23.6391C73.6291 24.0665 72.0408 24.6116 70.4238 25.6419C69.6665 26.1244 68.6452 26.559 68.1575 27.312C67.6964 28.024 66.7646 28.3345 66.2726 29.0138C65.2724 30.3948 63.5103 31.2995 63.1542 33.0204C63.0539 33.5051 62.5239 34.6096 62.6746 35.1032C62.7766 35.4371 62.6888 35.5549 62.6573 35.8898Z" fill="#FEF2DB"/>
<path d="M65.5385 41.8418C64.4248 40.0939 63.29 38.6727 63.0658 36.7282C63.0315 36.4306 62.6298 36.1826 62.6573 35.8898C62.6888 35.5549 62.7766 35.4371 62.6746 35.1032C62.5239 34.6096 63.0539 33.5051 63.1542 33.0204C63.5103 31.2995 65.2724 30.3948 66.2726 29.0138C66.7646 28.3345 67.6964 28.024 68.1575 27.312C68.6452 26.559 69.6665 26.1244 70.4238 25.6419C72.0408 24.6116 73.6291 24.0665 75.4945 23.6391C76.3455 23.4441 77.3153 23.1127 78.125 22.7871C78.9468 22.4565 80.1693 22.6062 81.0784 22.3433C81.7989 22.135 82.7088 22.1756 83.5121 22.0207C84.4815 21.8336 85.5829 21.8682 86.5731 22.0415C88.0734 22.3042 89.5429 21.8652 91.0744 22.2273C92.714 22.6149 93.7992 22.4185 95.0499 23.7821C95.5768 24.3565 96.3721 24.6392 96.8869 25.3584C97.2711 25.8952 97.9521 26.2437 98.3728 26.8029C100.066 29.0543 103.23 30.9837 103.456 34.115C103.55 35.4228 103.536 36.9633 103.906 38.1746C104 38.4829 103.477 39.5908 103.487 40.057C103.491 40.2628 103.1 41.0534 103.438 41.0899C103.889 41.1385 104.756 40.8674 105.223 40.7604C106.357 40.5005 107.596 40.6146 108.761 40.445C109.665 40.3136 111.11 39.4214 111.984 39.733C112.617 39.9586 113.204 39.7591 113.871 40.1303C114.702 40.5935 115.557 40.9387 116.411 41.3555C117.67 41.9701 119.013 43.6643 119.749 44.8191C120.665 46.257 121.769 47.5456 122.71 49.0235C123.609 50.4334 125.393 52.4245 125.513 54.0883C125.564 54.7948 126.229 55.4971 126.131 56.167C126.023 56.9044 126.09 58.0627 126.155 58.7691C126.265 59.9686 126.258 61.4421 125.763 62.4441C125.439 63.0993 124.865 64.0613 124.714 64.7926C124.59 65.3908 123.76 66.0863 123.714 66.5767C123.598 67.8146 121.345 69.1043 120.399 69.7071C118.982 70.6101 117.638 71.7572 116.184 72.6833C115.885 72.8738 116.882 72.8756 117.208 73.0327C117.533 73.1893 118.02 73.6955 118.253 73.9826C118.601 74.4121 119.093 75.0202 119.512 75.4907C120.598 76.7087 121.577 77.7429 122.444 79.2292C123.287 80.6733 123.473 82.5511 124.107 84.0831C124.698 85.5098 124.082 89.2969 123.57 90.662C123.2 91.6483 123.204 92.8254 122.878 93.8658C122.756 94.2541 122.372 94.6648 122.368 95.0631C122.364 95.6154 121.977 95.5069 121.824 95.9105C121.292 97.3184 119.628 98.9743 118.546 99.9867C114.79 103.501 110.604 106.485 106.236 109.268C105.163 109.951 104.091 110.635 103.018 111.318C102.201 111.839 100.288 113.244 99.3045 113.232C98.4882 113.222 97.8499 113.558 96.998 113.409C95.7639 113.193 94.4936 113.194 93.2419 113.185C90.2368 113.162 87.1162 113.037 84.3567 112.011C81.6138 110.991 78.9327 106.645 79.5954 103.848C80.0304 102.012 80.9924 100.378 81.3828 98.492C81.5276 97.7926 81.176 96.8585 81.0043 96.1965C80.4677 94.1285 80.4322 96.0094 80.404 97.1283C80.3778 98.1681 80.1074 99.2198 79.9977 100.263C79.8791 101.392 80.0996 102.239 79.5036 103.26C79.0843 103.978 78.5841 104.753 78.2153 105.454C77.6746 106.482 76.5476 106.953 75.5972 107.559C73.9018 108.639 72.1974 109.375 70.1073 109.15C69.07 109.038 68.0755 108.928 67.0436 109.001C65.6664 109.1 64.3024 108.63 62.9098 108.727C60.9495 108.864 59.0571 108.43 57.1693 108.248C54.1632 107.958 51.4044 106.18 48.5721 105.308C47.3142 104.921 46.1394 104.325 44.9827 103.669C43.9819 103.101 42.7396 102.827 41.7929 102.114C39.928 100.709 38.8019 99.2937 37.5536 97.3345C36.3299 95.4138 35.2444 93.7705 35.0905 91.4715C34.9234 88.9735 35.2087 86.7761 35.698 84.4116C36.4534 80.7613 40.3014 77.4069 43.3058 75.4927C45.7938 73.9075 42.6179 74.9793 41.8072 74.2501C40.7254 73.2771 39.0169 73.5704 37.8564 72.8573C34.4237 70.748 30.5863 66.3728 29.9349 62.1997C29.6769 60.5465 29.5804 58.836 29.4259 57.1598C29.3487 56.3222 29.3249 55.48 29.438 54.6639C29.5305 53.9959 29.8135 52.9176 29.7754 52.2839C29.6979 50.9983 31.2721 47.5334 32.2124 46.7888C32.5808 46.4971 32.5473 46.0362 32.9098 45.7628C33.3475 45.4327 33.9137 44.8968 34.2541 44.4701C34.9655 43.578 36.4299 42.6475 37.3973 42.0311C39.1136 40.9376 40.7471 40.058 42.604 39.2308C43.8079 38.6945 45.3458 37.6523 46.6462 37.4632C48.0119 37.2645 49.238 36.5281 50.5953 36.2396C51.788 35.9862 53.4051 34.9749 54.6287 35.1239C55.2296 35.1971 56.617 34.573 57.2327 34.3535C57.9826 34.086 58.7092 34.2823 59.4274 34.2477C61.1114 34.1665 62.2295 35.3169 63.1105 36.6997" stroke="black" stroke-width="3" stroke-linecap="round"/>
<path d="M72.6329 90.0785C72.4957 90.8594 72.8964 89.1577 72.9305 89.9513C74.4284 89.1479 79.0737 90.1337 80.7928 90.0509C82.0686 89.9895 83.3591 89.7605 84.6795 89.7363C85.7525 89.7167 86.7828 90.1848 87.8235 90.1658C91.542 90.0977 91.1276 95.563 91.2384 98.1383C91.3172 99.9722 89.4529 101.346 89.5362 103.283C89.5758 104.204 89.5058 104.988 90.5703 104.968L93.0928 104.922C96.9673 104.851 99.6747 103.851 101.177 100.026C101.795 98.451 102.781 96.1659 104.443 98.0049C105.578 99.2621 107.053 100.634 108.485 101.624C109.653 102.431 110.206 103.136 110.129 101.337L110.034 99.1336L109.836 94.511C109.769 92.9524 109.363 92.2085 108.718 90.8792C108.185 89.7828 106.719 87.9346 105.681 87.3501C104.53 86.7021 103.502 85.1964 102.613 84.3492C101.882 83.6526 101.306 81.8941 102.526 81.0772C103.508 80.4201 104.854 79.0482 106.038 78.8757C106.492 78.8095 107.152 78.305 107.579 78.063C108.114 77.7592 108.794 77.9335 109.293 77.5446C110.118 76.9014 110.128 77.3033 109.358 76.5695C108.94 76.1714 107.982 76.1486 107.409 75.9829C105.967 75.5655 104.522 75.4947 103.008 75.5224C101.552 75.549 99.8396 75.4674 98.7713 76.3844C97.9671 77.0748 96.4354 77.801 96.1689 78.921C96.1604 78.9569 95.3019 80.1698 95.1593 80.2922C94.6904 80.6947 94.4015 81.3889 94.0395 81.8953C93.5691 82.5533 93.5781 83.3808 92.6167 82.6653C92.0982 82.2794 91.2908 82.1741 90.671 81.8352C87.4301 80.0631 84.1755 80.8538 80.801 81.5423C79.3066 81.8472 77.2584 82.7086 76.0718 83.6985C74.9255 84.6548 73.4178 86.4965 73.2374 87.9842C73.1582 88.6378 72.7541 89.3892 72.6329 90.0785Z" fill="#F8BD7D" stroke="black" stroke-linecap="round"/>
<path d="M56.3543 68.4475C55.8662 67.3746 55.6651 66.3166 55.7509 65.2736C55.832 64.2202 56.181 63.277 56.7981 62.4439C57.4209 61.596 58.2603 60.9369 59.3163 60.4666C60.6105 59.8904 61.8731 59.7375 63.1043 60.008C64.3355 60.2786 65.3738 60.9327 66.2194 61.9705L63.2998 63.2705C62.8759 62.9135 62.4081 62.7062 61.8964 62.6487C61.395 62.5866 60.8907 62.6685 60.3834 62.8944C59.5654 63.2586 59.0319 63.8374 58.7827 64.6307C58.5335 65.4239 58.6247 66.2951 59.0565 67.2442C59.4882 68.1933 60.0868 68.8386 60.8522 69.1801C61.6176 69.5215 62.4093 69.5102 63.2272 69.146C63.7345 68.9201 64.1309 68.6009 64.4164 68.1884C64.7123 67.7714 64.8656 67.2875 64.8766 66.7368L67.7962 65.4367C68.0206 66.751 67.8269 67.9538 67.2152 69.0449C66.5988 70.1258 65.6435 70.9544 64.3493 71.5306C63.2933 72.0009 62.2404 72.1906 61.1906 72.0998C60.1465 71.9941 59.2014 71.6271 58.3554 70.999C57.5094 70.3709 56.8423 69.5203 56.3543 68.4475ZM77.0639 60.6958L74.3616 61.8991L75.6146 64.6535L73.0988 65.7738L71.8458 63.0194L69.1436 64.2226L68.0666 61.8551L70.7688 60.6518L69.5088 57.8819L72.0246 56.7617L73.2846 59.5315L75.9869 58.3283L77.0639 60.6958ZM86.8156 56.3535L84.1134 57.5568L85.3663 60.3112L82.8505 61.4314L81.5975 58.677L78.8953 59.8803L77.8183 57.5127L80.5205 56.3095L79.2605 53.5396L81.7763 52.4193L83.0363 55.1892L85.7386 53.9859L86.8156 56.3535Z" fill="black"/>
</svg>
