<svg width="132" height="130" viewBox="0 0 132 130" fill="none" xmlns="http://www.w3.org/2000/svg">
<path d="M50.4387 30.3695C50.4304 30.4464 50.4526 30.5198 50.4902 30.5916C49.6926 29.5164 48.6849 28.7141 47.2552 28.8003C46.5423 28.8432 45.8239 28.6599 45.0767 28.9315C44.4632 29.1545 43.0791 29.7837 42.4839 29.7195C41.2719 29.5887 39.6551 30.6004 38.4687 30.8639C37.1186 31.1637 35.8931 31.901 34.5358 32.1129C33.2435 32.3146 31.7047 33.3555 30.5037 33.8964C28.6513 34.7306 27.0198 35.6134 25.3036 36.7069L25.2871 36.7174C24.3197 37.3338 22.8678 38.2588 22.1549 39.1373C21.8119 39.5599 21.2434 40.0923 20.8051 40.4214C20.4421 40.694 20.4695 41.1453 20.1004 41.4359C19.1583 42.1777 17.5532 45.5941 17.6139 46.8534C17.6438 47.4741 17.3495 48.5347 17.2494 49.1907C17.127 49.9922 17.1399 50.8175 17.206 51.6377C17.3382 53.2789 17.4125 54.9545 17.6477 56.5718C18.2415 60.6545 21.9933 64.8954 25.3721 66.9201C26.5143 67.6046 28.2129 67.2956 29.2739 68.2359C30.0688 68.9406 33.2328 67.85 30.7449 69.4352C27.7404 71.3494 23.8812 74.6861 23.086 78.2739C22.5708 80.598 22.2603 82.7557 22.3947 85.2024C22.5185 87.4541 23.5747 89.0514 24.7645 90.9189C25.9783 92.8239 27.0775 94.1974 28.91 95.5513C29.8401 96.2386 31.069 96.4914 32.0547 97.0352C33.194 97.6637 34.3518 98.2333 35.5949 98.5971C38.3936 99.4161 41.108 101.125 44.0864 101.372C45.9568 101.526 47.8287 101.927 49.775 101.769C51.1577 101.656 52.5049 102.099 53.8722 101.986C54.8814 101.902 55.8524 101.994 56.8632 102.089L56.9096 102.093C58.9802 102.288 60.6802 101.544 62.3756 100.464C63.326 99.8586 64.4499 99.3825 64.9992 98.3685C65.3739 97.6767 65.8797 96.9105 66.3047 96.2013C66.9087 95.1933 66.7007 94.3651 66.8325 93.2572C66.9544 92.2331 67.2358 91.1987 67.2749 90.179L67.2773 90.1151C67.3193 89.0125 67.3854 87.2763 67.882 89.2581C68.0441 89.9049 68.3811 90.8162 68.2288 91.5036C67.8178 93.3577 66.843 94.971 66.3884 96.7764C65.6959 99.5265 68.301 103.754 71.0091 104.719C73.7337 105.69 76.8278 105.774 79.8086 105.758C81.0502 105.751 82.3104 105.734 83.5319 105.931C84.3751 106.066 85.0125 105.729 85.8222 105.728C86.7979 105.728 88.7129 104.326 89.5301 103.806L92.7481 101.755C97.1161 98.9721 101.306 95.9944 105.076 92.5024C106.162 91.4964 107.834 89.8523 108.379 88.4654C108.536 88.0678 108.918 88.1693 108.93 87.6278C108.938 87.2373 109.325 86.8299 109.45 86.4478C109.787 85.4238 109.798 84.2698 110.177 83.2983C110.702 81.9538 111.36 78.2335 110.792 76.8423C110.183 75.3484 110.022 73.51 109.204 72.1049C108.361 70.6588 107.404 69.6572 106.342 68.4768C105.943 68.0326 105.476 67.4613 105.138 67.0468L105.112 67.0142C104.884 66.7357 104.407 66.2456 104.087 66.0962C103.766 65.9462 102.777 65.957 103.076 65.7665C104.529 64.8404 105.877 63.699 107.294 62.796C108.24 62.1932 110.491 60.9006 110.622 59.6857C110.674 59.2044 111.506 58.5121 111.636 57.9242C111.796 57.2054 112.376 56.2552 112.706 55.6088C113.211 54.6203 113.236 53.1757 113.141 52.0012C113.085 51.3096 113.034 50.1749 113.15 49.4506C113.256 48.7927 112.605 48.1126 112.563 47.4207C112.465 45.7912 110.72 43.8617 109.847 42.4908C108.931 41.0539 107.852 39.8045 106.962 38.4065C106.246 37.2836 104.935 35.6396 103.694 35.0529C102.852 34.6551 102.008 34.3274 101.189 33.8837C100.533 33.5282 99.9476 33.7312 99.3224 33.5179C98.4595 33.2235 97.0149 34.1162 96.1169 34.2564C94.9584 34.4373 93.7314 34.341 92.6032 34.6099C92.1387 34.7207 91.2745 34.9974 90.8282 34.9554C90.4933 34.9239 90.8914 34.1439 90.8896 33.9423C90.8857 33.4853 91.4181 32.3927 91.3286 32.0916C90.977 30.9089 91.0103 29.3985 90.9331 28.1176C90.7484 25.0509 87.6343 23.1992 85.9826 21.0134C85.5723 20.4704 84.9011 20.1374 84.5267 19.616C84.025 18.9174 83.2397 18.6503 82.7242 18.0938C81.5006 16.7728 80.4216 16.9789 78.8 16.6195C77.2853 16.2837 75.822 16.7326 74.337 16.4939C73.3569 16.3364 72.2648 16.3163 71.3008 16.5118C70.502 16.6739 69.5998 16.6454 68.8825 16.8587C67.9774 17.1278 66.7664 16.9964 65.9471 17.3308C65.1398 17.6602 64.1736 17.9972 63.3269 18.199C61.4711 18.6415 59.8886 19.1957 58.2717 20.226C57.5143 20.7085 56.4958 21.1474 56.0025 21.8917C55.5361 22.5954 54.608 22.9115 54.1114 23.5836C53.1018 24.95 51.3425 25.8589 50.9675 27.5504C50.862 28.0268 50.3224 29.1162 50.4657 29.5982C50.5626 29.9243 50.4741 30.0408 50.4387 30.3695Z" fill="#FEF2DB"/>
<path d="M53.2221 36.1681C52.1393 34.4686 51.0314 33.0896 50.8334 31.1863C50.8031 30.8949 50.4077 30.6569 50.4387 30.3695C50.4741 30.0408 50.5626 29.9243 50.4657 29.5982C50.3224 29.1162 50.862 28.0268 50.9675 27.5504C51.3425 25.8589 53.1018 24.95 54.1114 23.5836C54.608 22.9115 55.5361 22.5954 56.0025 21.8917C56.4958 21.1474 57.5143 20.7085 58.2717 20.226C59.8886 19.1957 61.4711 18.6415 63.3269 18.199C64.1736 17.9972 65.1398 17.6602 65.9471 17.3308C66.7664 16.9964 67.9774 17.1278 68.8825 16.8587C69.5998 16.6454 70.502 16.6739 71.3008 16.5118C72.2648 16.3163 73.3569 16.3364 74.337 16.4939C75.822 16.7326 77.2853 16.2837 78.8 16.6195C80.4216 16.9789 81.5006 16.7728 82.7242 18.0938C83.2397 18.6503 84.025 18.9174 84.5267 19.616C84.9011 20.1374 85.5723 20.4704 85.9826 21.0134C87.6343 23.1992 90.7484 25.0509 90.9331 28.1176C91.0103 29.3985 90.977 30.9089 91.3286 32.0916C91.4181 32.3927 90.8857 33.4853 90.8896 33.9423C90.8914 34.1439 90.4933 34.9239 90.8282 34.9554C91.2745 34.9974 92.1387 34.7207 92.6032 34.6099C93.7315 34.341 94.9584 34.4373 96.1169 34.2564C97.0149 34.1162 98.4595 33.2235 99.3224 33.5179C99.9476 33.7312 100.533 33.5282 101.189 33.8837C102.008 34.3274 102.852 34.6551 103.694 35.0529C104.935 35.6396 106.246 37.2836 106.962 38.4065C107.852 39.8045 108.931 41.0539 109.847 42.4908C110.72 43.8617 112.465 45.7912 112.563 47.4207C112.605 48.1126 113.256 48.7927 113.15 49.4506C113.034 50.1749 113.085 51.3096 113.141 52.0012C113.236 53.1757 113.211 54.6203 112.706 55.6088C112.376 56.2551 111.796 57.2054 111.636 57.9242C111.506 58.5121 110.674 59.2044 110.622 59.6857C110.491 60.9006 108.24 62.1932 107.294 62.796C105.877 63.699 104.529 64.8404 103.076 65.7665C102.777 65.957 103.766 65.9462 104.087 66.0962C104.407 66.2456 104.884 66.7357 105.112 67.0142C105.452 67.4309 105.932 68.0208 106.342 68.4768C107.404 69.6572 108.361 70.6588 109.204 72.1049C110.022 73.51 110.183 75.3484 110.792 76.8423C111.36 78.2335 110.702 81.9538 110.177 83.2983C109.798 84.2698 109.787 85.4238 109.45 86.4478C109.325 86.8299 108.938 87.2373 108.93 87.6278C108.918 88.1693 108.536 88.0678 108.379 88.4654C107.834 89.8523 106.162 91.4964 105.076 92.5024C101.306 95.9944 97.1162 98.9721 92.7481 101.755C91.6754 102.439 90.6027 103.122 89.5301 103.806C88.7129 104.326 86.7979 105.728 85.8222 105.728C85.0125 105.729 84.3751 106.066 83.5319 105.931C82.3104 105.734 81.0502 105.751 79.8086 105.758C76.8278 105.774 73.7337 105.69 71.0091 104.719C68.301 103.754 65.6959 99.5265 66.3884 96.7764C66.843 94.971 67.8178 93.3577 68.2288 91.5036C68.3811 90.8162 68.0441 89.9049 67.882 89.2581C67.3757 87.2375 67.3169 89.0818 67.2749 90.179C67.2358 91.1987 66.9544 92.2331 66.8325 93.2572C66.7007 94.3651 66.9087 95.1933 66.3047 96.2013C65.8797 96.9105 65.3739 97.6767 64.9992 98.3685C64.4499 99.3825 63.326 99.8586 62.3756 100.464C60.6802 101.544 58.9802 102.288 56.9096 102.093C55.8821 101.996 54.8968 101.901 53.8722 101.986C52.5049 102.099 51.1577 101.656 49.775 101.769C47.8287 101.927 45.9568 101.526 44.0864 101.372C41.108 101.125 38.3936 99.4161 35.5949 98.5971C34.3518 98.2333 33.194 97.6637 32.0547 97.0352C31.069 96.4914 29.8401 96.2386 28.91 95.5513C27.0775 94.1974 25.9782 92.8239 24.7645 90.9189C23.5747 89.0514 22.5185 87.4541 22.3947 85.2024C22.2603 82.7557 22.5708 80.598 23.086 78.2739C23.8812 74.6861 27.7404 71.3494 30.7449 69.4352C33.2328 67.85 30.0688 68.9406 29.2739 68.2359C28.2129 67.2956 26.5143 67.6046 25.3721 66.9201C21.9933 64.8954 18.2415 60.6545 17.6477 56.5718C17.4125 54.9545 17.3382 53.2789 17.206 51.6377C17.1399 50.8175 17.127 49.9922 17.2494 49.1907C17.3495 48.5347 17.6438 47.4741 17.6139 46.8534C17.5532 45.5941 19.1583 42.1777 20.1004 41.4359C20.4695 41.1453 20.4421 40.694 20.8051 40.4214C21.2434 40.0923 21.8119 39.5599 22.1549 39.1373C22.8718 38.2538 24.3362 37.3233 25.3036 36.7069C27.0198 35.6134 28.6513 34.7306 30.5037 33.8964C31.7047 33.3555 33.2435 32.3146 34.5358 32.1129C35.8931 31.901 37.1186 31.1637 38.4687 30.8639C39.6551 30.6004 41.2719 29.5887 42.4839 29.7195C43.0791 29.7837 44.4632 29.1545 45.0767 28.9315C45.8239 28.6599 46.5422 28.8432 47.2552 28.8003C48.9268 28.6996 50.0215 29.8133 50.8781 31.1578" stroke="black" stroke-width="3" stroke-linecap="round"/>
<path d="M59.6543 83.3654C59.5084 84.1326 59.9272 82.4595 59.9511 83.2369C61.4471 82.4306 66.043 83.3386 67.7493 83.2359C69.0157 83.1597 70.2987 82.919 71.6089 82.8788C72.6736 82.8461 73.6897 83.292 74.7223 83.2603C78.412 83.1469 77.9323 88.5098 78.0099 91.0329C78.0651 92.8297 76.1984 94.1999 76.2567 96.0973C76.2844 96.9999 76.2052 97.769 77.2614 97.7366L79.7643 97.6597C83.6087 97.5416 86.307 96.5277 87.8453 92.7588C88.4786 91.207 89.4853 88.9545 91.1102 90.7365C92.221 91.9546 93.6665 93.2806 95.0749 94.2334C96.2235 95.0104 96.7635 95.6946 96.7093 93.9313L96.643 91.7727L96.5038 87.2437C96.4569 85.7167 96.0643 84.9924 95.4405 83.6974C94.9259 82.6293 93.4947 80.8359 92.4722 80.276C91.3385 79.6551 90.3382 78.192 89.4669 77.3726C88.7506 76.699 88.2007 74.9824 89.4214 74.1663C90.4034 73.5098 91.7559 72.148 92.9326 71.9641C93.3843 71.8935 94.0456 71.3906 94.4717 71.148C95.0065 70.8434 95.6788 71.0058 96.1786 70.6183C97.0053 69.9774 97.0099 70.3712 96.2553 69.6616C95.8458 69.2766 94.8953 69.2663 94.3296 69.111C92.9042 68.7199 91.4716 68.6686 89.9697 68.7148C88.5241 68.7592 86.8269 68.7007 85.7556 69.613C84.9491 70.2999 83.4206 71.031 83.1422 72.1323C83.1333 72.1676 82.2664 73.3674 82.1235 73.4891C81.6532 73.8896 81.358 74.5738 80.9924 75.0747C80.5175 75.7257 80.5161 76.5368 79.5714 75.8474C79.0618 75.4757 78.2622 75.3825 77.6516 75.0581C74.4589 73.3616 71.2204 74.1775 67.8642 74.8949C66.378 75.2125 64.3353 76.0826 63.1458 77.0679C61.9966 78.0198 60.4779 79.8441 60.2803 81.3048C60.1935 81.9465 59.7832 82.6881 59.6543 83.3654Z" fill="#F8BD7D" stroke="black" stroke-linecap="round"/>
<path d="M45.4431 62.6368C44.9592 61.562 44.7614 60.5013 44.8497 59.4549C44.9333 58.3981 45.2838 57.4511 45.9012 56.6139C46.5243 55.7617 47.3629 55.0983 48.417 54.6238C49.7088 54.0423 50.9681 53.8856 52.1949 54.1536C53.4218 54.4217 54.4554 55.075 55.2957 56.1135L52.3814 57.4254C51.9597 57.0684 51.4938 56.8618 50.9838 56.8055C50.484 56.7446 49.981 56.8281 49.4746 57.0561C48.6582 57.4236 48.1247 58.0055 47.8742 58.8019C47.6236 59.5982 47.7124 60.4718 48.1404 61.4226C48.5684 62.3733 49.1635 63.0189 49.9257 63.3594C50.688 63.6998 51.4773 63.6863 52.2938 63.3188C52.8002 63.0908 53.1962 62.7696 53.4819 62.3551C53.778 61.936 53.9322 61.4502 53.9445 60.8978L56.8588 59.5859C57.0791 60.9036 56.8829 62.1105 56.2702 63.2067C55.6528 64.2924 54.6982 65.1261 53.4064 65.7076C52.3523 66.1821 51.302 66.3753 50.2555 66.287C49.2148 66.1838 48.2735 65.8183 47.4316 65.1906C46.5897 64.5628 45.9269 63.7115 45.4431 62.6368ZM64.1432 60.9117C63.3475 61.2699 62.5762 61.4617 61.8295 61.4871C61.0828 61.5125 60.4043 61.3581 59.794 61.0239C59.194 60.6849 58.7231 60.1636 58.3815 59.4598L61.2028 58.1898C61.4256 58.5742 61.7046 58.8215 62.04 58.9315C62.3708 59.0312 62.7273 58.995 63.1097 58.8228C63.5024 58.6461 63.7729 58.4186 63.9212 58.1406C64.0648 57.8522 64.0645 57.5479 63.9203 57.2275C63.7993 56.9588 63.6063 56.7785 63.3412 56.6865C63.0864 56.5899 62.7991 56.5453 62.4792 56.5525C62.1697 56.5552 61.7395 56.5935 61.1887 56.6674C60.3882 56.7667 59.717 56.8079 59.1749 56.7909C58.6328 56.7739 58.1062 56.6257 57.5951 56.3462C57.084 56.0667 56.6749 55.5859 56.3679 54.9038C55.912 53.8911 55.923 52.9353 56.4008 52.0366C56.8741 51.1276 57.6998 50.4079 58.8779 49.8776C60.0767 49.3379 61.1732 49.1923 62.1675 49.4407C63.1571 49.6788 63.9081 50.2978 64.4203 51.2977L61.5525 52.5886C61.3736 52.2466 61.1211 52.0309 60.7951 51.9415C60.4643 51.8418 60.1129 51.8757 59.7409 52.0432C59.4205 52.1874 59.2017 52.3915 59.0844 52.6556C58.9625 52.9093 58.9737 53.1964 59.1179 53.5168C59.276 53.8681 59.5647 54.0676 59.9838 54.1151C60.4029 54.1626 61.015 54.1418 61.8201 54.0528C62.6298 53.9742 63.3005 53.9457 63.8323 53.9673C64.3744 53.9843 64.8986 54.1274 65.4051 54.3965C65.9115 54.6657 66.3113 55.1258 66.6044 55.7769C66.8835 56.397 66.9769 57.0323 66.8845 57.6829C66.8024 58.3289 66.5291 58.9366 66.0646 59.5061C65.6001 60.0757 64.9596 60.5442 64.1432 60.9117ZM73.6805 56.6185C72.8847 56.9767 72.1135 57.1685 71.3668 57.1939C70.62 57.2193 69.9415 57.0649 69.3312 56.7307C68.7312 56.3917 68.2604 55.8704 67.9187 55.1666L70.74 53.8966C70.9628 54.281 71.2419 54.5283 71.5773 54.6383C71.908 54.738 72.2646 54.7018 72.6469 54.5296C73.0396 54.3529 73.3101 54.1254 73.4584 53.8474C73.602 53.559 73.6017 53.2547 73.4575 52.9343C73.3366 52.6656 73.1435 52.4853 72.8784 52.3933C72.6237 52.2967 72.3363 52.2521 72.0165 52.2593C71.7069 52.262 71.2767 52.3003 70.7259 52.3742C69.9254 52.4735 69.2542 52.5147 68.7121 52.4977C68.17 52.4807 67.6434 52.3325 67.1323 52.053C66.6212 51.7735 66.2121 51.2927 65.9051 50.6106C65.4492 49.5979 65.4602 48.6421 65.9381 47.7434C66.4113 46.8344 67.237 46.1147 68.4151 45.5844C69.6139 45.0447 70.7105 44.8991 71.7047 45.1475C72.6944 45.3856 73.4453 46.0046 73.9575 47.0045L71.0897 48.2954C70.9108 47.9534 70.6584 47.7376 70.3323 47.6483C70.0016 47.5486 69.6502 47.5825 69.2781 47.75C68.9578 47.8942 68.7389 48.0983 68.6217 48.3624C68.4997 48.6161 68.5109 48.9032 68.6551 49.2236C68.8133 49.5749 69.1019 49.7744 69.521 49.8219C69.9401 49.8694 70.5522 49.8486 71.3573 49.7596C72.167 49.681 72.8378 49.6525 73.3695 49.6741C73.9116 49.6911 74.4359 49.8342 74.9423 50.1033C75.4488 50.3725 75.8485 50.8326 76.1416 51.4837C76.4208 52.1038 76.5141 52.7391 76.4217 53.3897C76.3396 54.0357 76.0663 54.6434 75.6018 55.2129C75.1373 55.7825 74.4969 56.251 73.6805 56.6185Z" fill="black"/>
</svg>
