<svg width="126" height="123" viewBox="0 0 126 123" fill="none" xmlns="http://www.w3.org/2000/svg">
<path d="M63.8073 37.5012C62.3301 38.7475 62.2657 40.1078 62.0037 41.7743C60.8123 40.0561 57.7747 37.5713 57.1586 36.8412C55.2686 34.6011 53.2814 33.7974 50.5295 33.4232C47.6527 33.032 44.5434 32.8585 41.5119 33.4586C38.1002 34.134 35.5781 35.6259 32.4071 36.8935C29.6232 38.0064 26.5507 39.8122 24.2537 41.7503C22.2865 43.4102 18.467 45.5896 17.3445 47.8945C16.8294 48.9523 16.1073 50.2681 15.4823 51.196C14.6418 52.444 14.3119 54.5577 13.8557 56.0067C13.528 57.0474 13.375 58.7577 12.766 59.5553C12.3967 60.0389 12.4485 61.3629 12.2624 61.9802C12.1241 62.4392 11.5113 64.3738 11.6698 64.7274C12.2598 66.0432 11.1212 67.4518 11.3517 68.816C11.6273 70.4472 11.5351 71.8439 12.0456 73.489C12.4533 74.803 14.2596 76.929 15.3631 77.7686C16.6604 78.7557 18.3984 78.9784 19.5775 79.8756C20.1142 80.284 22.8033 80.8361 23.5112 80.7139C25.0058 80.456 26.5158 81.1334 28.0322 81.2589C31.0559 81.5091 34.1623 80.34 37.1834 79.9647C39.4574 79.6822 37.2773 82.1117 36.7281 83.3826C36.0414 84.9716 35.5941 86.1754 35.4441 87.9042C35.1722 91.0376 34.1999 96.2701 36.4862 98.9799C38.7213 101.629 41.105 103.963 44.2365 105.385C45.556 105.983 46.6752 106.437 48.1344 106.635C49.9149 106.877 52.4099 106.619 54.0707 107.199C54.7559 107.439 55.7147 107.207 56.4381 107.224C57.0592 107.239 58.1968 107.397 58.7529 107.294C59.4659 107.162 60.3551 106.951 61.0792 106.949C61.6904 106.947 63.8028 106.509 64.3318 106.205C65.6582 105.442 67.5246 105.192 69.0101 104.797C70.6345 104.365 72.4242 102.875 74.0631 102.87C75.8973 102.865 78.3595 100.764 79.9364 99.9374C81.7413 98.9908 83.1989 97.5892 84.7618 96.2705C87.3117 94.1191 90.2103 91.5495 91.9982 88.7492C92.5141 87.9411 93.7283 87.4843 94.0657 86.6002C94.2823 86.0326 95.2752 85.0038 95.7304 84.5889C96.3737 84.0026 96.905 83.5905 97.3499 82.818C97.7549 82.1146 98.5349 81.6975 98.8986 81.0169C100.247 78.4937 103.577 76.3088 104.131 73.3664C104.325 72.3332 105.886 70.2904 106.609 69.3444L106.66 69.2775C107.426 68.2743 108.425 66.1537 108.685 64.9394C109.368 61.7496 109.912 58.5428 110.203 55.1866C110.249 54.6548 110.697 53.37 110.487 52.9023C110.3 52.4855 109.83 51.2556 109.971 50.8205C110.192 50.1386 109.02 48.4399 108.83 47.649C108.491 46.2394 107.289 45.0901 107.021 43.7141C106.738 42.257 105.463 41.1004 105.061 39.7055C104.398 37.4103 102.045 34.75 99.9241 33.7247C99.2314 33.3899 98.642 32.8235 97.9397 32.5226C97.2067 32.2086 95.6993 31.8441 95.1264 31.3008C94.368 30.5816 92.4594 30.8308 91.7094 30.1389C91.3009 29.7621 88.5699 29.4417 88.1227 29.5247C87.2764 29.6817 85.0178 29.718 84.1986 29.4198C83.2579 29.0774 81.2361 29.6693 80.3011 29.8544C79.1306 30.0861 77.8463 30.7119 76.6704 30.8728C75.8433 30.9859 75.2165 31.4125 74.436 31.567C73.8801 31.6771 72.3698 32.342 71.9211 32.6777C70.681 33.6055 68.7589 33.7277 67.5651 34.735C66.4354 35.6882 65.0051 36.4905 63.8073 37.5012Z" fill="#FEF2DB"/>
<path d="M61.8058 42.8303C62.2979 40.6656 62.0298 39.0008 63.8073 37.5012C65.0051 36.4905 66.4354 35.6882 67.5651 34.735C68.7589 33.7277 70.681 33.6055 71.9211 32.6777C72.3698 32.342 73.8801 31.6771 74.436 31.567C75.2165 31.4125 75.8433 30.9859 76.6704 30.8728C77.8463 30.7119 79.1306 30.0861 80.3011 29.8544C81.2361 29.6693 83.2579 29.0774 84.1986 29.4198C85.0178 29.718 87.2764 29.6817 88.1227 29.5247C88.5699 29.4417 91.3009 29.7621 91.7094 30.1389C92.4594 30.8308 94.368 30.5816 95.1264 31.3008C95.6993 31.8441 97.2066 32.2086 97.9397 32.5226C98.642 32.8235 99.2314 33.3899 99.9241 33.7247C102.045 34.75 104.398 37.4103 105.061 39.7055C105.463 41.1004 106.738 42.257 107.021 43.7141C107.289 45.0901 108.491 46.2394 108.83 47.649C109.02 48.4399 110.192 50.1386 109.971 50.8205C109.83 51.2556 110.3 52.4855 110.487 52.9023C110.697 53.37 110.249 54.6548 110.203 55.1866C109.912 58.5428 109.368 61.7496 108.685 64.9394C108.425 66.1537 107.426 68.2743 106.66 69.2775C105.963 70.1907 104.33 72.3081 104.131 73.3664C103.577 76.3088 100.247 78.4937 98.8986 81.0169C98.5349 81.6975 97.7549 82.1146 97.3499 82.818C96.905 83.5905 96.3737 84.0026 95.7304 84.5889C95.2752 85.0038 94.2823 86.0326 94.0657 86.6002C93.7283 87.4843 92.5141 87.9411 91.9982 88.7492C90.2103 91.5495 87.3117 94.1191 84.7618 96.2705C83.1989 97.5892 81.7413 98.9908 79.9364 99.9374C78.3595 100.764 75.8973 102.865 74.0631 102.87C72.4242 102.875 70.6345 104.365 69.0101 104.797C67.5246 105.192 65.6582 105.442 64.3318 106.205C63.8028 106.509 61.6904 106.947 61.0792 106.949C60.3551 106.951 59.4659 107.162 58.7529 107.294C58.1968 107.397 57.0592 107.239 56.4381 107.224C55.7147 107.207 54.7559 107.439 54.0707 107.199C52.4099 106.619 49.9149 106.877 48.1344 106.635C46.6752 106.437 45.556 105.983 44.2365 105.385C41.105 103.963 38.7213 101.629 36.4862 98.9799C34.1999 96.2701 35.1722 91.0376 35.4441 87.9042C35.5941 86.1754 36.0414 84.9716 36.7281 83.3826C37.2773 82.1117 39.4574 79.6822 37.1834 79.9647C34.1623 80.34 31.0559 81.5091 28.0322 81.2589C26.5158 81.1334 25.0058 80.456 23.5112 80.7139C22.8033 80.8361 20.1142 80.284 19.5775 79.8756C18.3984 78.9784 16.6604 78.7557 15.3631 77.7686C14.2596 76.929 12.4533 74.803 12.0456 73.489C11.5351 71.8439 11.6273 70.4472 11.3517 68.816C11.1212 67.4518 12.2598 66.0432 11.6698 64.7274C11.5113 64.3738 12.1241 62.4392 12.2624 61.9802C12.4485 61.3629 12.3967 60.0389 12.766 59.5553C13.375 58.7577 13.528 57.0474 13.8557 56.0067C14.3119 54.5577 14.6418 52.444 15.4823 51.196C16.1073 50.2681 16.8294 48.9523 17.3445 47.8945C18.467 45.5896 22.2865 43.4101 24.2537 41.7503C26.5507 39.8122 29.6232 38.0064 32.4071 36.8935C35.5781 35.6259 38.1002 34.134 41.5119 33.4586C44.5434 32.8585 47.6527 33.032 50.5295 33.4232C53.2814 33.7974 55.2686 34.6011 57.1586 36.8412C57.9712 37.8042 62.9963 41.8195 62.4418 43.1027" stroke="black" stroke-width="3" stroke-linecap="round"/>
<path d="M52.3689 84.9981C50.612 88.8377 50.3289 87.9105 49.387 92.0533C51.8516 89.9739 54.2129 87.8749 57.0103 86.4078C57.8764 85.9535 59.7989 85.1244 60.7548 85.2035C61.8887 85.2973 63.7857 85.1649 64.868 84.6768C65.2087 84.5232 67.9107 86.0903 68.2303 86.4691C69.2981 87.7347 70.3959 88.8051 71.5577 89.9314C73.4799 91.7948 73.4284 89.2105 73.3937 87.7755C73.3592 86.3475 72.2439 84.6022 71.8737 83.1929C71.1803 80.5538 68.6696 77.7381 66.1956 76.8376C64.0335 76.0506 60.2133 76.4469 58.4148 77.9643C55.9835 80.0157 53.6681 82.1585 52.3689 84.9981Z" fill="#F08E55" stroke="black" stroke-linecap="round"/>
<path d="M83.7299 31.1343C83.1568 31.2541 82.5916 31.4334 81.9886 31.5353C82.3432 31.6602 82.7576 31.7478 83.0659 31.8296C83.7516 32.0114 84.3387 31.9994 85.0908 32.1772C86.1095 32.4181 87.2784 32.6203 88.2149 33.0928C89.3008 33.6408 90.4098 34.2454 91.5045 34.7619C93.315 35.6163 95.0997 37.1988 96.3856 38.7228C97.8157 40.4178 99.558 42.2644 100.383 44.3222C100.86 45.5117 101.614 46.567 101.946 47.8217C102.321 49.2348 102.62 50.617 102.815 52.0943C103.206 55.0587 102.843 58.0817 102.056 61.0005C101.363 63.5736 100.885 66.0495 99.7873 68.5225C99.1712 69.9105 98.5034 71.2743 97.8892 72.6578C97.2766 74.0379 96.323 75.2134 95.5449 76.505C94.6849 77.9326 93.5548 79.1694 92.5793 80.5026C91.8347 81.5202 91.2475 82.6003 90.4246 83.5356C89.7322 84.3225 89.0714 85.2983 88.5035 86.1742C87.7742 87.2991 86.6587 88.2255 85.8745 89.3166C84.9545 90.5965 83.2594 91.6269 82.0545 92.6435L81.9839 92.7031C80.912 93.6076 79.8577 94.4972 78.7081 95.2904C77.7091 95.9797 76.8649 96.8616 75.8499 97.5151C75.1496 97.9659 74.2761 98.9231 73.4956 99.1588C72.8804 99.3445 72.3873 100.375 71.7017 100.402C71.3838 100.415 71.1224 100.746 70.8745 100.955C70.6188 101.171 70.2212 101.155 69.9597 101.353C69.3939 101.78 68.6718 101.928 68.1098 102.353C67.7072 102.657 67.0687 102.988 67.565 103.023C67.9701 103.051 68.2953 103.107 68.5705 102.899C68.8893 102.658 69.2275 102.59 69.6189 102.43C70.2384 102.177 71.2835 101.484 71.9377 101.366C74.4935 100.905 77.076 100.086 79.0256 98.4414C80.3545 97.3203 83.0169 96.4114 84.0705 95.033C85.1379 93.6365 86.4704 92.6494 87.5238 91.2713C89.1871 89.0952 90.575 87.8478 92.195 85.6339C92.5234 85.185 94.8553 83.9006 94.1853 83.1065L95.18 82.2672C96.241 81.3721 96.8644 80.1619 97.8021 79.1802C99.614 77.283 101.286 75.2661 102.781 73.1104C105.251 69.5478 106.709 65.1208 107.548 60.9468C108.006 58.6652 109.128 56.3645 108.894 54.0163C108.752 52.593 108.756 51.1887 108.529 49.7449C108.421 49.0603 108.372 48.3413 108.327 47.6306C108.309 47.3435 108.404 46.7097 108.299 46.4702C108.117 46.0568 107.866 45.6044 107.747 45.1703C107.386 43.8491 105.722 42.4916 104.844 41.4511C102.671 38.8755 101.046 35.5623 97.9755 34.1133C97.3866 33.8355 95.9821 33.8854 95.4451 33.5036C94.9311 33.1381 93.7812 32.5592 93.1691 32.5163C92.5797 32.4749 92.0297 31.837 91.4342 31.8409C90.8456 31.8447 90.0424 31.289 89.5165 31.3923C89.0424 31.4855 88.0742 31.1841 87.5938 31.0519C87.1084 30.9183 86.2421 30.9265 85.743 31.0246C85.0976 31.1515 84.391 30.9962 83.7299 31.1343Z" fill="#F8BD7D"/>
<path d="M81.5217 31.5956C82.3054 31.5282 83.0114 31.2844 83.7299 31.1343C84.391 30.9962 85.0976 31.1515 85.743 31.0246C86.2421 30.9265 87.1084 30.9183 87.5938 31.0519C88.0742 31.1841 89.0424 31.4855 89.5165 31.3923C90.0424 31.289 90.8456 31.8447 91.4342 31.8409C92.0297 31.837 92.5797 32.4749 93.1691 32.5163C93.7812 32.5592 94.9311 33.1381 95.4451 33.5036C95.9821 33.8854 97.3866 33.8355 97.9755 34.1133C101.046 35.5623 102.671 38.8755 104.844 41.4511C105.722 42.4917 107.386 43.8491 107.747 45.1703C107.866 45.6044 108.117 46.0568 108.299 46.4702C108.404 46.7097 108.309 47.3435 108.327 47.6306C108.372 48.3413 108.421 49.0603 108.529 49.7449C108.756 51.1887 108.752 52.593 108.894 54.0163C109.128 56.3645 108.006 58.6652 107.548 60.9468C106.709 65.1208 105.251 69.5478 102.781 73.1104C101.286 75.2661 99.614 77.283 97.8021 79.1802C96.8644 80.1619 96.241 81.3721 95.18 82.2672C94.7128 82.6614 98.2208 79.7016 94.1853 83.1065C94.8553 83.9006 92.5234 85.185 92.195 85.6339C90.575 87.8478 89.1871 89.0952 87.5238 91.2713C86.4704 92.6494 85.1379 93.6365 84.0705 95.033C83.0169 96.4114 80.3545 97.3203 79.0256 98.4414C77.076 100.086 74.4935 100.905 71.9377 101.366C71.2835 101.484 70.2384 102.177 69.6189 102.43C69.2275 102.59 68.8893 102.658 68.5705 102.899C68.2953 103.107 67.9701 103.051 67.565 103.023C67.0687 102.988 67.7072 102.657 68.1098 102.353C68.6718 101.928 69.3939 101.78 69.9597 101.353C70.2212 101.155 70.6188 101.171 70.8745 100.955C71.1224 100.746 71.3838 100.415 71.7017 100.402C72.3873 100.375 72.8804 99.3445 73.4956 99.1588C74.2761 98.9231 75.1496 97.9659 75.8499 97.5151C76.8649 96.8616 77.7091 95.9797 78.7081 95.2904C79.8829 94.4798 80.9582 93.5685 82.0545 92.6435C83.2594 91.6269 84.9545 90.5965 85.8745 89.3166C86.6587 88.2255 87.7742 87.2991 88.5035 86.1742C89.0714 85.2983 89.7322 84.3225 90.4246 83.5356C91.2475 82.6003 91.8347 81.5202 92.5793 80.5026C93.5548 79.1694 94.6849 77.9326 95.5449 76.505C96.323 75.2134 97.2766 74.0379 97.8892 72.6578C98.5034 71.2743 99.1712 69.9105 99.7873 68.5225C100.885 66.0495 101.363 63.5736 102.056 61.0005C102.843 58.0817 103.206 55.0587 102.815 52.0943C102.62 50.617 102.321 49.2348 101.946 47.8217C101.614 46.567 100.86 45.5117 100.383 44.3222C99.558 42.2644 97.8157 40.4178 96.3856 38.7228C95.0997 37.1988 93.315 35.6163 91.5044 34.7619C90.4098 34.2454 89.3008 33.6408 88.2149 33.0928C87.2784 32.6203 86.1095 32.4181 85.0908 32.1772C84.3387 31.9994 83.7516 32.0114 83.0659 31.8296C82.5238 31.6858 81.6535 31.5238 81.3577 31.1732" stroke="url(#paint0_diamond_28_605)" stroke-opacity="0.72" stroke-linecap="round"/>
<path d="M33.2099 49.9949L32.0911 55.6208C31.9179 56.4917 31.5372 57.1144 30.9488 57.4888C30.3684 57.8648 29.662 57.9717 28.8296 57.8095C27.958 57.6397 27.3083 57.2564 26.8805 56.6596C26.4527 56.0628 26.3293 55.3093 26.5102 54.3992L28.5126 54.7892C28.444 55.1345 28.4624 55.4111 28.5678 55.6191C28.6748 55.8192 28.8618 55.9453 29.1288 55.9973C29.3722 56.0447 29.5763 56.003 29.741 55.8721C29.9057 55.7411 30.0177 55.5266 30.077 55.2284L31.1957 49.6026L33.2099 49.9949ZM33.4486 55.2006C33.5828 54.5258 33.8263 53.9579 34.179 53.4968C34.5395 53.0373 34.967 52.713 35.4613 52.5241C35.9556 52.3351 36.4737 52.2934 37.0155 52.3989C37.4788 52.4892 37.8645 52.6621 38.1726 52.9177C38.4885 53.1749 38.7102 53.4748 38.8378 53.8175L39.0227 52.8877L41.0369 53.2801L39.7309 59.8475L37.7168 59.4551L37.9017 58.5253C37.6445 58.7931 37.3205 58.9867 36.9297 59.1062C36.5467 59.2272 36.1236 59.2426 35.6603 59.1524C35.1264 59.0483 34.6668 58.8162 34.2817 58.4559C33.8981 58.0878 33.6275 57.6235 33.4698 57.063C33.3215 56.4962 33.3144 55.8754 33.4486 55.2006ZM38.3697 56.1714C38.4696 55.6693 38.4071 55.2455 38.1821 54.9001C37.965 54.5563 37.6562 54.3453 37.2557 54.2673C36.8553 54.1893 36.4848 54.2679 36.1444 54.5032C35.8134 54.7321 35.598 55.0977 35.4981 55.5998C35.3982 56.102 35.4561 56.5289 35.6716 56.8806C35.8966 57.226 36.2093 57.4377 36.6098 57.5157C37.0102 57.5937 37.3768 57.5143 37.7093 57.2776C38.0497 57.0423 38.2699 56.6736 38.3697 56.1714ZM44.5189 58.8241L46.8757 54.4175L49.0194 54.8351L45.3812 60.9482L42.8959 60.464L41.8698 53.4423L44.0252 53.8622L44.5189 58.8241ZM48.816 58.1941C48.9502 57.5193 49.1937 56.9514 49.5464 56.4903C49.9069 56.0308 50.3343 55.7066 50.8287 55.5176C51.323 55.3286 51.8411 55.2869 52.3829 55.3925C52.8462 55.4827 53.2319 55.6556 53.54 55.9113C53.8559 56.1684 54.0776 56.4683 54.2052 56.8111L54.3901 55.8813L56.4043 56.2736L55.0983 62.841L53.0842 62.4487L53.2691 61.5189C53.0119 61.7867 52.6879 61.9803 52.2971 62.0998C51.9141 62.2208 51.491 62.2361 51.0277 62.1459C50.4938 62.0419 50.0342 61.8097 49.6491 61.4494C49.2655 61.0813 48.9949 60.617 48.8372 60.0565C48.6889 59.4897 48.6818 58.8689 48.816 58.1941ZM53.7371 59.165C53.837 58.6628 53.7745 58.239 53.5495 57.8936C53.3324 57.5498 53.0236 57.3389 52.6231 57.2609C52.2227 57.1828 51.8522 57.2615 51.5118 57.4967C51.1808 57.7256 50.9654 58.0912 50.8655 58.5934C50.7656 59.0955 50.8235 59.5225 51.039 59.8742C51.264 60.2195 51.5767 60.4312 51.9772 60.5092C52.3776 60.5873 52.7442 60.5079 53.0767 60.2711C53.4171 60.0358 53.6373 59.6671 53.7371 59.165ZM59.2105 63.7399C58.6372 63.6282 58.1463 63.4307 57.7378 63.1474C57.3292 62.864 57.0289 62.5284 56.8368 62.1405C56.6464 61.7448 56.5775 61.332 56.6304 60.9022L58.621 61.29C58.5993 61.5221 58.6686 61.7271 58.829 61.9051C58.9894 62.083 59.207 62.1988 59.4818 62.2523C59.7331 62.3013 59.9348 62.2917 60.087 62.2235C60.2487 62.149 60.3451 62.0333 60.3763 61.8764C60.4137 61.6881 60.3429 61.5317 60.1637 61.4071C59.9862 61.2747 59.6884 61.1108 59.2705 60.9153C58.8212 60.7136 58.4512 60.5234 58.1605 60.3445C57.8714 60.1578 57.6387 59.9128 57.4625 59.6095C57.2878 59.2983 57.245 58.9192 57.3339 58.4719C57.4088 58.0953 57.5787 57.7739 57.8438 57.5076C58.1182 57.2351 58.4736 57.0476 58.9099 56.9451C59.3542 56.8442 59.855 56.848 60.4125 56.9566C61.237 57.1172 61.8443 57.4474 62.2343 57.9472C62.6322 58.4485 62.7993 59.0435 62.7358 59.732L60.8748 59.3695C60.8886 59.1358 60.8224 58.9355 60.6762 58.7684C60.5378 58.6029 60.3312 58.4934 60.0564 58.4399C59.8208 58.394 59.6309 58.4059 59.4865 58.4756C59.3437 58.5374 59.2567 58.6468 59.2255 58.8037C59.188 58.992 59.2581 59.1524 59.4357 59.2848C59.6211 59.4187 59.9165 59.574 60.3218 59.7508C60.7837 59.9712 61.1553 60.174 61.4366 60.3592C61.7194 60.5365 61.9474 60.7847 62.1205 61.1037C62.303 61.4163 62.3529 61.801 62.2703 62.2576C62.1938 62.6421 62.0153 62.9659 61.7345 63.2291C61.4632 63.4859 61.1063 63.6609 60.6636 63.754C60.2288 63.8486 59.7444 63.8439 59.2105 63.7399ZM63.3759 61.0426C63.5117 60.3599 63.7677 59.7904 64.1439 59.3339C64.528 58.879 64.9947 58.5624 65.544 58.3841C66.1012 58.2074 66.7017 58.1817 67.3456 58.3072C68.1701 58.4678 68.8143 58.8174 69.2782 59.356C69.7499 59.8962 69.9941 60.5754 70.0108 61.3937L67.8671 60.9761C67.7863 60.4387 67.4868 60.1196 66.9686 60.0186C66.5995 59.9467 66.2762 60.0345 65.9986 60.282C65.7226 60.5217 65.5315 60.9083 65.4254 61.4418C65.3193 61.9754 65.3473 62.4087 65.5094 62.7419C65.6731 63.0672 65.9395 63.2658 66.3086 63.3377C66.8268 63.4386 67.2262 63.2556 67.5067 62.7886L69.6504 63.2062C69.3247 63.9415 68.8394 64.4745 68.1945 64.8053C67.5496 65.1361 66.8189 65.222 66.0022 65.0629C65.3583 64.9375 64.8124 64.6885 64.3644 64.316C63.9244 63.945 63.6137 63.4769 63.4324 62.9119C63.259 62.3483 63.2402 61.7252 63.3759 61.0426ZM73.3574 60.713C73.6648 60.398 74.0154 60.1729 74.4093 60.0377C74.8048 59.8947 75.2185 59.8652 75.6504 59.9494L75.2268 62.0797L74.6732 61.9718C74.1706 61.8739 73.7719 61.9103 73.4769 62.0811C73.1835 62.244 72.9829 62.5962 72.8753 63.1375L72.2691 66.1859L70.255 65.7935L71.5609 59.2261L73.5751 59.6185L73.3574 60.713ZM77.7478 59.7222C77.3944 59.6534 77.1242 59.4948 76.937 59.2464C76.7593 58.9917 76.7008 58.7114 76.7617 58.4054C76.8241 58.0915 76.9855 57.854 77.2459 57.6928C77.5158 57.5253 77.8274 57.476 78.1808 57.5448C78.5263 57.6121 78.7879 57.7731 78.9656 58.0278C79.1528 58.2762 79.2151 58.5573 79.1527 58.8711C79.0919 59.1772 78.9265 59.4139 78.6567 59.5814C78.3962 59.7426 78.0933 59.7895 77.7478 59.7222ZM78.6132 60.5999L77.3072 67.1673L75.2931 66.7749L76.5991 60.2075L78.6132 60.5999ZM81.9021 62.2063C82.1592 61.9386 82.4793 61.7442 82.8622 61.6232C83.2452 61.5022 83.6683 61.4868 84.1316 61.577C84.6734 61.6826 85.1369 61.9155 85.522 62.2758C85.9071 62.6361 86.1746 63.0957 86.3245 63.6546C86.4822 64.2151 86.494 64.8328 86.3598 65.5076C86.2256 66.1824 85.9774 66.7534 85.6153 67.2208C85.2626 67.6819 84.8383 68.0108 84.3424 68.2076C83.8481 68.3966 83.33 68.4383 82.7882 68.3328C82.3327 68.244 81.9471 68.0711 81.6312 67.814C81.3231 67.5583 81.1006 67.2623 80.9635 66.9259L80.1584 70.9747L78.1443 70.5823L80.0728 60.8842L82.087 61.2766L81.9021 62.2063ZM84.3103 65.1083C84.4102 64.6062 84.3468 64.1863 84.1203 63.8488C83.9032 63.5049 83.5905 63.2932 83.1822 63.2137C82.7817 63.1357 82.4113 63.2143 82.0708 63.4495C81.7383 63.6863 81.5221 64.0558 81.4222 64.558C81.3223 65.0601 81.381 65.4831 81.5981 65.827C81.823 66.1724 82.1357 66.3841 82.5362 66.4621C82.9367 66.5401 83.3071 66.4615 83.6475 66.2262C83.9895 65.9831 84.2104 65.6105 84.3103 65.1083ZM90.7636 68.0159L90.4243 69.7224L89.3995 69.5228C88.6692 69.3806 88.1351 69.0931 87.7969 68.6605C87.4604 68.22 87.3725 67.5957 87.5332 66.7875L88.0528 64.1747L87.2518 64.0187L87.5842 62.3474L88.3851 62.5034L88.7034 60.9028L90.7176 61.2951L90.3993 62.8958L91.7185 63.1527L91.3861 64.824L90.0669 64.567L89.5426 67.2034C89.5036 67.3996 89.5227 67.55 89.5997 67.6547C89.6768 67.7593 89.8253 67.8331 90.0451 67.8759L90.7636 68.0159Z" fill="#0D0303"/>
<defs>
<radialGradient id="paint0_diamond_28_605" cx="0" cy="0" r="1" gradientUnits="userSpaceOnUse" gradientTransform="translate(79.8791 65.1414) rotate(49.8444) scale(25.0083 34.4908)">
<stop stop-color="#F8BD7D"/>
<stop offset="1" stop-color="#F8BD7D" stop-opacity="0"/>
</radialGradient>
</defs>
</svg>
