<svg width="125" height="123" viewBox="0 0 125 123" fill="none" xmlns="http://www.w3.org/2000/svg">
<path d="M62.8463 37.2636C61.3692 38.5099 61.3048 39.8702 61.0427 41.5368C59.8513 39.8185 56.8138 37.3338 56.1977 36.6036C54.3077 34.3635 52.3204 33.5598 49.5685 33.1857C46.6918 32.7945 43.5824 32.6209 40.551 33.221C37.1392 33.8965 34.6172 35.3883 31.4461 36.656C28.6622 37.7688 25.5898 39.5747 23.2928 41.5128C21.3256 43.1726 17.5061 45.3521 16.3836 47.6569C15.8684 48.7147 15.1463 50.0305 14.5214 50.9585C13.6809 52.2065 13.351 54.3201 12.8947 55.7692C12.567 56.8099 12.414 58.5202 11.8051 59.3178C11.4358 59.8014 11.4875 61.1254 11.3015 61.7426C11.1632 62.2017 10.5504 64.1363 10.7089 64.4898C11.2989 65.8057 10.1603 67.2143 10.3908 68.5785C10.6664 70.2096 10.5741 71.6064 11.0846 73.2515C11.4924 74.5655 13.2987 76.6914 14.4021 77.531C15.6995 78.5182 17.4375 78.7408 18.6166 79.638C19.1533 80.0464 21.8423 80.5985 22.5503 80.4763C24.0449 80.2184 25.5548 80.8959 27.0713 81.0213C30.0949 81.2715 33.2013 80.1025 36.2225 79.7271C38.4964 79.4446 36.3163 81.8741 35.7671 83.145C35.0805 84.734 34.6331 85.9378 34.4831 87.6666C34.2112 90.8001 33.2389 96.0325 35.5253 98.7424C37.7603 101.391 40.1441 103.726 43.2756 105.147C44.5951 105.746 45.7142 106.199 47.1735 106.397C48.9539 106.64 51.449 106.381 53.1097 106.962C53.7949 107.202 54.7538 106.97 55.4772 106.987C56.0983 107.002 57.2359 107.159 57.792 107.056C58.505 106.924 59.3942 106.714 60.1183 106.711C60.7295 106.71 62.8418 106.271 63.3709 105.967C64.6973 105.205 66.5637 104.954 68.0492 104.559C69.6736 104.127 71.4633 102.638 73.1022 102.633C74.9363 102.627 77.3986 100.527 78.9755 99.6998C80.7804 98.7532 82.238 97.3516 83.8009 96.0329C86.3507 93.8815 89.2494 91.312 91.0372 88.5116C91.5531 87.7036 92.7674 87.2468 93.1048 86.3627C93.3214 85.7951 94.3143 84.7663 94.7695 84.3513C95.4128 83.765 95.9441 83.353 96.3889 82.5805C96.794 81.8771 97.574 81.4599 97.9377 80.7794C99.2862 78.2561 102.616 76.0713 103.17 73.1288C103.364 72.0956 104.925 70.0528 105.648 69.1068L105.699 69.04C106.465 68.0368 107.464 65.9162 107.724 64.7018C108.407 61.512 108.951 58.3052 109.242 54.9491C109.288 54.4173 109.736 53.1325 109.526 52.6648C109.339 52.248 108.87 51.018 109.01 50.5829C109.231 49.901 108.059 48.2024 107.869 47.4114C107.53 46.0018 106.328 44.8525 106.06 43.4765C105.777 42.0195 104.502 40.8629 104.1 39.4679C103.437 37.1727 101.084 34.5125 98.9632 33.4872C98.2704 33.1523 97.681 32.5859 96.9787 32.2851C96.2457 31.9711 94.7384 31.6065 94.1654 31.0633C93.4071 30.3441 91.4985 30.5933 90.7484 29.9014C90.3399 29.5246 87.609 29.2042 87.1617 29.2871C86.3154 29.4441 84.0569 29.4804 83.2377 29.1823C82.2969 28.8399 80.2752 29.4317 79.3401 29.6169C78.1697 29.8486 76.8853 30.4744 75.7095 30.6352C74.8824 30.7483 74.2555 31.175 73.475 31.3295C72.9191 31.4396 71.4088 32.1045 70.9601 32.4402C69.72 33.368 67.798 33.4902 66.6042 34.4975C65.4744 35.4507 64.0441 36.253 62.8463 37.2636Z" fill="#FEF2DB"/>
<path d="M60.8449 42.5928C61.337 40.4281 61.0689 38.7633 62.8463 37.2636C64.0441 36.253 65.4744 35.4507 66.6042 34.4975C67.798 33.4902 69.72 33.368 70.9601 32.4402C71.4088 32.1045 72.9191 31.4395 73.475 31.3295C74.2555 31.175 74.8824 30.7483 75.7095 30.6352C76.8853 30.4744 78.1697 29.8486 79.3401 29.6169C80.2752 29.4317 82.2969 28.8399 83.2377 29.1823C84.0569 29.4804 86.3154 29.4441 87.1617 29.2871C87.609 29.2042 90.3399 29.5246 90.7484 29.9014C91.4985 30.5933 93.4071 30.3441 94.1654 31.0632C94.7384 31.6065 96.2457 31.9711 96.9787 32.2851C97.6811 32.5859 98.2704 33.1523 98.9632 33.4872C101.084 34.5125 103.437 37.1727 104.1 39.4679C104.502 40.8629 105.777 42.0195 106.06 43.4765C106.328 44.8525 107.53 46.0018 107.869 47.4114C108.059 48.2024 109.231 49.901 109.01 50.5829C108.87 51.018 109.339 52.248 109.526 52.6648C109.736 53.1325 109.288 54.4173 109.242 54.9491C108.951 58.3052 108.407 61.512 107.724 64.7018C107.464 65.9162 106.465 68.0368 105.699 69.04C105.002 69.9532 103.369 72.0706 103.17 73.1288C102.616 76.0713 99.2862 78.2561 97.9377 80.7794C97.574 81.4599 96.794 81.8771 96.3889 82.5805C95.9441 83.353 95.4128 83.765 94.7695 84.3513C94.3143 84.7663 93.3214 85.7951 93.1048 86.3627C92.7674 87.2468 91.5531 87.7036 91.0372 88.5116C89.2494 91.312 86.3507 93.8815 83.8009 96.0329C82.238 97.3516 80.7804 98.7532 78.9755 99.6998C77.3986 100.527 74.9363 102.627 73.1022 102.633C71.4633 102.638 69.6736 104.127 68.0492 104.559C66.5637 104.954 64.6973 105.205 63.3709 105.967C62.8418 106.271 60.7295 106.71 60.1183 106.711C59.3942 106.714 58.505 106.924 57.792 107.056C57.2359 107.159 56.0983 107.002 55.4772 106.987C54.7538 106.97 53.7949 107.202 53.1097 106.962C51.449 106.381 48.9539 106.64 47.1735 106.397C45.7142 106.199 44.5951 105.746 43.2756 105.147C40.1441 103.726 37.7603 101.391 35.5253 98.7424C33.2389 96.0325 34.2112 90.8001 34.4831 87.6666C34.6331 85.9378 35.0805 84.734 35.7671 83.145C36.3163 81.8741 38.4964 79.4446 36.2225 79.7271C33.2013 80.1025 30.0949 81.2715 27.0713 81.0213C25.5548 80.8959 24.0449 80.2184 22.5503 80.4763C21.8423 80.5985 19.1533 80.0464 18.6166 79.638C17.4375 78.7408 15.6995 78.5182 14.4021 77.531C13.2987 76.6914 11.4924 74.5655 11.0846 73.2515C10.5741 71.6064 10.6664 70.2096 10.3908 68.5785C10.1603 67.2143 11.2989 65.8057 10.7089 64.4898C10.5504 64.1363 11.1632 62.2017 11.3015 61.7426C11.4875 61.1254 11.4358 59.8014 11.8051 59.3178C12.414 58.5202 12.567 56.8099 12.8947 55.7692C13.351 54.3201 13.6809 52.2065 14.5214 50.9585C15.1463 50.0305 15.8684 48.7147 16.3836 47.6569C17.5061 45.3521 21.3256 43.1726 23.2928 41.5128C25.5898 39.5747 28.6622 37.7688 31.4461 36.656C34.6172 35.3883 37.1392 33.8965 40.551 33.221C43.5824 32.6209 46.6918 32.7945 49.5685 33.1857C52.3204 33.5598 54.3077 34.3635 56.1977 36.6036C57.0103 37.5667 62.0353 41.582 61.4808 42.8652" stroke="black" stroke-width="3" stroke-linecap="round"/>
<path d="M51.408 84.7605C49.6511 88.6001 49.3679 87.673 48.4261 91.8157C50.8906 89.7363 53.2519 87.6374 56.0494 86.1702C56.9155 85.716 58.8379 84.8868 59.7939 84.9659C60.9278 85.0597 62.8247 84.9273 63.9071 84.4393C64.2477 84.2857 66.9498 85.8528 67.2694 86.2316C68.3372 87.4971 69.4349 88.5675 70.5967 89.6938C72.5189 91.5573 72.4675 88.973 72.4328 87.5379C72.3983 86.1099 71.283 84.3646 70.9127 82.9553C70.2194 80.3163 67.7086 77.5005 65.2347 76.6C63.0726 75.8131 59.2523 76.2093 57.4538 77.7268C55.0225 79.7782 52.7072 81.921 51.408 84.7605Z" fill="#F08E55" stroke="black" stroke-linecap="round"/>
<path d="M82.769 30.8968C82.1958 31.0165 81.6307 31.1958 81.0277 31.2977C81.3823 31.4226 81.7967 31.5103 82.1049 31.592C82.7906 31.7739 83.3778 31.7619 84.1299 31.9397C85.1485 32.1805 86.3174 32.3827 87.254 32.8553C88.3399 33.4032 89.4489 34.0079 90.5435 34.5244C92.3541 35.3788 94.1388 36.9612 95.4246 38.4852C96.8548 40.1803 98.5971 42.0268 99.4222 44.0846C99.8992 45.2742 100.653 46.3294 100.985 47.5842C101.36 48.9972 101.659 50.3794 101.854 51.8567C102.245 54.8212 101.882 57.8442 101.095 60.763C100.402 63.336 99.9241 65.8119 98.8264 68.2849C98.2103 69.6729 97.5424 71.0367 96.9283 72.4202C96.3157 73.8003 95.3621 74.9758 94.584 76.2674C93.724 77.6951 92.5938 78.9318 91.6184 80.265C90.8738 81.2826 90.2866 82.3627 89.4636 83.2981C88.7713 84.0849 88.1104 85.0607 87.5426 85.9366C86.8133 87.0615 85.6978 87.988 84.9136 89.079C83.9936 90.359 82.2985 91.3893 81.0935 92.406L81.023 92.4655C79.951 93.37 78.8968 94.2596 77.7472 95.0529C76.7482 95.7422 75.904 96.624 74.889 97.2775C74.1887 97.7284 73.3152 98.6856 72.5347 98.9212C71.9195 99.107 71.4264 100.137 70.7407 100.165C70.4229 100.178 70.1614 100.508 69.9136 100.717C69.6578 100.933 69.2603 100.918 68.9988 101.115C68.4329 101.543 67.7109 101.691 67.1489 102.115C66.7463 102.42 66.1078 102.75 66.6041 102.785C67.0092 102.814 67.3344 102.869 67.6095 102.661C67.9284 102.421 68.2666 102.352 68.658 102.192C69.2775 101.939 70.3225 101.247 70.9768 101.129C73.5325 100.668 76.1151 99.8489 78.0647 98.2039C79.3935 97.0827 82.0559 96.1739 83.1096 94.7954C84.177 93.3989 85.5094 92.4119 86.5628 91.0337C88.2261 88.8577 89.6141 87.6103 91.234 85.3963C91.5625 84.9474 93.8943 83.663 93.2243 82.869L94.2191 82.0297C95.28 81.1345 95.9035 79.9244 96.8411 78.9426C98.6531 77.0454 100.325 75.0285 101.82 72.8729C104.29 69.3102 105.748 64.8832 106.587 60.7092C107.045 58.4277 108.167 56.1269 107.933 53.7788C107.791 52.3554 107.795 50.9512 107.568 49.5073C107.46 48.8228 107.411 48.1037 107.366 47.3931C107.348 47.106 107.443 46.4722 107.338 46.2327C107.156 45.8193 106.905 45.3669 106.786 44.9327C106.425 43.6115 104.761 42.2541 103.883 41.2135C101.71 38.6379 100.085 35.3248 97.0146 33.8758C96.4257 33.5979 95.0212 33.6478 94.4842 33.266C93.9702 32.9005 92.8203 32.3217 92.2082 32.2787C91.6187 32.2373 91.0687 31.5995 90.4732 31.6033C89.8847 31.6071 89.0815 31.0514 88.5556 31.1548C88.0815 31.2479 87.1133 30.9465 86.6329 30.8143C86.1475 30.6807 85.2812 30.689 84.7821 30.7871C84.1366 30.9139 83.4301 30.7587 82.769 30.8968Z" fill="#F8BD7D"/>
<path d="M80.5607 31.358C81.3445 31.2907 82.0504 31.0469 82.769 30.8968C83.4301 30.7587 84.1366 30.9139 84.7821 30.7871C85.2812 30.689 86.1475 30.6807 86.6329 30.8143C87.1133 30.9465 88.0815 31.2479 88.5556 31.1548C89.0815 31.0514 89.8847 31.6071 90.4732 31.6033C91.0687 31.5995 91.6187 32.2373 92.2082 32.2787C92.8203 32.3217 93.9702 32.9005 94.4842 33.266C95.0212 33.6478 96.4257 33.5979 97.0146 33.8758C100.085 35.3248 101.71 38.638 103.883 41.2135C104.761 42.2541 106.425 43.6115 106.786 44.9327C106.905 45.3669 107.156 45.8193 107.338 46.2327C107.443 46.4722 107.348 47.106 107.366 47.3931C107.411 48.1037 107.46 48.8228 107.568 49.5073C107.795 50.9512 107.791 52.3554 107.933 53.7788C108.167 56.1269 107.045 58.4277 106.587 60.7092C105.748 64.8832 104.29 69.3102 101.82 72.8729C100.325 75.0285 98.6531 77.0454 96.8411 78.9426C95.9035 79.9244 95.28 81.1345 94.2191 82.0296C93.7519 82.4239 97.2599 79.464 93.2243 82.869C93.8943 83.663 91.5625 84.9474 91.234 85.3963C89.6141 87.6103 88.2261 88.8577 86.5628 91.0337C85.5094 92.4119 84.177 93.3989 83.1096 94.7954C82.0559 96.1739 79.3935 97.0827 78.0647 98.2039C76.1151 99.8489 73.5325 100.668 70.9768 101.129C70.3225 101.247 69.2775 101.939 68.658 102.192C68.2666 102.352 67.9284 102.421 67.6096 102.661C67.3344 102.869 67.0092 102.814 66.6041 102.785C66.1078 102.75 66.7463 102.42 67.1489 102.115C67.7109 101.691 68.4329 101.543 68.9988 101.115C69.2603 100.918 69.6578 100.933 69.9136 100.717C70.1614 100.508 70.4229 100.178 70.7407 100.165C71.4264 100.137 71.9195 99.107 72.5347 98.9212C73.3152 98.6856 74.1887 97.7284 74.889 97.2775C75.904 96.624 76.7482 95.7422 77.7472 95.0529C78.922 94.2422 79.9972 93.331 81.0935 92.406C82.2985 91.3893 83.9936 90.359 84.9136 89.079C85.6978 87.988 86.8133 87.0615 87.5426 85.9366C88.1104 85.0607 88.7713 84.0849 89.4636 83.2981C90.2866 82.3627 90.8738 81.2826 91.6184 80.265C92.5938 78.9318 93.724 77.6951 94.584 76.2674C95.3621 74.9758 96.3157 73.8003 96.9283 72.4202C97.5424 71.0367 98.2103 69.6729 98.8264 68.2849C99.9241 65.8119 100.402 63.336 101.095 60.763C101.882 57.8442 102.245 54.8212 101.854 51.8567C101.659 50.3794 101.36 48.9972 100.985 47.5842C100.653 46.3294 99.8992 45.2742 99.4222 44.0846C98.5971 42.0268 96.8548 40.1803 95.4246 38.4852C94.1388 36.9612 92.3541 35.3788 90.5435 34.5244C89.4489 34.0079 88.3399 33.4032 87.254 32.8553C86.3174 32.3827 85.1485 32.1805 84.1299 31.9397C83.3778 31.7619 82.7906 31.7739 82.1049 31.592C81.5629 31.4483 80.6925 31.2862 80.3967 30.9356" stroke="url(#paint0_diamond_28_607)" stroke-opacity="0.72" stroke-linecap="round"/>
<path d="M53.1106 58.1124C52.9599 58.8702 52.6475 59.532 52.1734 60.0978C51.7018 60.6511 51.0671 61.0502 50.2694 61.2948C49.4717 61.5395 48.5382 61.5576 47.469 61.3494L45.4922 60.9643L44.5583 65.6603L41.3693 65.0391L43.9707 51.9573L49.1366 52.9636C50.181 53.167 51.0279 53.5191 51.6773 54.0198C52.3268 54.5206 52.7688 55.1229 53.0034 55.8267C53.2379 56.5305 53.2737 57.2924 53.1106 58.1124ZM47.7305 58.7678C48.3398 58.8864 48.822 58.832 49.1772 58.6044C49.5324 58.3767 49.7619 58.002 49.8656 57.4803C49.9694 56.9585 49.9005 56.5257 49.6589 56.1818C49.4174 55.8379 48.992 55.6067 48.3828 55.488L46.6484 55.1501L45.9961 58.4299L47.7305 58.7678ZM66.9473 56.433L64.3458 69.5149L61.1568 68.8937L62.2277 63.5081L57.267 62.5418L56.196 67.9273L53.007 67.3061L55.6084 54.2243L58.7974 54.8455L57.7784 59.9701L62.7391 60.9365L63.7582 55.8118L66.9473 56.433ZM78.3894 63.0366C78.2387 63.7944 77.9263 64.4563 77.4522 65.022C76.9805 65.5754 76.3459 65.9744 75.5482 66.2191C74.7505 66.4637 73.817 66.4819 72.7478 66.2736L70.7709 65.8885L69.8371 70.5846L66.648 69.9634L69.2494 56.8815L74.4153 57.8878C75.4597 58.0912 76.3066 58.4433 76.9561 58.9441C77.6056 59.4448 78.0476 60.0471 78.2821 60.751C78.5167 61.4548 78.5525 62.2167 78.3894 63.0366ZM73.0093 63.692C73.6185 63.8107 74.1007 63.7562 74.4559 63.5286C74.8112 63.301 75.0406 62.9263 75.1444 62.4045C75.2482 61.8827 75.1793 61.4499 74.9377 61.106C74.6961 60.7622 74.2707 60.5309 73.6615 60.4122L71.9271 60.0744L71.2749 63.3541L73.0093 63.692Z" fill="#0D0303"/>
<defs>
<radialGradient id="paint0_diamond_28_607" cx="0" cy="0" r="1" gradientUnits="userSpaceOnUse" gradientTransform="translate(78.9181 64.9038) rotate(49.8444) scale(25.0083 34.4908)">
<stop stop-color="#F8BD7D"/>
<stop offset="1" stop-color="#F8BD7D" stop-opacity="0"/>
</radialGradient>
</defs>
</svg>
