<svg width="97" height="86" viewBox="0 0 97 86" fill="none" xmlns="http://www.w3.org/2000/svg">
<path d="M39.7131 26.9869C39.588 25.9159 38.6725 21.9633 39.659 20.6067C40.1213 19.9711 40.2359 18.685 40.4971 17.9303C41.2028 15.8917 41.7026 13.6423 42.8762 11.8475C43.9096 10.2669 44.5134 8.16113 46.2825 7.22455C47.7579 6.44347 49.3037 5.87367 50.9595 5.52137C54.1639 4.83959 57.6123 3.56233 60.8812 3.38563C63.4013 3.24941 65.9104 2.30136 68.4239 2.16907C70.6599 2.05139 72.8646 5.11653 74.6149 6.30537C78.2435 8.77012 81.9393 11.3699 83.6985 15.4972C86.1041 21.141 86.7714 27.1169 88.0781 33.0697C88.7708 36.2254 89.2778 38.9328 90.8086 41.8289C91.619 43.3621 92.7164 44.7296 93.6202 46.2085C93.8986 46.6641 94.4867 47.4393 94.9449 47.6684" stroke="url(#paint0_diamond_28_608)" stroke-opacity="0.72" stroke-width="3" stroke-linecap="round"/>
<path d="M38.9834 22.6072C38.9834 23.855 39.0931 24.8557 39.5478 25.9248C38.5748 24.7928 37.1492 23.7234 35.8204 23.3912C31.8506 22.3988 27.8595 22.5345 23.7764 22.837C19.7219 23.1373 15.0431 23.1301 11.6108 25.7702C10.4239 26.6833 9.03058 27.5502 7.78542 28.4467C6.49345 29.3769 5.82679 31.0077 4.62236 31.9612C2.80169 33.4025 2 36.7131 2 38.9091C2 41.7619 2.24331 44.6167 2.24331 47.425C2.24331 51.0971 3.22355 55.07 4.13574 58.6174C5.15578 62.5842 6.79682 66.3978 8.09632 70.2963C8.78999 72.3774 10.5 74.2721 11.6784 76.0817C12.6073 77.5082 13.3764 79.0328 15.0172 79.6638C17.4328 80.5929 19.967 80.0288 22.4382 80.0288C24.3528 80.0288 26.348 79.8718 28.2236 79.4881C32.1305 78.689 35.8063 77.6997 39.1186 75.2707C40.58 74.199 42.0328 73.2216 43.309 71.9454C43.8492 71.4052 44.3148 70.7463 44.8229 70.1747C45.539 69.369 45.2373 69.5369 45.6069 69.999C46.1779 70.7127 46.2471 72.0675 46.8775 72.8781C47.6241 73.838 47.9423 75.3958 48.5807 76.4332C49.3019 77.605 50.1697 78.3351 51.2707 79.0691C52.3773 79.8068 53.4415 81.4887 54.8122 81.4887C57.3745 81.4887 60.1409 83.0895 62.5847 83.7326C64.1913 84.1554 65.861 83.7504 67.3969 83.1919C71.2579 81.7879 74.4908 80.2883 77.4267 77.3524C78.9201 75.859 80.1718 74.2753 81.563 72.7295C82.5858 71.593 83.2779 70.0023 84.2394 68.9446C85.2855 67.7939 85.3323 65.5867 85.9426 64.2135C86.5476 62.8524 86.6662 61.231 86.97 59.7799C87.529 57.109 86.859 54.5973 85.6453 52.2912C85.0377 51.1369 84.4213 50.0398 83.6177 49.0065C82.7477 47.8881 81.2761 47.0949 80.5087 45.9787C79.9766 45.2047 82.5193 45.2977 83.0229 45.046C83.9461 44.5844 84.9815 44.1347 85.1992 42.9373C85.4913 41.3304 86.2492 39.4358 86.9159 37.9358C87.7163 36.1349 87.6458 33.9716 87.6458 32.0423C87.6458 29.1252 87.2478 26.2918 86.2941 23.5669C85.6183 21.636 85.3646 19.1957 84.1854 17.4976C83.7363 16.8509 83.5554 16.0829 83.131 15.416C82.7403 14.8019 82.1357 13.9581 81.8604 13.3073C80.6049 10.3396 77.2957 8.10878 74.507 6.79191C72.6942 5.93588 71.0179 4.94844 69.1541 4.22361C67.7081 3.66129 65.8713 2.89891 64.3014 2.89891C59.1678 2.89891 53.4977 2.53611 48.9592 5.45369C46.8511 6.80887 45.1848 8.10614 43.4712 9.81979C42.8755 10.4155 42.0599 11.3447 41.6599 12.1448C41.4521 12.5604 41.2792 13.0513 41.1597 13.4695C41.1097 13.6446 40.9778 14.3964 40.8758 14.5238C40.2837 15.264 40.5758 16.2872 40.2 17.1327C39.8576 17.9031 39.47 19.2086 39.47 20.0524C39.47 20.8389 38.9834 21.6935 38.9834 22.6072Z" fill="#FEF2DB"/>
<path d="M39.9567 26.7435C39.1548 25.3402 38.9834 24.1667 38.9834 22.6072C38.9834 21.6935 39.47 20.8389 39.47 20.0524C39.47 19.2086 39.8576 17.9031 40.2 17.1327C40.5758 16.2872 40.2837 15.264 40.8758 14.5238C40.9778 14.3964 41.1097 13.6446 41.1597 13.4695C41.2792 13.0513 41.4521 12.5604 41.6599 12.1448C42.0599 11.3447 42.8755 10.4155 43.4712 9.81979C45.1848 8.10614 46.8511 6.80887 48.9592 5.45369C53.4977 2.53611 59.1678 2.89891 64.3014 2.89891C65.8713 2.89891 67.7081 3.66129 69.1541 4.22361C71.0179 4.94844 72.6942 5.93588 74.507 6.79191C77.2957 8.10878 80.6048 10.3396 81.8604 13.3073C82.1357 13.9581 82.7403 14.8019 83.131 15.416C83.5554 16.0829 83.7363 16.8509 84.1854 17.4976C85.3646 19.1957 85.6183 21.636 86.2941 23.5669C87.2478 26.2918 87.6458 29.1252 87.6458 32.0423C87.6458 33.9716 87.7163 36.1349 86.9159 37.9358C86.2492 39.4358 85.4913 41.3304 85.1992 42.9373C84.9815 44.1347 83.9461 44.5844 83.0229 45.046C82.5193 45.2977 79.9766 45.2047 80.5087 45.9787C81.2761 47.0949 82.7477 47.8881 83.6177 49.0065C84.4213 50.0398 85.0377 51.1369 85.6453 52.2912C86.859 54.5973 87.529 57.109 86.97 59.7799C86.6662 61.231 86.5476 62.8524 85.9426 64.2135C85.3323 65.5867 85.2855 67.7939 84.2394 68.9446C83.2779 70.0023 82.5858 71.593 81.563 72.7295C80.1718 74.2753 78.9201 75.859 77.4267 77.3524C74.4908 80.2883 71.2579 81.7879 67.3969 83.1919C65.861 83.7504 64.1913 84.1554 62.5847 83.7326C60.1409 83.0895 57.3745 81.4887 54.8122 81.4887C53.4415 81.4887 52.3773 79.8068 51.2707 79.0691C50.1697 78.3351 49.3019 77.605 48.5807 76.4332C47.9423 75.3958 47.6241 73.838 46.8775 72.8781C46.2471 72.0675 46.1779 70.7127 45.6069 69.999C45.2373 69.5369 45.539 69.369 44.8229 70.1747C44.3148 70.7463 43.8492 71.4052 43.309 71.9454C42.0328 73.2216 40.58 74.199 39.1186 75.2707C35.8063 77.6997 32.1305 78.689 28.2236 79.4881C26.348 79.8718 24.3528 80.0288 22.4382 80.0288C19.967 80.0288 17.4328 80.5929 15.0172 79.6638C13.3764 79.0328 12.6073 77.5082 11.6784 76.0817C10.5 74.2721 8.78999 72.3774 8.09632 70.2963C6.79682 66.3978 5.15578 62.5842 4.13574 58.6174C3.22355 55.07 2.24331 51.0971 2.24331 47.425C2.24331 44.6167 2 41.7619 2 38.9091C2 36.7131 2.80169 33.4025 4.62236 31.9612C5.82679 31.0077 6.49345 29.3769 7.78542 28.4467C9.03058 27.5502 10.4239 26.6833 11.6108 25.7702C15.0431 23.1301 19.7219 23.1373 23.7764 22.837C27.8595 22.5345 31.8506 22.3988 35.8204 23.3912C37.6644 23.8522 39.6946 25.7327 40.4433 27.2301" stroke="black" stroke-width="3" stroke-linecap="round"/>
<path d="M45.7518 58.5097C42.0946 56.9142 31.2726 59.9791 29.0615 63.1831C29.1274 62.4497 30.9487 59.3224 31.5192 58.8002C32.1888 58.1873 33.6164 56.078 34.4936 55.7337C36.509 54.9426 39.8356 54.0097 42.1616 53.758C45.1938 53.4299 47.4981 52.6351 50.4513 53.9234L55.1471 55.9718C55.9577 56.3254 57.0587 55.2409 57.4094 54.4369C57.8584 53.4077 58.9057 52.6907 59.7838 52.0365C60.2838 51.664 62.4695 50.5119 61.9138 52.0219C61.5504 53.0095 61.9607 53.7799 61.772 54.7473C61.5485 55.8927 60.7668 57.008 60.6247 58.1549C60.3299 60.5337 63.0338 61.2904 64.2333 62.7966C64.788 63.4931 65.5555 63.8742 66.1137 64.605C66.6983 65.3703 67.0941 66.2668 67.6216 66.9293C67.9259 67.3113 68.6046 67.7186 68.326 68.3573C68.1256 68.8165 67.4663 68.0775 67.1415 68.1651C66.43 68.357 65.1282 67.4933 64.4516 67.1981C63.2822 66.688 61.9394 66.3677 60.7241 65.8375C59.5337 65.3182 58.7633 64.7206 58.1324 66.1669C57.3702 67.9141 55.7539 69.5408 54.67 71.0274C53.6979 72.3606 54.0809 71.9159 54.0124 70.6078C53.9461 69.3406 54.037 68.0424 54.0176 66.7758C53.9419 61.8215 49.6987 60.2315 45.7518 58.5097Z" fill="#E38155" stroke="black" stroke-linecap="round"/>
<path d="M17.9232 77.5958C16.7182 77.5958 14.8724 77.8232 13.6787 77.5958C14.5631 78.4802 16.1044 78.0459 16.8958 78.7583C17.9048 79.6664 19.7149 79.5423 20.9781 79.5423C22.7473 79.5423 24.3428 79.0557 26.0876 79.0557C26.8198 79.0557 27.5965 79.1531 28.2774 78.8664C28.7572 78.6644 29.586 78.3257 30.1023 78.3257C30.8501 78.3257 31.108 77.9806 31.8055 77.8256C32.1975 77.7385 33.2155 77.4453 33.5086 77.2173C34.5035 76.4436 36.6438 75.9246 37.28 74.8112C37.4641 74.489 38.7306 74.129 39.1048 73.838C39.5784 73.4696 40.023 73.0314 40.5512 72.7296C41.3147 72.2933 42.2188 71.179 42.6869 70.5938C43.1401 70.0273 42.3895 67.9546 42.3895 67.1334C42.3895 66.5745 42.2667 65.802 41.957 65.3761C41.8885 65.282 41.8897 63.3617 41.7137 63.5378C40.9858 64.2656 40.3682 65.8273 39.7131 66.7008C39.2449 67.325 38.7482 67.876 38.1992 68.404C37.5241 69.0531 36.7344 69.3578 36.0634 69.945C34.7287 71.1129 32.5542 72.051 30.9539 72.8512C29.2326 73.7118 27.2368 74.6963 25.3712 75.1627C23.7218 75.575 22.1759 76.855 20.4914 77.0957C19.5833 77.2254 18.8697 77.5958 17.9232 77.5958Z" fill="#F7BE7F" stroke="black" stroke-linecap="round"/>
<path d="M54.9339 80.0154C53.9323 79.7293 54.361 80.0316 53.6459 79.4708C53.6165 79.4535 53.5947 79.4367 53.5819 79.4207C53.4173 79.2149 55.4627 79.3813 55.8936 79.2855C57.1303 79.0107 58.7749 79.4033 59.9083 78.8665C61.1267 78.2893 63.0314 78.449 64.0446 77.5958C64.8036 76.9567 66.4883 76.8609 66.9643 76.0278C67.4424 75.1912 69.1357 74.9382 69.6408 74.0543C70.0874 73.2726 71.407 72.2191 72.0739 71.513C72.7294 70.819 73.2662 69.5443 74.0204 69.0259C74.5878 68.6357 75.6807 67.169 75.9669 66.5251C76.3901 65.573 77.1453 64.5294 77.4132 63.5919C77.7017 62.5822 78.003 61.2729 78.4541 60.3207C80.2813 56.4632 79.9147 52.266 78.1026 48.6417C77.6277 47.692 76.8129 47.0864 76.2642 46.2086C75.738 45.3665 74.5025 44.9707 74.0204 44.1269C73.6339 43.4507 72.729 42.2355 72.0739 41.7208C70.9206 40.8147 71.7609 40.2727 72.8038 39.6932C73.786 39.1476 76.6612 37.1481 76.9536 36.1247C77.0478 35.7949 77.8904 34.8942 78.1702 34.6378C78.7996 34.0608 79.3126 32.8667 79.7382 32.11C80.397 30.9388 80.8331 30.1268 80.8331 28.7442C80.8331 24.6283 79.2365 21.3394 77.4808 17.633C76.7101 16.0059 75.5713 13.3363 73.9122 12.3882C73.2367 12.0022 71.4977 11.1048 71.3575 10.3336C71.1264 9.06273 72.5744 8.45114 73.551 8.50858C74.4893 8.56378 76.2356 9.65544 76.9536 10.3336C77.9183 11.2446 78.551 12.0086 79.551 13.0086C80.5482 13.5626 81.5868 15.9641 82.051 17.0086C82.5663 18.1681 82.9953 18.8972 83.551 20.0086C84.5738 22.0542 85.456 24.6085 85.456 26.9734C85.456 29.1679 86.7292 31.4739 86.051 33.5086C85.1923 36.0847 85.7737 40.7936 84.051 43.0086C82.9722 44.3956 82.9353 42.581 81.2657 43.5086C79.4557 44.5141 79.032 47.0839 79.7382 47.7901C81.0559 49.1079 84.051 50.7379 84.051 52.5086C84.051 53.7631 85.4899 54.9692 85.551 56.0086C85.6191 57.1664 85.2409 58.8922 85.551 60.0086C86.1497 62.1638 83.6837 65.2521 83.551 67.5086C83.521 68.0179 81.8932 69.8017 81.551 70.0086C80.8769 70.4162 80.5263 71.0378 80.051 71.513C79.4996 72.0644 79.032 72.8901 78.551 73.5086C77.9396 74.2946 77.5066 74.7112 77.051 75.5086C76.8056 75.938 76.0386 76.9476 75.551 77.0086C74.8651 77.3812 74.2065 78.2108 74.0204 78.5086C73.5905 79.1963 71.5411 79.6281 70.7492 79.7721C69.8017 79.9444 68.5818 81.5085 67.551 81.5085C66.5969 81.5085 65.5755 82.0085 64.551 82.0085C62.3636 82.0085 60.0147 81.3704 57.9618 80.6372C57.6461 80.5245 57.3138 80.4485 56.9755 80.3873C56.2905 80.2635 55.5807 80.2003 54.9339 80.0154Z" fill="#F7BE7F"/>
<path d="M53.5819 79.4207C54.3866 80.0493 53.9038 79.7211 54.9339 80.0154C55.9002 80.2915 57.0068 80.2962 57.9618 80.6372C60.0147 81.3704 62.3636 82.0085 64.551 82.0085C65.5755 82.0085 66.5969 81.5085 67.551 81.5085C68.5818 81.5085 69.8017 79.9444 70.7492 79.7721C71.5411 79.6281 73.5905 79.1963 74.0204 78.5086C74.2065 78.2108 74.8651 77.3812 75.551 77.0086C76.0386 76.9476 76.8056 75.938 77.051 75.5086C77.5066 74.7112 77.9396 74.2946 78.551 73.5086C79.032 72.8901 79.4996 72.0644 80.051 71.513C80.5263 71.0378 80.8769 70.4162 81.551 70.0086C81.8932 69.8017 83.521 68.0179 83.551 67.5086C83.6837 65.2521 86.1497 62.1638 85.551 60.0086C85.2409 58.8922 85.6191 57.1664 85.551 56.0086C85.4899 54.9692 84.051 53.7631 84.051 52.5086C84.051 50.7379 81.0559 49.1079 79.7382 47.7901C79.032 47.0839 79.4557 44.5141 81.2657 43.5086C82.9353 42.581 82.9722 44.3956 84.051 43.0086C85.7737 40.7936 85.1923 36.0847 86.051 33.5086C86.7292 31.4739 85.456 29.1679 85.456 26.9734C85.456 24.6085 84.5738 22.0542 83.551 20.0086C82.9953 18.8972 82.5663 18.1681 82.051 17.0086C81.5868 15.9641 80.5482 13.5626 79.551 13.0086C78.551 12.0086 77.9183 11.2446 76.9536 10.3336C76.2356 9.65544 74.4893 8.56378 73.551 8.50858C72.5744 8.45114 71.1264 9.06273 71.3575 10.3336C71.4977 11.1048 73.2367 12.0022 73.9122 12.3882C75.5713 13.3363 76.7101 16.0059 77.4808 17.633C79.2365 21.3394 80.8331 24.6283 80.8331 28.7442C80.8331 30.1268 80.397 30.9388 79.7382 32.11C79.3126 32.8667 78.7996 34.0608 78.1702 34.6378C77.8904 34.8942 77.0478 35.7949 76.9536 36.1247C76.6612 37.1481 73.786 39.1476 72.8038 39.6932C71.7609 40.2727 70.9206 40.8147 72.0739 41.7208C72.729 42.2355 73.6339 43.4507 74.0204 44.1269C74.5025 44.9707 75.738 45.3665 76.2642 46.2086C76.8129 47.0864 77.6277 47.692 78.1026 48.6417C79.9147 52.266 80.2813 56.4632 78.4541 60.3207C78.003 61.2729 77.7017 62.5822 77.4132 63.5919C77.1453 64.5294 76.3901 65.573 75.9669 66.5251C75.6807 67.169 74.5878 68.6357 74.0204 69.0259C73.2662 69.5443 72.7294 70.819 72.0739 71.513C71.407 72.2191 70.0874 73.2726 69.6408 74.0543C69.1357 74.9382 67.4424 75.1912 66.9643 76.0278C66.4883 76.8609 64.8036 76.9567 64.0446 77.5958C63.0314 78.449 61.1267 78.2893 59.9083 78.8665C58.7749 79.4033 57.1303 79.0107 55.8936 79.2855C55.4627 79.3813 53.4173 79.2149 53.5819 79.4207ZM53.5819 79.4207C53.7594 79.6425 55.6513 80.0087 56.0153 80.029C56.8895 80.0775 57.5274 81.0022 58.4484 81.0022" stroke="black" stroke-linecap="round"/>
<path d="M29.0359 46.6306C29.3541 47.1027 29.5378 47.6092 29.5871 48.1499C29.6312 48.683 29.5097 49.2207 29.2225 49.7632C28.9353 50.3057 28.4589 50.8012 27.7933 51.2498L26.5627 52.0791L28.5344 55.0048L26.5491 56.3427L21.0565 48.1928L24.2724 46.0255C24.9225 45.5873 25.5477 45.3292 26.1478 45.2511C26.748 45.173 27.2933 45.2557 27.7838 45.4992C28.2743 45.7426 28.6916 46.1198 29.0359 46.6306ZM26.5782 49.7726C26.9575 49.517 27.18 49.2376 27.2458 48.9344C27.3116 48.6312 27.2349 48.3171 27.0158 47.992C26.7968 47.6669 26.5344 47.478 26.2286 47.4252C25.9229 47.3723 25.5804 47.4737 25.2012 47.7293L24.1215 48.457L25.4986 50.5002L26.5782 49.7726ZM36.0453 40.5223L38.4213 52.8154L36.2851 54.2551L35.5491 49.9564L28.6964 45.475L30.9139 43.9806L35.1421 47.023L33.8975 41.9697L36.0453 40.5223ZM43.6051 42.3999L44.7397 44.0833L43.7296 44.764C43.0098 45.2491 42.3313 45.4531 41.6941 45.376C41.0517 45.2913 40.4619 44.8503 39.9246 44.0531L38.1877 41.4758L37.3982 42.0078L36.2872 40.3592L37.0766 39.8272L36.0125 38.2483L37.9978 36.9104L39.0619 38.4893L40.3621 37.6129L41.4732 39.2615L40.1729 40.1378L41.9255 42.7384C42.0559 42.9318 42.1963 43.0399 42.3465 43.0624C42.4968 43.085 42.6802 43.0232 42.897 42.8771L43.6051 42.3999ZM45.4147 34.1065C46.1577 33.6058 46.9206 33.4518 47.7033 33.6446C48.4808 33.8297 49.1591 34.3517 49.7381 35.2108L52.2888 38.9956L50.3151 40.3257L47.9444 36.808C47.6523 36.3746 47.3132 36.1135 46.927 36.0249C46.5409 35.9362 46.1582 36.0197 45.7789 36.2752C45.3997 36.5308 45.1787 36.8542 45.1159 37.2454C45.0532 37.6366 45.1679 38.0489 45.46 38.4824L47.8307 42.0001L45.8455 43.338L40.0555 34.7469L42.0408 33.409L44.0516 36.3926C44.0598 35.9707 44.1807 35.5572 44.4143 35.1522C44.6478 34.7472 44.9813 34.3986 45.4147 34.1065ZM56.6797 36.1713C56.0451 36.5991 55.3811 36.8496 54.6877 36.923C54.002 36.9912 53.3426 36.8728 52.7095 36.5679C52.084 36.2579 51.5444 35.7661 51.0906 35.0928C50.642 34.4272 50.3953 33.7437 50.3503 33.0424C50.3002 32.3334 50.4392 31.6713 50.7675 31.0561C51.0957 30.441 51.5772 29.9195 52.2118 29.4918C52.8465 29.0641 53.5105 28.8135 54.2039 28.7402C54.8973 28.6668 55.5632 28.7864 56.2015 29.099C56.8347 29.4039 57.3756 29.8891 57.8242 30.5547C58.2728 31.2204 58.5183 31.9103 58.5607 32.6245C58.6056 33.3258 58.4601 33.9867 58.1241 34.607C57.7958 35.2222 57.3144 35.7436 56.6797 36.1713ZM55.5217 34.4531C55.901 34.1975 56.1283 33.8418 56.2037 33.3858C56.2868 32.9246 56.1536 32.4347 55.8041 31.9162C55.4546 31.3976 55.0544 31.0877 54.6035 30.9864C54.1603 30.8799 53.7491 30.9544 53.3698 31.21C52.9828 31.4708 52.7555 31.8266 52.6879 32.2774C52.6151 32.7204 52.756 33.2051 53.1107 33.7314C53.4602 34.2499 53.8526 34.5651 54.2881 34.6768C54.7313 34.7833 55.1425 34.7087 55.5217 34.4531ZM60.5947 23.876C61.3532 23.3648 62.1238 23.2056 62.9066 23.3984C63.6918 23.5783 64.3739 24.0977 64.9529 24.9568L67.5036 28.7416L65.53 30.0717L63.1593 26.554C62.8672 26.1206 62.528 25.8595 62.1419 25.7709C61.7557 25.6822 61.373 25.7657 60.9938 26.0212C60.6145 26.2768 60.3935 26.6002 60.3308 26.9914C60.268 27.3826 60.3827 27.7949 60.6748 28.2284L63.0456 31.7461L61.0603 33.084L56.6944 26.6059L58.6796 25.2679L59.2586 26.127C59.2669 25.705 59.3865 25.298 59.6175 24.906C59.8433 24.5062 60.169 24.1629 60.5947 23.876Z" fill="#502222"/>
<defs>
<radialGradient id="paint0_diamond_28_608" cx="0" cy="0" r="1" gradientUnits="userSpaceOnUse" gradientTransform="translate(66.7913 24.6372) rotate(90) scale(22.4714 28.0347)">
<stop stop-color="#F8BD7D"/>
<stop offset="1" stop-color="#F8BD7D" stop-opacity="0"/>
</radialGradient>
</defs>
</svg>
